<svg width="172" height="172" viewBox="0 0 172 172" fill="none" xmlns="http://www.w3.org/2000/svg">
<path d="M138.527 95.1656C143.309 66.2067 123.709 38.8546 94.7501 34.0731C65.7912 29.2917 38.4391 48.8914 33.6576 77.8503C28.8762 106.809 48.4759 134.161 77.4348 138.943C106.394 143.724 133.746 124.125 138.527 95.1656Z" fill="#2B0020"/>
<path d="M86.0948 139.647C101.434 139.647 115.253 133.146 124.954 122.752C116.804 104.104 99.5638 90.7423 86.0948 90.2653C74.6068 89.8583 54.1198 102.612 47.2358 122.752C56.9368 133.146 70.7558 139.647 86.0948 139.647Z" fill="#E39635"/>
<path opacity="0.15" d="M119.254 112.524C110.233 99.3943 96.9426 90.6493 86.0946 90.2653C76.3316 89.9193 60.0736 99.0833 51.1846 114.203C71.8096 127.426 97.9276 124.043 119.254 112.524Z" fill="black"/>
<path d="M131.598 45.4233C124.925 30.0243 105.802 25.2313 93.8449 23.9603C96.5169 22.1873 96.8559 19.0384 94.0219 19.0004C90.4839 18.9544 87.8989 23.4514 87.8989 23.4514C86.3889 20.5534 81.2839 19.7594 80.5729 21.6024C80.2429 22.4584 81.2659 23.1264 82.4559 23.5964C71.7569 23.9984 47.4359 27.6353 39.7279 45.4233C30.9269 65.7343 34.9889 94.5294 38.0349 97.3113C39.9209 99.0343 40.5089 96.7393 40.6839 94.7423C40.6859 97.9943 41.0259 103.595 43.2819 104.664C44.9939 105.475 45.8909 103.41 46.3549 101.301C46.2229 103.77 46.4939 106.67 48.3599 107.34C51.7449 108.557 52.4219 101.278 52.4219 101.278C52.4219 101.278 52.4219 110.249 55.8069 111.095C59.1919 111.941 60.2499 103.277 60.2499 103.277C60.2499 103.277 60.7159 110.703 63.0849 111.153C65.4549 111.603 66.6819 105.689 66.6819 105.689C66.6819 105.689 67.8549 112.28 75.6249 112.618C79.3209 112.779 80.7979 111.025 81.3319 109.141C81.5549 111.032 82.2099 112.794 83.9029 112.628C84.7269 112.547 85.2869 107.715 85.6619 100.343C86.0369 107.716 86.5969 112.547 87.4209 112.628C89.1149 112.794 89.7699 111.032 89.9919 109.141C90.5259 111.024 92.0029 112.778 95.6989 112.618C103.469 112.279 104.642 105.689 104.642 105.689C104.642 105.689 105.87 111.603 108.239 111.153C110.609 110.703 111.074 103.277 111.074 103.277C111.074 103.277 112.132 111.941 115.517 111.095C118.902 110.249 118.902 101.278 118.902 101.278C118.902 101.278 119.579 108.556 122.964 107.34C124.83 106.669 125.101 103.769 124.969 101.301C125.433 103.41 126.33 105.475 128.042 104.664C130.298 103.596 130.638 97.9943 130.64 94.7423C130.815 96.7403 131.403 99.0343 133.289 97.3113C136.337 94.5294 140.399 65.7343 131.598 45.4233Z" fill="#EDB348"/>
<path opacity="0.15" d="M50.2987 47.6636C53.9017 44.4606 52.0977 38.3516 49.5807 33.4736C45.4227 36.4886 41.9087 40.3886 39.7267 45.4236C39.2167 46.6016 38.7507 47.8086 38.3247 49.0366C42.6347 49.5516 48.7737 48.5476 50.2987 47.6636Z" fill="black"/>
<path opacity="0.15" d="M121.017 47.6636C117.414 44.4606 119.218 38.3516 121.735 33.4736C125.893 36.4886 129.407 40.3886 131.589 45.4236C132.099 46.6016 132.565 47.8086 132.991 49.0366C128.681 49.5516 122.541 48.5476 121.017 47.6636Z" fill="black"/>
<path opacity="0.15" d="M123.724 78.0061C123.724 101.208 86.4116 112.639 86.4116 112.639C86.4116 112.639 49.0996 101.208 49.0996 78.0061C49.0996 54.8041 65.8046 35.9961 86.4116 35.9961C107.019 35.9961 123.724 54.8051 123.724 78.0061Z" fill="black"/>
<path d="M123.724 68.6919C123.724 88.9989 107.019 94.0679 86.4116 94.0679C65.8046 94.0679 49.0996 88.9999 49.0996 68.6919C49.0996 48.3839 65.8046 31.9219 86.4116 31.9219C107.019 31.9219 123.724 48.3839 123.724 68.6919Z" fill="#E39635"/>
<path d="M99.4877 118.317H72.7027C70.4737 118.317 68.5207 116.639 68.2857 114.491L65.4167 88.3334C65.1057 85.5014 67.0707 83.1084 69.7597 83.1084H102.432C105.12 83.1084 107.085 85.5014 106.775 88.3334L103.906 114.491C103.669 116.639 101.717 118.317 99.4877 118.317Z" fill="#F3C07B"/>
<path d="M72.9878 109.703L70.7668 89.4529C70.6138 88.0579 71.7068 86.8379 73.1098 86.8379H99.0798C100.484 86.8379 101.576 88.0569 101.423 89.4529L99.2018 109.703C99.0708 110.898 98.0608 111.803 96.8588 111.803H75.3308C74.1288 111.804 73.1188 110.899 72.9878 109.703Z" fill="#2B0020"/>
<path d="M75.3309 111.805H96.8589C98.0609 111.805 99.0709 110.9 99.2019 109.705L99.7709 104.521C96.2919 101.481 91.4509 99.5938 86.0949 99.5938C80.7389 99.5938 75.8979 101.481 72.4189 104.52L72.9879 109.704C73.1189 110.9 74.1289 111.805 75.3309 111.805Z" fill="#DF3140"/>
<path d="M96.9688 111.804C96.9688 111.804 96.3848 108.93 94.7478 108.336C93.1118 107.741 91.5918 111.804 91.5918 111.804H96.9688Z" fill="white"/>
<path d="M75.2207 111.804C75.2207 111.804 75.8047 108.93 77.4417 108.336C79.0777 107.741 80.5977 111.804 80.5977 111.804H75.2207Z" fill="white"/>
<path d="M72.4189 95.1699C72.4189 95.1699 73.1539 99.9989 75.2119 100.999C77.2699 101.998 79.1809 95.1699 79.1809 95.1699H72.4189Z" fill="white"/>
<path d="M99.7708 95.1699C99.7708 95.1699 99.0358 99.9989 96.9778 100.999C94.9198 101.998 93.0088 95.1699 93.0088 95.1699H99.7708Z" fill="white"/>
<path d="M86.4116 74.8652C75.3386 74.8652 58.8756 75.0572 61.2746 91.2532C62.7486 101.203 81.0026 99.3342 85.4426 92.1672C85.8946 91.4382 86.9286 91.4382 87.3806 92.1672C91.8206 99.3342 110.075 101.202 111.549 91.2532C113.948 75.0572 97.4836 74.8652 86.4116 74.8652Z" fill="#F6DB99"/>
<path d="M97.5897 79.0029C97.5897 82.2249 92.5817 82.6659 86.4047 82.6659C80.2277 82.6659 75.2197 82.2249 75.2197 79.0029C75.2197 75.7809 80.2267 73.1689 86.4047 73.1689C92.5817 73.1689 97.5897 75.7809 97.5897 79.0029Z" fill="#2B0020"/>
<path d="M75.2207 67.4715C75.2207 72.5295 73.0947 74.0515 70.4717 74.0515C67.8487 74.0515 65.7227 72.5295 65.7227 67.4715C65.7227 62.4135 67.8487 58.3125 70.4717 58.3125C73.0947 58.3125 75.2207 62.4135 75.2207 67.4715Z" fill="#2B0020"/>
<path d="M73.3665 60.2225C72.5645 59.0295 71.5625 58.3125 70.4715 58.3125C68.0165 58.3125 65.9965 61.9065 65.7485 66.5155C67.3225 66.4895 68.8885 66.0865 70.1995 65.2995C71.5885 64.2585 72.9715 62.3295 73.3665 60.2225Z" fill="white"/>
<path d="M107.088 67.4715C107.088 72.5295 104.962 74.0515 102.339 74.0515C99.7158 74.0515 97.5898 72.5295 97.5898 67.4715C97.5898 62.4135 99.7158 58.3125 102.339 58.3125C104.961 58.3125 107.088 62.4135 107.088 67.4715Z" fill="#2B0020"/>
<path d="M105.233 60.2225C104.431 59.0295 103.429 58.3125 102.338 58.3125C99.8827 58.3125 97.8627 61.9065 97.6147 66.5155C99.1887 66.4895 100.755 66.0865 102.066 65.2995C103.456 64.2585 104.839 62.3295 105.233 60.2225Z" fill="white"/>
<path d="M65.5847 57.0154C65.2497 57.0154 64.9147 56.8924 64.6527 56.6444C64.1087 56.1294 64.0847 55.2714 64.5997 54.7264C66.1647 53.0724 68.0627 52.2334 70.2407 52.2334C73.4737 52.2334 75.5327 54.4924 75.6197 54.5894C76.1197 55.1474 76.0717 56.0054 75.5127 56.5054C74.9577 57.0034 74.1037 56.9584 73.6027 56.4054C73.5657 56.3654 72.2177 54.9474 70.2407 54.9474C68.8177 54.9474 67.6177 55.4854 66.5707 56.5924C66.3037 56.8734 65.9447 57.0154 65.5847 57.0154Z" fill="#DE8316"/>
<path d="M96.9266 57.0154C96.5916 57.0154 96.2566 56.8924 95.9946 56.6444C95.4506 56.1294 95.4266 55.2714 95.9406 54.7264C97.5056 53.0724 99.4046 52.2334 101.582 52.2334C104.816 52.2334 106.874 54.4924 106.96 54.5894C107.46 55.1484 107.412 56.0064 106.854 56.5054C106.296 57.0034 105.444 56.9574 104.944 56.4054C104.908 56.3674 103.561 54.9474 101.583 54.9474C100.16 54.9474 98.9596 55.4854 97.9126 56.5924C97.6446 56.8734 97.2866 57.0154 96.9266 57.0154Z" fill="#DE8316"/>
<path d="M110.598 37.5366C109.715 37.0396 109.287 36.0266 109.832 35.1716C112.038 31.7116 117.527 24.5356 124.095 26.5296C132.213 28.9936 132.229 42.7186 122.322 47.6706C121.464 48.0996 120.613 47.5906 120.088 46.7886C118.075 43.7116 115.119 40.0816 110.598 37.5366Z" fill="#E39635"/>
<path d="M124.149 34.0932C123.064 31.3792 119.264 30.2942 116.008 31.9222C113.813 33.4902 112.346 35.6022 111.286 37.9422C114.812 40.0872 117.337 42.8842 119.187 45.4712C123.079 43.0942 126.15 38.5952 124.149 34.0932Z" fill="#F6DB99"/>
<path d="M60.7277 37.5366C61.6107 37.0396 62.0387 36.0266 61.4947 35.1716C59.2887 31.7116 53.7997 24.5356 47.2317 26.5296C39.1137 28.9936 39.0977 42.7186 49.0047 47.6706C49.8627 48.0996 50.7137 47.5906 51.2387 46.7886C53.2497 43.7116 56.2067 40.0816 60.7277 37.5366Z" fill="#E39635"/>
<path d="M47.1756 34.0932C48.2606 31.3792 52.0606 30.2942 55.3166 31.9222C57.5116 33.4902 58.9786 35.6022 60.0386 37.9422C56.5126 40.0872 53.9876 42.8842 52.1376 45.4712C48.2456 43.0942 45.1756 38.5952 47.1756 34.0932Z" fill="#F6DB99"/>
</svg>
