<svg width="172" height="172" viewBox="0 0 172 172" fill="none" xmlns="http://www.w3.org/2000/svg">
<path d="M134.645 107.742C146.251 80.7823 133.804 49.5184 106.844 37.9126C79.8841 26.3067 48.6202 38.7537 37.0143 65.7138C25.4084 92.6738 37.8555 123.938 64.8155 135.544C91.7756 147.15 123.039 134.702 134.645 107.742Z" fill="#8EBB6A"/>
<path d="M46.3759 68.5259C46.2719 67.8249 46.2109 67.0509 46.2109 66.1749C46.2109 60.3039 48.6789 55.5449 51.7229 55.5449C51.8989 55.5449 52.0729 55.5649 52.2449 55.5959C51.3639 60.8309 49.8829 65.3389 46.3759 68.5259Z" fill="#2B0020"/>
<path d="M51.5552 52.5763C49.1522 52.5763 47.5282 54.3013 47.4932 54.3393C46.9932 54.8913 46.1392 54.9373 45.5822 54.4403C45.0232 53.9403 44.9762 53.0833 45.4752 52.5243C45.5732 52.4153 47.8992 49.8623 51.5552 49.8623C52.0522 49.8623 52.5322 49.9113 53.0032 49.9883C52.8992 50.9003 52.7912 51.7973 52.6762 52.6803C52.3142 52.6133 51.9422 52.5763 51.5552 52.5763Z" fill="#2B0020"/>
<path d="M71.3913 23.072C66.8833 23.856 69.1493 29.275 69.1493 29.275C69.1493 29.275 68.0453 28.259 66.4263 27.837C65.1063 21.683 65.2683 14.692 67.2753 14.056C70.2683 13.107 73.3423 18.259 75.5373 23.666C74.5203 23.121 73.1553 22.765 71.3913 23.072Z" fill="#B95A3B"/>
<path d="M18.7167 86.6416C18.6887 86.7976 18.6617 86.9536 18.6377 87.1096C18.6607 86.9536 18.6887 86.7976 18.7167 86.6416Z" fill="#DBDBC9"/>
<path d="M18.4658 88.5898C18.4498 88.7908 18.4358 88.9918 18.4258 89.1928C18.4358 88.9918 18.4498 88.7918 18.4658 88.5898Z" fill="#DBDBC9"/>
<path d="M18.9037 85.7188C18.8677 85.8777 18.8338 86.0357 18.8018 86.1947C18.8338 86.0357 18.8667 85.8768 18.9037 85.7188Z" fill="#DBDBC9"/>
<path d="M18.3995 89.7959C18.3965 89.9299 18.3965 90.0639 18.3965 90.1979C18.3965 90.0629 18.3965 89.9299 18.3995 89.7959Z" fill="#DBDBC9"/>
<path d="M19.5546 83.5342C19.4516 83.8142 19.3556 84.0952 19.2676 84.3792C19.3546 84.0952 19.4506 83.8142 19.5546 83.5342Z" fill="#DBDBC9"/>
<path d="M57.5645 37.2245C58.4405 36.1985 59.4344 35.2245 60.5284 34.3125C61.3584 36.4935 62.9635 38.3745 62.9635 38.3745C62.9635 38.3745 60.4015 37.5105 57.5645 37.2245Z" fill="#E49B3F"/>
<path d="M18.4297 91.5938C18.4367 91.7247 18.4447 91.8547 18.4547 91.9847C18.4447 91.8557 18.4367 91.7247 18.4297 91.5938Z" fill="#DBDBC9"/>
<path d="M18.9385 95.2529C18.9605 95.3489 18.9835 95.4419 19.0075 95.5369C18.9835 95.4429 18.9605 95.3489 18.9385 95.2529Z" fill="#DBDBC9"/>
<path d="M19.6571 97.6406C19.6311 97.5736 19.6071 97.5026 19.5811 97.4336C19.6061 97.5016 19.6311 97.5736 19.6571 97.6406Z" fill="#DBDBC9"/>
<path d="M18.6035 93.4072C18.6155 93.4962 18.6265 93.5872 18.6395 93.6762C18.6265 93.5872 18.6165 93.4972 18.6035 93.4072Z" fill="#DBDBC9"/>
<path d="M18.4961 92.4863C18.5071 92.6053 18.5181 92.7243 18.5311 92.8423C18.5181 92.7253 18.5081 92.6053 18.4961 92.4863Z" fill="#DBDBC9"/>
<path d="M18.7744 94.4707C18.7884 94.5467 18.8054 94.6207 18.8204 94.6967C18.8054 94.6207 18.7884 94.5477 18.7744 94.4707Z" fill="#DBDBC9"/>
<path d="M36.2455 102.058C35.2565 102.075 34.2905 102.071 33.3525 102.048C34.2895 102.071 35.2565 102.075 36.2455 102.058Z" fill="#DBDBC9"/>
<path d="M26.9727 101.499C28.8497 101.804 31.0107 101.989 33.3527 102.048C31.0097 101.988 28.8497 101.804 26.9727 101.499Z" fill="#DBDBC9"/>
<path d="M24.8613 101.075C25.5153 101.236 26.2213 101.377 26.9723 101.499C26.2213 101.377 25.5153 101.235 24.8613 101.075Z" fill="#DBDBC9"/>
<path d="M37.7451 102.017C39.2601 101.961 40.8201 101.86 42.4011 101.711C40.8191 101.86 39.2601 101.962 37.7451 102.017Z" fill="#DBDBC9"/>
<path d="M26.2757 75.6084C26.0997 75.7074 25.9307 75.8114 25.7607 75.9144C25.9307 75.8104 26.0987 75.7074 26.2757 75.6084Z" fill="#DBDBC9"/>
<path d="M23.0605 100.536C23.6045 100.735 24.2065 100.914 24.8605 101.075C24.2075 100.914 23.6055 100.734 23.0605 100.536Z" fill="#DBDBC9"/>
<path d="M25.3239 76.1885C25.1589 76.2975 24.9978 76.4085 24.8398 76.5215C24.9978 76.4075 25.1589 76.2965 25.3239 76.1885Z" fill="#DBDBC9"/>
<path d="M113.857 52.5405C113.836 52.5065 113.816 52.4735 113.795 52.4395C113.816 52.4735 113.837 52.5075 113.857 52.5405Z" fill="#DBDBC9"/>
<path d="M112.915 50.9742C112.894 50.9382 112.872 50.9022 112.851 50.8662C112.873 50.9022 112.894 50.9382 112.915 50.9742Z" fill="#DBDBC9"/>
<path d="M111.953 49.3248C111.94 49.3018 111.927 49.2798 111.914 49.2568C111.926 49.2788 111.94 49.3018 111.953 49.3248Z" fill="#DBDBC9"/>
<path d="M20.807 80.8984C20.716 81.0504 20.628 81.2044 20.543 81.3584C20.628 81.2034 20.717 81.0504 20.807 80.8984Z" fill="#DBDBC9"/>
<path d="M21.3321 80.0771C21.2301 80.2251 21.1321 80.3762 21.0361 80.5272C21.1321 80.3762 21.2291 80.2251 21.3321 80.0771Z" fill="#DBDBC9"/>
<path d="M21.9179 79.2832C21.8029 79.4282 21.6959 79.5762 21.5879 79.7242C21.6959 79.5772 21.8029 79.4282 21.9179 79.2832Z" fill="#DBDBC9"/>
<path d="M19.4235 96.9882C19.3945 96.9032 19.3675 96.8162 19.3395 96.7292C19.2935 96.5852 19.2495 96.4382 19.2065 96.2892C19.1795 96.1962 19.1525 96.1022 19.1275 96.0062C19.0855 95.8522 19.0465 95.6962 19.0075 95.5372C18.9845 95.4432 18.9605 95.3492 18.9385 95.2532C18.8965 95.0712 18.8585 94.8842 18.8205 94.6962C18.8055 94.6202 18.7885 94.5472 18.7745 94.4702C18.7255 94.2102 18.6805 93.9442 18.6405 93.6752C18.6275 93.5872 18.6165 93.4962 18.6045 93.4062C18.5785 93.2192 18.5535 93.0322 18.5325 92.8412C18.5195 92.7232 18.5085 92.6042 18.4975 92.4852C18.4815 92.3192 18.4665 92.1522 18.4545 91.9842C18.4455 91.8542 18.4375 91.7242 18.4295 91.5932C18.4205 91.4312 18.4135 91.2682 18.4085 91.1042C18.4035 90.9692 18.3995 90.8342 18.3975 90.6972C18.3945 90.5312 18.3955 90.3632 18.3965 90.1952C18.3975 90.0612 18.3965 89.9282 18.3995 89.7932C18.4045 89.5932 18.4145 89.3922 18.4255 89.1902C18.4355 88.9892 18.4495 88.7892 18.4655 88.5872C18.4805 88.3982 18.4955 88.2102 18.5165 88.0212C18.5325 87.8722 18.5535 87.7232 18.5725 87.5752C18.5925 87.4192 18.6125 87.2632 18.6365 87.1072C18.6605 86.9512 18.6875 86.7952 18.7155 86.6392C18.7425 86.4902 18.7705 86.3412 18.8005 86.1922C18.8325 86.0332 18.8665 85.8742 18.9025 85.7162C18.9355 85.5712 18.9725 85.4262 19.0095 85.2812C19.0505 85.1212 19.0905 84.9602 19.1365 84.8012C19.1765 84.6592 19.2225 84.5182 19.2665 84.3772C19.3545 84.0942 19.4505 83.8122 19.5535 83.5322C19.6095 83.3812 19.6615 83.2302 19.7215 83.0812C19.7855 82.9212 19.8585 82.7632 19.9275 82.6052C19.9855 82.4732 20.0425 82.3402 20.1045 82.2092C20.1785 82.0522 20.2595 81.8962 20.3385 81.7412C20.4045 81.6122 20.4715 81.4842 20.5415 81.3572C20.6265 81.2022 20.7155 81.0492 20.8055 80.8972C20.8795 80.7732 20.9565 80.6492 21.0355 80.5262C21.1315 80.3752 21.2285 80.2242 21.3315 80.0762C21.4135 79.9572 21.5005 79.8412 21.5865 79.7232C21.6955 79.5752 21.8015 79.4272 21.9165 79.2822C22.0035 79.1732 22.0965 79.0682 22.1865 78.9612C22.4125 78.6932 22.6515 78.4312 22.9015 78.1762C23.0055 78.0702 23.1065 77.9622 23.2145 77.8582C23.3495 77.7292 23.4925 77.6052 23.6335 77.4802C23.7515 77.3752 23.8695 77.2702 23.9915 77.1682C24.1375 77.0472 24.2895 76.9292 24.4425 76.8122C24.5725 76.7132 24.7035 76.6152 24.8375 76.5192C24.9955 76.4062 25.1565 76.2952 25.3215 76.1862C25.4635 76.0932 25.6105 76.0022 25.7585 75.9122C25.9275 75.8092 26.0965 75.7052 26.2735 75.6062C26.4335 75.5172 26.6005 75.4332 26.7665 75.3482C26.9435 75.2572 27.1165 75.1622 27.2995 75.0762C35.8255 76.7602 43.5615 81.9252 46.1045 91.6732C47.8685 98.7292 59.5325 94.6942 60.2165 96.9652C60.8325 97.2732 59.6285 98.1412 59.6285 98.1412C54.2985 99.9902 48.1995 101.165 42.3995 101.71C40.8175 101.859 39.2585 101.96 37.7435 102.016C37.2385 102.035 36.7385 102.048 36.2435 102.056C35.2545 102.073 34.2885 102.069 33.3505 102.046C31.0075 101.987 28.8475 101.803 26.9705 101.497C26.2195 101.375 25.5135 101.233 24.8595 101.073C24.2055 100.912 23.6035 100.733 23.0595 100.534C22.2435 100.236 21.5575 99.8962 21.0245 99.5142C20.6695 99.2592 20.3815 98.9862 20.1685 98.6952C20.0615 98.5492 19.9735 98.3992 19.9055 98.2452C19.8195 98.0522 19.7365 97.8492 19.6555 97.6392C19.6295 97.5722 19.6055 97.5012 19.5795 97.4322C19.5275 97.2882 19.4745 97.1412 19.4235 96.9882Z" fill="#9F3423"/>
<path d="M107.146 38.0275C107.146 38.0275 112.552 35.8155 114.749 37.2625C116.947 38.7095 112.851 40.4545 112.851 40.4545C112.851 40.4545 120.542 38.4605 122.171 40.4505C123.799 42.4405 119.263 45.4075 119.263 45.4075C119.263 45.4075 126.562 45.7875 128.141 48.3195C129.719 50.8525 124.952 50.9725 124.952 50.9725C124.952 50.9725 131.736 51.4755 133.364 53.3395C134.992 55.2035 130.294 57.6015 130.294 57.6015C130.294 57.6015 137.027 59.5795 137.751 61.8975C138.475 64.2165 134.228 64.7335 134.228 64.7335C134.228 64.7335 138.029 64.2545 138.975 67.4015C139.921 70.5485 136.348 69.9605 136.348 69.9605C136.348 69.9605 140.328 72.0975 141.233 75.6595C142.138 79.2215 140.577 80.9665 133.703 79.9335C126.828 78.8995 109.167 52.5395 109.167 52.5395L107.146 38.0275Z" fill="#2B0020"/>
<path d="M27.3203 75.0815C35.8383 76.7695 43.5643 81.9335 46.1053 91.6745C47.8693 98.7305 59.5333 94.6955 60.2173 96.9665C60.8333 97.2745 59.6293 98.1425 59.6293 98.1425C59.6293 98.1425 70.4713 102.018 79.0453 100.189C84.9543 98.9295 88.7883 96.0505 90.6403 94.2715C91.7683 93.1875 93.2553 92.8575 94.6093 93.1455C99.8983 90.1775 106.658 88.3055 109.889 91.5365C117.806 98.7335 124.531 106.404 133.067 111.075C136.002 105.392 137.948 99.1155 138.663 92.4685C138.866 90.5815 138.973 88.6655 138.973 86.7245C138.973 84.6225 138.827 82.3465 138.555 79.9405C136.36 78.4955 133.85 76.5965 131.127 74.1155C131.127 74.1165 131.126 74.1185 131.126 74.1195C129.689 72.8105 128.192 71.3365 126.651 69.6825C125.292 68.2235 123.898 66.6235 122.48 64.8695C122.471 64.8575 122.461 64.8465 122.452 64.8345C121.981 64.2515 121.508 63.6525 121.032 63.0355C119.897 61.5625 118.749 59.9905 117.593 58.3115C116.662 56.9595 115.725 55.5375 114.785 54.0445C114.772 54.0235 114.759 54.0035 114.746 53.9825C114.449 53.5095 114.151 53.0295 113.854 52.5415C113.833 52.5075 113.813 52.4745 113.792 52.4405C113.499 51.9595 113.205 51.4705 112.912 50.9745C112.891 50.9385 112.869 50.9025 112.848 50.8665C112.549 50.3605 112.25 49.8465 111.951 49.3255C111.938 49.3025 111.925 49.2805 111.912 49.2575C111.283 48.1605 110.654 47.0305 110.026 45.8645C109.7 45.2595 109.374 44.6485 109.049 44.0245C108.957 43.8485 108.86 43.6805 108.766 43.5075C106.858 46.4245 103.798 46.3805 100.64 44.7385C97.4523 43.0805 94.1663 39.7955 91.8623 36.2785C90.0643 33.5355 88.8643 30.6525 88.7773 28.2935C88.7743 28.2035 88.7713 28.1115 88.7673 28.0205C88.0923 28.0435 87.4213 28.1665 86.7793 28.4025C83.6933 29.5345 78.2113 32.5325 73.3493 40.2995C66.0973 51.8855 64.9213 56.7855 61.1973 55.6095C57.4733 54.4335 60.6093 48.3575 56.1013 48.1615C55.0093 48.1135 54.0743 47.8675 53.2833 47.4835C53.1893 48.3285 53.0963 49.1645 53.0023 49.9885C52.8983 50.9005 52.7903 51.7975 52.6753 52.6805C52.5453 53.6735 52.4053 54.6475 52.2453 55.5975C51.3633 60.8325 49.8823 65.3405 46.3753 68.5275C43.6963 70.9615 39.8393 72.6285 34.1453 73.2505C31.4663 73.5405 29.2173 74.1865 27.3203 75.0815ZM70.0283 68.5115C70.0283 63.9435 71.5253 60.0595 73.6223 58.5555C73.6773 58.5155 73.7323 58.4755 73.7883 58.4385C73.8753 58.3825 73.9633 58.3325 74.0513 58.2845C74.1303 58.2415 74.2103 58.2025 74.2913 58.1655C74.3683 58.1315 74.4453 58.0975 74.5233 58.0695C74.6263 58.0325 74.7303 58.0035 74.8353 57.9775C74.8973 57.9625 74.9593 57.9425 75.0223 57.9315C75.1933 57.9005 75.3653 57.8815 75.5403 57.8815C75.7253 57.8815 75.9073 57.9005 76.0863 57.9345C76.1463 57.9455 76.2053 57.9685 76.2643 57.9835C76.3823 58.0135 76.5013 58.0435 76.6173 58.0875C76.6873 58.1145 76.7553 58.1515 76.8243 58.1835C76.9273 58.2315 77.0303 58.2775 77.1313 58.3355C77.2033 58.3775 77.2733 58.4285 77.3443 58.4755C77.4383 58.5385 77.5323 58.6005 77.6243 58.6735C77.6963 58.7295 77.7653 58.7935 77.8353 58.8555C77.9223 58.9325 78.0093 59.0105 78.0933 59.0955C78.1633 59.1655 78.2303 59.2415 78.2983 59.3175C78.3793 59.4085 78.4593 59.4995 78.5383 59.5985C78.6043 59.6815 78.6693 59.7695 78.7343 59.8585C78.8093 59.9615 78.8833 60.0675 78.9553 60.1775C79.0183 60.2735 79.0793 60.3715 79.1403 60.4725C79.2093 60.5875 79.2763 60.7045 79.3413 60.8255C79.4003 60.9335 79.4573 61.0425 79.5133 61.1545C79.5753 61.2795 79.6353 61.4085 79.6943 61.5395C79.7483 61.6585 79.8013 61.7775 79.8523 61.9005C79.9083 62.0355 79.9603 62.1745 80.0123 62.3135C80.0603 62.4425 80.1083 62.5705 80.1533 62.7035C80.2023 62.8475 80.2473 62.9965 80.2923 63.1455C80.3343 63.2835 80.3773 63.4195 80.4153 63.5605C80.4573 63.7135 80.4943 63.8725 80.5323 64.0295C80.5673 64.1745 80.6043 64.3175 80.6363 64.4655C80.6713 64.6295 80.7003 64.7985 80.7313 64.9665C80.7583 65.1155 80.7883 65.2625 80.8123 65.4145C80.8403 65.5955 80.8623 65.7815 80.8863 65.9655C80.9053 66.1115 80.9273 66.2545 80.9423 66.4025C80.9763 66.7265 81.0023 67.0555 81.0203 67.3895C81.0403 67.7585 81.0513 68.1315 81.0513 68.5105C81.0513 74.3815 78.5833 76.1485 75.5393 76.1485C72.4953 76.1485 70.0283 74.3815 70.0283 68.5115ZM69.2923 54.8585C69.3903 54.7495 71.7163 52.1975 75.3723 52.1975C77.8383 52.1975 79.9883 53.1485 81.7613 55.0235C82.2763 55.5675 82.2523 56.4265 81.7083 56.9415C81.4463 57.1895 81.1103 57.3125 80.7763 57.3125C80.4163 57.3125 80.0573 57.1705 79.7903 56.8885C78.5313 55.5585 77.0863 54.9115 75.3723 54.9115C72.9733 54.9115 71.3493 56.6315 71.3093 56.6745C70.8093 57.2265 69.9543 57.2725 69.3983 56.7755C68.8403 56.2745 68.7933 55.4165 69.2923 54.8585Z" fill="#AA4529"/>
<path d="M68.5029 48.4665C69.7699 46.2585 71.3229 43.5405 73.3519 40.2985C78.2139 32.5315 83.6959 29.5335 86.7819 28.4015C87.4239 28.1655 88.0959 28.0425 88.7699 28.0195C88.7729 28.1105 88.7759 28.2025 88.7799 28.2925C88.8429 30.0065 89.4999 31.9975 90.5409 34.0115C89.9059 34.1745 89.2909 34.3615 88.7259 34.5495C81.8259 37.2325 75.4669 46.1415 68.5029 48.4665Z" fill="#9F3423"/>
<path d="M101.082 44.9519C104.082 46.3729 106.949 46.2879 108.769 43.5059C108.863 43.6789 108.959 43.8469 109.052 44.0229C109.377 44.6469 109.703 45.2589 110.029 45.8639C110.657 47.0299 111.286 48.1589 111.915 49.2559C111.928 49.2789 111.941 49.3009 111.954 49.3239C112.253 49.8449 112.552 50.3589 112.851 50.8649C112.872 50.9009 112.894 50.9369 112.915 50.9729C113.209 51.4689 113.502 51.9569 113.795 52.4389C113.816 52.4729 113.836 52.5059 113.857 52.5399C114.155 53.0279 114.452 53.5079 114.749 53.9809C114.762 54.0019 114.775 54.0219 114.788 54.0429C115.728 55.5359 116.664 56.9569 117.596 58.3089C117.596 58.3089 117.596 58.3089 117.595 58.3099C118.751 59.9889 119.899 61.5609 121.034 63.0339C121.51 63.6509 121.983 64.2499 122.454 64.8329C122.463 64.8449 122.473 64.8559 122.482 64.8679C123.9 66.6219 125.294 68.2229 126.653 69.6809C128.194 71.3349 129.691 72.8089 131.128 74.1179C131.128 74.1169 131.128 74.1149 131.129 74.1139C133.852 76.5949 136.362 78.4939 138.557 79.9389C138.791 82.0089 138.925 83.9739 138.96 85.8239C121.264 78.8629 108.511 63.0919 101.082 44.9519Z" fill="#9F3423"/>
<path d="M109.891 91.5349C117.808 98.7319 124.533 106.402 133.069 111.073C130.95 115.176 128.32 118.971 125.251 122.364C122.26 125.671 118.857 128.597 115.125 131.067L115.122 131.069C114.999 130.9 114.876 130.728 114.753 130.556C114.742 130.54 114.73 130.525 114.719 130.509C114.465 130.152 114.211 129.789 113.96 129.421C113.938 129.389 113.917 129.357 113.895 129.325C113.673 128.999 113.452 128.668 113.232 128.334C113.193 128.274 113.153 128.215 113.114 128.155C112.872 127.786 112.632 127.413 112.393 127.035C112.395 127.033 112.397 127.032 112.399 127.03C111.558 125.698 110.737 124.319 109.937 122.903L109.935 122.906C109.9 122.843 109.866 122.778 109.83 122.716C109.495 122.12 109.165 121.519 108.838 120.913C108.771 120.789 108.703 120.666 108.636 120.542C104.434 112.693 100.902 104.125 98.4153 97.4919C98.2123 96.9509 98.0163 96.4239 97.8283 95.9109C97.7653 95.7389 97.6913 95.5769 97.6113 95.4189C97.5823 95.3619 97.5493 95.3079 97.5173 95.2529C97.4633 95.1579 97.4083 95.0649 97.3493 94.9759C97.3053 94.9099 97.2593 94.8459 97.2113 94.7839C97.1603 94.7159 97.1073 94.6499 97.0533 94.5859C96.9943 94.5169 96.9343 94.4469 96.8723 94.3819C96.8313 94.3389 96.7873 94.2999 96.7453 94.2589C96.3433 93.8759 95.8793 93.5759 95.3773 93.3709C95.1303 93.2699 94.8723 93.1999 94.6123 93.1449C99.9003 90.1759 106.661 88.3049 109.891 91.5349Z" fill="#B95A3B"/>
<path d="M27.3016 75.0762C27.3086 75.0772 27.3146 75.0792 27.3216 75.0802C27.1356 75.1682 26.9486 75.2552 26.7686 75.3482C26.9456 75.2572 27.1176 75.1632 27.3016 75.0762Z" fill="#E49B3F"/>
<path d="M77.3439 58.4759C77.2729 58.4289 77.2029 58.3779 77.1309 58.3359C77.2039 58.3779 77.2729 58.4279 77.3439 58.4759Z" fill="#2B0020"/>
<path d="M78.2988 59.3177C78.2308 59.2417 78.1627 59.1657 78.0938 59.0957C78.1638 59.1657 78.2308 59.2417 78.2988 59.3177Z" fill="#2B0020"/>
<path d="M75.022 57.9316C74.959 57.9426 74.898 57.9626 74.835 57.9776C74.898 57.9626 74.959 57.9436 75.022 57.9316Z" fill="#2B0020"/>
<path d="M74.0511 58.2852C73.9621 58.3332 73.8741 58.3832 73.7881 58.4392C73.8751 58.3832 73.9631 58.3332 74.0511 58.2852Z" fill="#2B0020"/>
<path d="M73.6223 58.5557C73.1003 58.9327 72.6143 59.4517 72.1803 60.0977C72.6383 62.5427 74.2433 64.7827 75.8553 65.9917C77.3783 66.9057 79.1953 67.3727 81.0223 67.4027C81.0223 67.3987 81.0213 67.3937 81.0213 67.3897C81.0413 67.7587 81.0523 68.1317 81.0523 68.5107C81.0523 74.3817 78.5843 76.1487 75.5403 76.1487C72.4963 76.1487 70.0283 74.3817 70.0283 68.5107C70.0283 63.9427 71.5253 60.0597 73.6223 58.5557Z" fill="#2B0020"/>
<path d="M80.1537 62.7035C80.1087 62.5705 80.0607 62.4425 80.0127 62.3135C80.0597 62.4425 80.1077 62.5705 80.1537 62.7035Z" fill="#2B0020"/>
<path d="M80.416 63.5595C80.377 63.4185 80.335 63.2815 80.293 63.1445C80.335 63.2815 80.377 63.4175 80.416 63.5595Z" fill="#2B0020"/>
<path d="M78.7331 59.8577C78.6691 59.7687 78.6041 59.6817 78.5371 59.5977C78.6041 59.6817 78.6691 59.7697 78.7331 59.8577Z" fill="#2B0020"/>
<path d="M80.8125 65.4138C80.7885 65.2618 80.7584 65.1148 80.7314 64.9658C80.7584 65.1158 80.7885 65.2618 80.8125 65.4138Z" fill="#2B0020"/>
<path d="M79.1391 60.4718C79.0791 60.3708 79.0171 60.2728 78.9541 60.1768C79.0171 60.2728 79.0781 60.3708 79.1391 60.4718Z" fill="#2B0020"/>
<path d="M79.5128 61.1542C79.4568 61.0422 79.3988 60.9322 79.3408 60.8252C79.3998 60.9332 79.4568 61.0422 79.5128 61.1542Z" fill="#2B0020"/>
<path d="M75.8557 65.9919C74.2447 64.7839 72.6397 62.5439 72.1807 60.0979C72.6147 59.4519 73.1007 58.9329 73.6227 58.5559C73.6777 58.5159 73.7327 58.4759 73.7887 58.4389C73.8757 58.3819 73.9637 58.3329 74.0517 58.2849C74.1307 58.2419 74.2107 58.2029 74.2917 58.1659C74.3687 58.1309 74.4457 58.0979 74.5237 58.0699C74.6267 58.0329 74.7307 58.0039 74.8357 57.9779C74.8977 57.9619 74.9597 57.9429 75.0227 57.9319C75.1937 57.9009 75.3657 57.8809 75.5407 57.8809C75.7257 57.8809 75.9077 57.8999 76.0867 57.9339C76.1467 57.9449 76.2057 57.9679 76.2647 57.9829C76.3827 58.0129 76.5017 58.0429 76.6177 58.0869C76.6877 58.1139 76.7557 58.1509 76.8247 58.1829C76.9277 58.2309 77.0307 58.2769 77.1317 58.3349C77.2037 58.3769 77.2737 58.4279 77.3447 58.4749C77.4387 58.5379 77.5327 58.5999 77.6247 58.6729C77.6967 58.7289 77.7657 58.7929 77.8357 58.8549C77.9227 58.9319 78.0097 59.0099 78.0937 59.0949C78.1637 59.1649 78.2307 59.2419 78.2987 59.3169C78.3797 59.4079 78.4597 59.4989 78.5387 59.5979C78.6047 59.6809 78.6697 59.7689 78.7347 59.8579C78.8097 59.9609 78.8837 60.0669 78.9557 60.1769C79.0187 60.2729 79.0797 60.3709 79.1407 60.4719C79.2097 60.5869 79.2767 60.7039 79.3417 60.8249C79.3997 60.9319 79.4577 61.0419 79.5137 61.1539C79.5757 61.2789 79.6357 61.4079 79.6947 61.5389C79.7487 61.6579 79.8017 61.7769 79.8527 61.8999C79.9087 62.0349 79.9607 62.1729 80.0127 62.3129C80.0607 62.4419 80.1087 62.5699 80.1537 62.7029C80.2027 62.8469 80.2477 62.9959 80.2927 63.1449C80.3347 63.2819 80.3777 63.4189 80.4157 63.5599C80.4577 63.7129 80.4947 63.8719 80.5327 64.0289C80.5677 64.1739 80.6047 64.3169 80.6367 64.4649C80.6717 64.6289 80.7007 64.7979 80.7317 64.9659C80.7587 65.1149 80.7887 65.2619 80.8127 65.4139C80.8407 65.5949 80.8627 65.7809 80.8867 65.9649C80.9057 66.1109 80.9277 66.2539 80.9427 66.4019C80.9767 66.7259 81.0027 67.0549 81.0207 67.3889C81.0207 67.3929 81.0217 67.3969 81.0217 67.4019C79.1957 67.3729 77.3777 66.9049 75.8557 65.9919Z" fill="white"/>
<path d="M75.3726 52.1982C77.8386 52.1982 79.9886 53.1492 81.7616 55.0242C82.2766 55.5682 82.2526 56.4272 81.7086 56.9422C81.4466 57.1902 81.1106 57.3132 80.7766 57.3132C80.4166 57.3132 80.0576 57.1712 79.7906 56.8892C78.5316 55.5592 77.0866 54.9122 75.3726 54.9122C72.9736 54.9122 71.3496 56.6322 71.3096 56.6752C70.8096 57.2272 69.9546 57.2732 69.3986 56.7762C68.8396 56.2762 68.7926 55.4182 69.2916 54.8602C69.3906 54.7512 71.7166 52.1982 75.3726 52.1982Z" fill="#2B0020"/>
<path d="M93.7356 18.7604C101.968 15.8204 108.436 35.2254 101.968 43.4574C101.568 43.9374 101.122 44.3584 100.642 44.7384C97.4536 43.0804 94.1676 39.7954 91.8636 36.2784C91.2736 28.8514 89.5196 20.6344 93.7356 18.7604Z" fill="#B95A3B"/>
<path d="M108.769 43.506C109.299 42.696 109.741 41.657 110.07 40.36C113.72 26.008 94.3658 8.55301 91.4668 10.023C88.9438 11.302 88.5908 19.106 88.7038 25.534C87.4558 25.408 86.4838 25.62 86.4838 25.62C86.4838 25.62 86.2278 23.426 83.3248 22.071C82.7598 21.807 82.2508 21.671 81.7908 21.632C76.7898 12.899 68.2618 6.15001 66.4148 7.08701C63.5158 8.55701 63.4808 18.644 63.7278 25.357C63.7558 26.108 63.8978 26.912 64.1338 27.747C63.1348 27.938 62.0648 28.462 61.0038 29.541C59.7178 30.848 59.9028 32.665 60.5288 34.312C61.3588 36.493 62.9638 38.374 62.9638 38.374C62.9638 38.374 60.4018 37.51 57.5648 37.224C54.8118 36.946 51.7988 37.211 50.6148 39.341C49.2308 41.832 49.9798 45.88 53.2848 47.483C54.0768 47.867 55.0118 48.114 56.1028 48.161C60.6108 48.357 57.4748 54.433 61.1988 55.609C64.9228 56.785 66.0988 51.885 73.3508 40.299C78.2128 32.532 83.6948 29.534 86.7808 28.402C87.4228 28.166 88.0948 28.043 88.7688 28.02C88.7718 28.111 88.7748 28.203 88.7788 28.293C88.8658 30.652 90.0658 33.534 91.8638 36.278C91.2728 28.851 89.5198 20.634 93.7358 18.76C101.968 15.82 108.436 35.225 101.968 43.457C101.568 43.937 101.122 44.358 100.642 44.738C103.801 46.38 106.861 46.424 108.769 43.506ZM75.5368 23.665C74.5208 23.121 73.1558 22.765 71.3918 23.072C66.8838 23.856 69.1498 29.275 69.1498 29.275C69.1498 29.275 68.0458 28.259 66.4268 27.837C65.1068 21.683 65.2688 14.692 67.2758 14.056C70.2688 13.106 73.3418 18.259 75.5368 23.665Z" fill="#AA4529"/>
<path d="M26.0178 93.6759C25.1418 89.2119 29.0608 84.0029 32.6818 86.7229C36.3028 89.4429 26.5758 96.5189 26.0178 93.6759Z" fill="#2B0020"/>
<path d="M88.7031 25.5337C88.7031 25.5337 83.9921 19.0467 81.6692 18.4587C79.3462 17.8707 82.1321 23.5587 82.1321 23.5587C82.1321 23.5587 75.3081 20.0307 72.1791 19.7597C69.0501 19.4887 73.7871 23.0577 73.7871 23.0577C73.7871 23.0577 63.2682 20.3157 60.3922 21.8697C57.5172 23.4237 65.9392 25.0737 65.9392 25.0737C65.9392 25.0737 58.6021 23.6947 55.8881 26.1367C53.1741 28.5787 60.2611 29.7997 60.2611 29.7997C60.2611 29.7997 51.6822 29.0537 50.5962 31.5977C49.5112 34.1417 55.8881 35.0907 55.8881 35.0907C55.8881 35.0907 48.4821 34.6837 45.6041 39.5687C42.7271 44.4537 50.0122 42.8487 50.0122 42.8487C50.0122 42.8487 46.8412 45.1316 46.2082 47.9806C45.5752 50.8297 52.2242 49.8607 52.2242 49.8607C52.2242 49.8607 51.3341 52.5247 53.0001 55.5447C54.6661 58.5637 57.9262 52.3227 57.9262 52.3227C57.9262 52.3227 56.1592 58.3316 59.5512 58.8546C62.9432 59.3776 65.5712 53.2917 65.5712 53.2917L70.9531 45.3497C75.6671 38.3947 79.2602 30.8897 88.7662 28.0187L88.7031 25.5337Z" fill="#2B0020"/>
</svg>
