<svg width="172" height="172" viewBox="0 0 172 172" fill="none" xmlns="http://www.w3.org/2000/svg">
<path d="M138.079 97.653C144.24 68.9553 125.971 40.6967 97.2729 34.5356C68.5752 28.3746 40.3166 46.6442 34.1555 75.3419C27.9945 104.04 46.2641 132.298 74.9618 138.459C103.66 144.62 131.918 126.351 138.079 97.653Z" fill="#8EBB6A"/>
<path d="M104.823 45.4166C105.177 46.0216 105.519 46.6306 105.849 47.2386C107.488 47.7846 108.477 48.8696 108.532 48.9306C109.012 49.4676 108.967 50.2917 108.43 50.7727C108.251 50.9327 108.04 51.0286 107.822 51.0726C108.043 51.5166 108.261 51.9567 108.474 52.3847C110.717 53.5007 113.286 54.2426 116.169 54.2476C122.373 54.2596 119.683 48.9197 114.322 44.8307C109.995 44.5357 106.993 44.8306 104.823 45.4166Z" fill="#8F2A18"/>
<path d="M94.3128 25.2489C96.1638 25.9959 95.1108 27.3579 93.6228 28.5209C93.8288 29.0749 94.0318 29.6239 94.2298 30.1609C96.4068 30.1469 98.8168 30.5869 99.5308 32.4619C100.076 33.8929 98.3178 34.7669 95.9818 35.3019C96.0118 35.4049 96.0428 35.5089 96.0708 35.6089C99.8148 37.9019 102.585 41.5839 104.824 45.4159C106.994 44.8299 109.996 44.5349 114.322 44.8309C114.359 44.8339 114.392 44.8349 114.429 44.8369C128.584 45.8339 130.805 45.2399 132.771 31.4789C136.36 6.35792 125.394 2.37092 121.606 7.15592C117.818 11.9409 124.995 29.0869 121.606 30.2499C118.217 31.4129 117.22 23.3049 116.024 14.3329C114.828 5.36092 106.853 1.07892 104.46 6.26192C102.068 11.4459 110.042 29.4849 108.846 32.0769C107.65 34.6689 102.666 36.6619 101.868 26.2949C101.071 15.9279 93.4938 7.55392 90.3038 10.9429C88.3618 13.0069 90.1898 19.0609 92.3658 25.1019C93.1028 24.9999 93.7688 25.0289 94.3128 25.2489Z" fill="#EDB348"/>
<path d="M62.331 47.5469C57.906 48.2399 49.634 50.5289 45.787 58.0699C41.815 65.8559 55.3029 62.7139 61.9179 55.7919C62.5979 53.4049 63.367 51.1959 64.24 49.1699C63.63 48.7389 63.059 48.1529 62.331 47.5469Z" fill="#AA4529"/>
<path d="M137.086 107.161C136.929 107.163 136.771 107.165 136.609 107.164C136.771 107.165 136.928 107.163 137.086 107.161Z" fill="#AA4529"/>
<path d="M153.595 65.4287C153.877 65.7197 154.143 66.0237 154.398 66.3347C154.143 66.0227 153.877 65.7197 153.595 65.4287Z" fill="#AA4529"/>
<path d="M152.638 64.5244C152.94 64.7884 153.232 65.0614 153.51 65.3444C153.231 65.0614 152.94 64.7884 152.638 64.5244Z" fill="#AA4529"/>
<path d="M138.752 107.078C138.538 107.099 138.314 107.116 138.084 107.13C138.314 107.116 138.537 107.099 138.752 107.078Z" fill="#AA4529"/>
<path d="M137.855 107.139C137.695 107.146 137.535 107.154 137.369 107.158C137.535 107.154 137.696 107.147 137.855 107.139Z" fill="#AA4529"/>
<path d="M147.771 61.4248C148.191 61.6218 148.603 61.8258 149.004 62.0418C148.603 61.8268 148.191 61.6228 147.771 61.4248Z" fill="#AA4529"/>
<path d="M150.322 62.8115C150.682 63.0375 151.03 63.2745 151.368 63.5185C151.03 63.2745 150.682 63.0385 150.322 62.8115Z" fill="#AA4529"/>
<path d="M151.553 63.6533C151.889 63.9023 152.215 64.1593 152.528 64.4263C152.215 64.1583 151.888 63.9023 151.553 63.6533Z" fill="#AA4529"/>
<path d="M115.01 73.1611C118.55 64.0171 126.426 59.7101 135.337 58.0701C135.875 58.1431 136.412 58.222 136.948 58.308C124.746 56.343 111.618 58.0291 111.618 58.0291C110.595 56.6081 109.584 54.6211 108.473 52.3851C108.26 51.9571 108.042 51.517 107.821 51.073C107.384 51.162 106.915 51.0311 106.594 50.6781C106.562 50.6441 105.504 49.5381 103.965 49.5381C102.849 49.5381 101.905 49.9621 101.08 50.8331C100.824 51.1041 100.478 51.241 100.133 51.241C99.8108 51.241 99.4878 51.123 99.2358 50.884C98.7128 50.389 98.6898 49.5631 99.1858 49.0401C100.493 47.6591 102.146 46.929 103.966 46.929C104.662 46.929 105.293 47.053 105.85 47.239C105.521 46.631 105.178 46.0221 104.824 45.4171C102.585 41.5841 99.8148 37.903 96.0708 35.61C95.9388 35.529 95.8058 35.45 95.6708 35.373C92.0738 36.136 87.3268 36.149 87.3268 36.149H75.1238C73.6388 36.964 72.2778 37.9471 71.0308 39.0941C73.6068 39.2301 76.3488 39.5691 77.5538 42.2381C80.3168 48.3591 74.3818 52.7941 65.2218 49.6911C64.8668 49.5711 64.5478 49.391 64.2398 49.173C63.3668 51.1981 62.5978 53.408 61.9178 55.795C61.5948 56.927 61.2898 58.0941 61.0058 59.3051C57.1788 75.6041 41.1288 82.506 33.1028 82.802C33.0198 84.018 32.9648 85.242 32.9648 86.479C32.9648 100.401 38.3208 113.071 47.0808 122.546C47.1358 117.53 53.9688 108.127 60.6538 101.264C60.6588 101.259 60.6628 101.254 60.6678 101.249C60.9788 100.93 61.2888 100.617 61.5978 100.31C61.6048 100.303 61.6108 100.297 61.6178 100.29C62.2318 99.6811 62.8408 99.097 63.4418 98.542C63.4578 98.528 63.4728 98.513 63.4888 98.499C63.7808 98.229 64.0708 97.9671 64.3588 97.7121C64.3778 97.6951 64.3968 97.6791 64.4158 97.6621C64.9868 97.1571 65.5458 96.6831 66.0888 96.2441C66.1178 96.2211 66.1468 96.1971 66.1758 96.1741C66.4348 95.9661 66.6908 95.7661 66.9418 95.5741C66.9738 95.5491 67.0058 95.5261 67.0378 95.5011C67.5418 95.1201 68.0278 94.7751 68.4908 94.4721C68.5278 94.4481 68.5648 94.4231 68.6008 94.3991C68.8198 94.2571 69.0338 94.1251 69.2428 94.0021C69.2788 93.9811 69.3138 93.9611 69.3498 93.9411C69.7738 93.6961 70.1718 93.4941 70.5418 93.3391C70.5748 93.3251 70.6088 93.31 70.6418 93.297C70.8168 93.227 70.9838 93.1671 71.1448 93.1191C71.1748 93.1101 71.2048 93.102 71.2348 93.094C71.3988 93.048 71.5568 93.011 71.7038 92.991C77.9648 92.121 83.4438 94.8171 83.4438 94.8171C83.4438 94.8171 106.748 102.296 124.088 105.614C123.695 105.539 123.298 105.461 122.899 105.382C113.754 98.8261 110.562 84.2831 115.01 73.1611ZM80.3638 51.028C79.8408 50.533 79.8178 49.7071 80.3128 49.1841C81.7078 47.7091 83.4728 46.9301 85.4158 46.9301C88.3428 46.9301 90.2078 48.976 90.2858 49.063C90.7658 49.6 90.7208 50.424 90.1838 50.905C89.6488 51.383 88.8298 51.3401 88.3478 50.8091C88.3128 50.7721 87.1358 49.5381 85.4168 49.5381C84.1748 49.5381 83.1248 50.0091 82.2088 50.9771C81.9518 51.2481 81.6068 51.3851 81.2608 51.3851C80.9378 51.3851 80.6158 51.267 80.3638 51.028ZM85.6218 66.4971C83.2808 66.4971 81.3838 65.1381 81.3838 60.6241C81.3838 60.3321 81.3928 60.045 81.4078 59.761C81.4218 59.504 81.4418 59.251 81.4678 59.002C81.4798 58.888 81.4968 58.7771 81.5118 58.6651C81.5298 58.5241 81.5468 58.3811 81.5678 58.2421C81.5868 58.1241 81.6098 58.0101 81.6308 57.8941C81.6538 57.7661 81.6768 57.6371 81.7038 57.5121C81.7278 57.3971 81.7568 57.287 81.7838 57.175C81.8128 57.054 81.8418 56.9331 81.8738 56.8161C81.9038 56.7071 81.9368 56.602 81.9688 56.496C82.0038 56.382 82.0378 56.268 82.0758 56.157C82.1108 56.055 82.1478 55.9561 82.1848 55.8571C82.2248 55.7501 82.2648 55.6431 82.3078 55.5401C82.3468 55.4451 82.3878 55.3531 82.4288 55.2621C82.4738 55.1621 82.5198 55.0631 82.5678 54.9671C82.6108 54.8801 82.6548 54.7961 82.6998 54.7141C82.7498 54.6211 82.8018 54.5311 82.8548 54.4431C82.9018 54.3651 82.9488 54.2891 82.9968 54.2151C83.0518 54.1311 83.1088 54.0501 83.1658 53.9711C83.2158 53.9031 83.2648 53.8361 83.3168 53.7711C83.3768 53.6951 83.4388 53.6251 83.5018 53.5551C83.5538 53.4971 83.6058 53.4391 83.6588 53.3851C83.7238 53.3191 83.7908 53.2591 83.8588 53.1991C83.9128 53.1511 83.9658 53.103 84.0198 53.06C84.0908 53.004 84.1638 52.956 84.2358 52.907C84.2898 52.871 84.3438 52.832 84.3988 52.8C84.4758 52.755 84.5558 52.719 84.6348 52.683C84.6878 52.659 84.7398 52.63 84.7928 52.61C84.8828 52.576 84.9738 52.553 85.0658 52.53C85.1108 52.519 85.1558 52.5011 85.2008 52.4931C85.3388 52.4671 85.4788 52.4521 85.6208 52.4521C85.7558 52.4521 85.8878 52.467 86.0198 52.491C86.0678 52.5 86.1148 52.514 86.1628 52.526C86.2438 52.546 86.3238 52.568 86.4028 52.597C86.4628 52.618 86.5218 52.6441 86.5808 52.6711C86.6428 52.6991 86.7048 52.729 86.7658 52.763C86.8338 52.8 86.9008 52.8381 86.9678 52.8811C87.0108 52.9091 87.0538 52.9411 87.0958 52.9711C87.4978 53.2591 87.8698 53.6601 88.2038 54.1561L88.2048 54.157C89.2098 55.652 89.8598 57.99 89.8598 60.627C89.8608 65.138 87.9628 66.4971 85.6218 66.4971ZM104.588 65.078C102.429 65.078 100.679 63.8251 100.679 59.6611C100.679 59.3911 100.687 59.1241 100.701 58.8611C100.714 58.6261 100.732 58.3931 100.756 58.1651C100.767 58.0611 100.783 57.9611 100.796 57.8591C100.813 57.7271 100.828 57.5941 100.849 57.4641C100.866 57.3561 100.887 57.2511 100.907 57.1451C100.929 57.0261 100.949 56.907 100.974 56.791C100.997 56.685 101.023 56.5831 101.048 56.4801C101.075 56.3691 101.101 56.257 101.131 56.149C101.158 56.048 101.189 55.9511 101.219 55.8531C101.251 55.7481 101.283 55.6421 101.318 55.5401C101.35 55.4461 101.384 55.3551 101.418 55.2641C101.455 55.1651 101.492 55.0661 101.532 54.9711C101.568 54.8831 101.606 54.7991 101.644 54.7141C101.686 54.6211 101.728 54.53 101.772 54.442C101.812 54.362 101.853 54.2851 101.894 54.2081C101.94 54.1231 101.988 54.0391 102.036 53.9581C102.079 53.8861 102.123 53.816 102.167 53.748C102.218 53.67 102.27 53.595 102.323 53.522C102.369 53.459 102.415 53.397 102.462 53.338C102.518 53.268 102.574 53.2031 102.632 53.1391C102.68 53.0851 102.728 53.031 102.777 52.981C102.837 52.92 102.899 52.865 102.961 52.81C103.011 52.766 103.06 52.721 103.111 52.681C103.176 52.63 103.243 52.585 103.31 52.541C103.36 52.507 103.41 52.4711 103.461 52.4411C103.532 52.4001 103.605 52.367 103.678 52.334C103.727 52.311 103.775 52.2851 103.825 52.2661C103.907 52.2351 103.991 52.214 104.075 52.192C104.117 52.181 104.159 52.165 104.202 52.157C104.329 52.133 104.459 52.119 104.589 52.119C104.713 52.119 104.836 52.133 104.957 52.155C105.002 52.163 105.045 52.177 105.089 52.188C105.163 52.207 105.237 52.2271 105.31 52.2531C105.365 52.2731 105.42 52.297 105.475 52.321C105.532 52.347 105.588 52.374 105.645 52.405C105.708 52.439 105.77 52.4751 105.832 52.5141C105.872 52.5401 105.91 52.569 105.95 52.597C106.321 52.863 106.664 53.232 106.972 53.69V53.6911C107.899 55.0701 108.498 57.2261 108.498 59.6581C108.497 63.8251 106.747 65.078 104.588 65.078Z" fill="#AA4529"/>
<path d="M125.277 105.835C124.896 105.765 124.512 105.693 124.125 105.619C124.511 105.694 124.896 105.765 125.277 105.835Z" fill="#AA4529"/>
<path d="M132.82 106.943C132.575 106.919 132.325 106.892 132.074 106.864C132.326 106.892 132.575 106.919 132.82 106.943Z" fill="#AA4529"/>
<path d="M72.7456 130.384C69.6146 129.862 71.1806 120.47 71.1806 120.47C71.1806 120.47 69.4416 130.384 65.2646 129.444C61.7676 128.657 64.1266 123.019 64.9866 121.206C63.9346 123.281 60.0936 130.382 57.2666 129.34C53.9616 128.123 58.8316 121.165 58.8316 121.165C58.8316 121.165 54.9196 126.257 51.3066 126.642C57.7036 132.19 65.4387 136.234 73.9637 138.227C73.9917 138.192 74.0217 138.158 74.0507 138.123C76.2867 135.317 78.0357 132.229 79.3987 129.036C77.6487 127.191 77.4417 121.861 77.4417 121.861C77.4417 121.861 75.8766 130.906 72.7456 130.384Z" fill="#AA4529"/>
<path d="M126.463 106.047C126.082 105.981 125.697 105.912 125.309 105.841C125.698 105.912 126.083 105.981 126.463 106.047Z" fill="#AA4529"/>
<path d="M137.855 107.139C137.931 107.135 138.01 107.133 138.084 107.129C138.314 107.116 138.537 107.099 138.752 107.077C151.797 105.772 163.798 84.1183 155.971 68.7263C155.782 68.3533 155.57 67.9963 155.348 67.6473C155.311 67.5893 155.276 67.5303 155.238 67.4733C155.021 67.1423 154.788 66.8233 154.542 66.5133C154.495 66.4533 154.446 66.3953 154.398 66.3353C154.143 66.0233 153.877 65.7203 153.595 65.4293C153.567 65.4003 153.538 65.3733 153.51 65.3453C153.232 65.0623 152.94 64.7893 152.638 64.5253C152.601 64.4933 152.565 64.4593 152.528 64.4273C152.216 64.1593 151.889 63.9023 151.553 63.6543C151.492 63.6093 151.431 63.5643 151.37 63.5203C151.031 63.2753 150.683 63.0393 150.324 62.8133C150.275 62.7823 150.225 62.7523 150.175 62.7223C149.8 62.4903 149.417 62.2663 149.022 62.0533C149.017 62.0503 149.012 62.0473 149.006 62.0443C148.605 61.8283 148.192 61.6243 147.772 61.4273C147.715 61.4003 147.659 61.3733 147.601 61.3473C147.19 61.1573 146.77 60.9763 146.343 60.8033C146.287 60.7803 146.231 60.7583 146.175 60.7363C145.27 60.3763 144.333 60.0513 143.371 59.7593C143.344 59.7513 143.317 59.7423 143.289 59.7343C142.811 59.5913 142.326 59.4563 141.837 59.3283C141.793 59.3163 141.748 59.3053 141.704 59.2933C141.207 59.1653 140.705 59.0433 140.199 58.9303C140.196 58.9293 140.194 58.9293 140.191 58.9283C139.141 58.6943 138.073 58.4923 136.999 58.3183C136.983 58.3153 136.966 58.3133 136.95 58.3103C136.414 58.2243 135.877 58.1443 135.339 58.0723C126.428 59.7133 118.551 64.0193 115.012 73.1633C110.563 84.2853 113.755 98.8273 122.899 105.382C123.298 105.461 123.695 105.539 124.088 105.614C124.101 105.616 124.113 105.619 124.126 105.621C124.513 105.695 124.897 105.767 125.278 105.837C125.289 105.839 125.3 105.841 125.311 105.843C125.699 105.914 126.084 105.983 126.465 106.049C126.467 106.049 126.468 106.05 126.47 106.05C128.013 106.318 129.493 106.546 130.888 106.725C130.893 106.726 130.898 106.726 130.903 106.727C131.23 106.769 131.551 106.808 131.868 106.844C131.938 106.852 132.006 106.859 132.075 106.867C132.327 106.895 132.576 106.922 132.821 106.946C132.915 106.955 133.007 106.964 133.1 106.972C133.316 106.992 133.53 107.011 133.74 107.029C133.846 107.038 133.95 107.046 134.055 107.054C134.248 107.069 134.439 107.082 134.628 107.094C134.737 107.101 134.846 107.107 134.953 107.113C135.132 107.123 135.308 107.131 135.482 107.138C135.59 107.143 135.698 107.147 135.804 107.15C135.972 107.155 136.136 107.159 136.299 107.161C136.403 107.163 136.508 107.165 136.61 107.166C136.773 107.167 136.93 107.165 137.087 107.163C137.181 107.162 137.277 107.162 137.369 107.16C137.535 107.154 137.696 107.147 137.855 107.139ZM147.994 72.7313C152.501 73.1393 149.567 88.9223 147.141 90.1593C140.006 93.7953 143.487 72.3233 147.994 72.7313ZM133.84 90.0533C129.068 96.4843 122.632 75.7063 126.849 74.0663C131.067 72.4263 135.462 87.8663 133.84 90.0533Z" fill="#E39635"/>
<path d="M84.3525 97.042C84.4285 97.303 84.4995 97.576 84.5675 97.86C84.4995 97.577 84.4285 97.303 84.3525 97.042Z" fill="#E39635"/>
<path d="M83.4414 94.8154C83.5524 95.0004 83.6574 95.2034 83.7594 95.4204C83.6584 95.2044 83.5524 95.0014 83.4414 94.8154Z" fill="#E39635"/>
<path d="M83.7793 95.4609C83.8763 95.6719 83.9683 95.898 84.0553 96.136C83.9673 95.898 83.8753 95.6709 83.7793 95.4609Z" fill="#E39635"/>
<path d="M63.4883 98.498C63.7803 98.228 64.0703 97.9659 64.3583 97.7109C64.0703 97.9659 63.7803 98.229 63.4883 98.498Z" fill="#E39635"/>
<path d="M66.1748 96.1732C66.4348 95.9652 66.6898 95.7652 66.9408 95.5732C66.6898 95.7642 66.4348 95.9652 66.1748 96.1732Z" fill="#E39635"/>
<path d="M64.415 97.6612C64.986 97.1552 65.545 96.6822 66.088 96.2432C65.546 96.6822 64.987 97.1562 64.415 97.6612Z" fill="#E39635"/>
<path d="M70.6406 93.2961C70.8156 93.2261 70.9826 93.1662 71.1436 93.1182C70.9826 93.1662 70.8146 93.2261 70.6406 93.2961Z" fill="#E39635"/>
<path d="M69.3486 93.9399C69.7726 93.6949 70.1706 93.4929 70.5406 93.3379C70.1706 93.4939 69.7726 93.6959 69.3486 93.9399Z" fill="#E39635"/>
<path d="M68.5996 94.399C68.8186 94.257 69.0326 94.125 69.2416 94.002C69.0336 94.125 68.8196 94.257 68.5996 94.399Z" fill="#E39635"/>
<path d="M85.2481 102.262C85.2121 101.872 85.1711 101.49 85.1271 101.117C85.1251 101.099 85.1231 101.081 85.1211 101.063C85.0771 100.702 85.0291 100.35 84.9781 100.007C84.9741 99.9803 84.9701 99.9533 84.9661 99.9263C84.9151 99.5923 84.8591 99.2673 84.8001 98.9523C84.7941 98.9193 84.7881 98.8873 84.7821 98.8553C84.7231 98.5473 84.6601 98.2493 84.5931 97.9623C84.5851 97.9283 84.5771 97.8943 84.5691 97.8603C84.5011 97.5773 84.4301 97.3033 84.3541 97.0423C84.3451 97.0113 84.3361 96.9823 84.3271 96.9523C84.2501 96.6923 84.1691 96.4423 84.0841 96.2063C84.0751 96.1823 84.0661 96.1593 84.0571 96.1353C83.9691 95.8973 83.8771 95.6713 83.7811 95.4603C83.7751 95.4463 83.7681 95.4343 83.7611 95.4203C83.6601 95.2033 83.5541 95.0003 83.4431 94.8153C83.4431 94.8153 77.9641 92.1193 71.7031 92.9893C71.5561 93.0093 71.3971 93.0473 71.2341 93.0923C71.2041 93.1003 71.1751 93.1083 71.1441 93.1173C70.9841 93.1653 70.8161 93.2253 70.6411 93.2953C70.6081 93.3083 70.5741 93.3233 70.5411 93.3373C70.1721 93.4933 69.7731 93.6943 69.3491 93.9393C69.3131 93.9603 69.2781 93.9793 69.2421 94.0003C69.0341 94.1233 68.8201 94.2553 68.6001 94.3973C68.5641 94.4213 68.5261 94.4453 68.4901 94.4703C68.0271 94.7743 67.5421 95.1183 67.0371 95.4993C67.0051 95.5233 66.9731 95.5473 66.9411 95.5723C66.6901 95.7633 66.4351 95.9633 66.1751 96.1723C66.1461 96.1953 66.1171 96.2193 66.0881 96.2423C65.5451 96.6803 64.9861 97.1543 64.4151 97.6603C64.3961 97.6773 64.3771 97.6933 64.3581 97.7103C64.0711 97.9653 63.7811 98.2273 63.4881 98.4973C63.4721 98.5113 63.4571 98.5263 63.4411 98.5403C62.8411 99.0953 62.2311 99.6793 61.6171 100.288C61.6101 100.295 61.6041 100.301 61.5971 100.308C61.2881 100.615 60.9781 100.928 60.6671 101.247C60.6621 101.252 60.6581 101.257 60.6531 101.262C60.3751 101.547 60.0971 101.839 59.8191 102.132C59.7481 102.208 59.6761 102.283 59.6051 102.359C59.3301 102.652 59.0551 102.947 58.7811 103.247C58.7781 103.25 58.7761 103.252 58.7731 103.255C52.7451 109.851 47.1301 117.998 47.0801 122.544C48.4131 123.986 49.8221 125.355 51.3051 126.642C54.9181 126.257 58.8301 121.165 58.8301 121.165C58.8301 121.165 53.9601 128.122 57.2651 129.34C60.0921 130.382 63.9331 123.281 64.9851 121.206C64.1251 123.019 61.7661 128.657 65.2631 129.444C69.4401 130.384 71.1791 120.47 71.1791 120.47C71.1791 120.47 69.6141 129.862 72.7441 130.384C75.8751 130.906 77.4401 121.862 77.4401 121.862C77.4401 121.862 77.6471 127.192 79.3971 129.037C79.9261 129.594 80.5931 129.837 81.4401 129.514C84.2291 128.453 86.2051 112.61 85.2481 102.262Z" fill="#E39635"/>
<path opacity="0.15" d="M71.7015 92.989C71.5545 93.009 71.3955 93.047 71.2325 93.092C71.2025 93.1 71.1735 93.108 71.1425 93.117C70.9825 93.165 70.8145 93.225 70.6395 93.295C70.6065 93.308 70.5725 93.323 70.5395 93.337C70.1705 93.493 69.7715 93.694 69.3475 93.939C69.3115 93.96 69.2765 93.979 69.2405 94C69.0325 94.123 68.8185 94.255 68.5985 94.397C68.5625 94.421 68.5245 94.445 68.4885 94.47C68.0255 94.774 67.5405 95.118 67.0355 95.499C67.0035 95.523 66.9715 95.547 66.9395 95.572C66.6885 95.763 66.4335 95.963 66.1735 96.172C66.1445 96.195 66.1155 96.219 66.0865 96.242C65.5435 96.68 64.9845 97.154 64.4135 97.66C64.3945 97.677 64.3755 97.693 64.3565 97.71C64.0695 97.965 63.7795 98.227 63.4865 98.497C63.4705 98.511 63.4555 98.526 63.4395 98.54C62.8395 99.095 62.2295 99.679 61.6155 100.288C61.6085 100.295 61.6025 100.301 61.5955 100.308C61.2865 100.615 60.9765 100.928 60.6655 101.247C60.6605 101.252 60.6565 101.257 60.6515 101.262C60.0245 101.906 59.3955 102.573 58.7715 103.256C67.2605 100.125 76.5275 99.839 85.2455 102.262C85.2095 101.872 85.1685 101.49 85.1245 101.117C85.1225 101.099 85.1205 101.081 85.1185 101.063C85.0745 100.702 85.0265 100.35 84.9755 100.007C84.9715 99.98 84.9675 99.953 84.9635 99.926C84.9125 99.592 84.8565 99.267 84.7975 98.952C84.7915 98.919 84.7855 98.887 84.7795 98.855C84.7205 98.547 84.6575 98.249 84.5905 97.962C84.5825 97.928 84.5745 97.894 84.5665 97.86C84.4985 97.577 84.4275 97.303 84.3515 97.042C84.3425 97.011 84.3335 96.982 84.3245 96.952C84.2475 96.692 84.1665 96.442 84.0815 96.206C84.0725 96.182 84.0635 96.159 84.0545 96.135C83.9665 95.897 83.8745 95.671 83.7785 95.46C83.7725 95.446 83.7655 95.434 83.7585 95.42C83.6575 95.203 83.5515 95 83.4405 94.815C83.4405 94.815 77.9635 92.12 71.7015 92.989Z" fill="black"/>
<path d="M126.849 74.066C122.631 75.706 129.068 96.484 133.84 90.053C135.462 87.866 131.067 72.426 126.849 74.066Z" fill="#2B0020"/>
<path d="M147.14 90.1593C149.566 88.9233 152.5 73.1403 147.993 72.7313C143.486 72.3233 140.005 93.7953 147.14 90.1593Z" fill="#2B0020"/>
<path d="M65.2216 49.6891C74.3806 52.7931 80.3156 48.3571 77.5536 42.2361C76.3486 39.5671 73.6066 39.2281 71.0306 39.0921C67.6996 38.9161 64.6457 39.0771 65.5507 34.9751C67.1557 27.7011 73.3617 13.1911 69.9947 9.97812C66.6267 6.76512 59.5126 15.5341 59.2736 25.9291C59.0346 36.3241 53.9506 34.6011 52.6166 32.0781C51.2826 29.5541 58.2756 11.1121 55.6086 6.06511C52.9406 1.01811 45.2076 5.72311 44.4956 14.7461C43.7836 23.7691 43.2246 31.9201 39.7776 30.9401C36.3306 29.9611 42.5756 12.4531 38.5356 7.87911C34.4956 3.30511 23.7606 7.87611 28.6946 32.7681C31.3976 46.4031 33.6476 46.8771 47.7286 45.1201C56.9226 43.9731 60.2667 45.8311 62.3307 47.5461C63.0597 48.1521 63.6297 48.7391 64.2407 49.1701C64.5477 49.3891 64.8666 49.5691 65.2216 49.6891Z" fill="#EDB348"/>
<path d="M87.328 36.1478C87.328 36.1478 92.075 36.1358 95.672 35.3718C95.777 35.3498 95.879 35.3258 95.983 35.3018C98.319 34.7658 100.077 33.8918 99.532 32.4618C98.818 30.5868 96.408 30.1458 94.231 30.1608C92.168 30.1738 90.314 30.5958 90.314 30.5958C90.314 30.5958 92.175 29.6528 93.624 28.5208C95.112 27.3578 96.165 25.9958 94.314 25.2488C93.77 25.0288 93.104 24.9998 92.369 25.1038C88.166 25.6978 81.618 30.7398 81.618 30.7398C81.618 30.7398 86.662 24.4618 83.009 25.3308C79.357 26.2008 75.126 36.1468 75.126 36.1468V36.1478H87.328Z" fill="#AA4529"/>
<path d="M82.3066 55.5387C82.3456 55.4437 82.3866 55.3517 82.4276 55.2607C82.3866 55.3527 82.3456 55.4437 82.3066 55.5387Z" fill="#2B0020"/>
<path d="M81.7041 57.5128C81.7281 57.3978 81.7571 57.2878 81.7841 57.1758C81.7561 57.2868 81.7281 57.3978 81.7041 57.5128Z" fill="#2B0020"/>
<path d="M82.0742 56.1574C82.1092 56.0554 82.1462 55.9564 82.1832 55.8574C82.1462 55.9564 82.1092 56.0544 82.0742 56.1574Z" fill="#2B0020"/>
<path d="M86.7666 52.7598C86.8346 52.7968 86.9016 52.8348 86.9686 52.8778C86.9026 52.8348 86.8346 52.7958 86.7666 52.7598Z" fill="#2B0020"/>
<path d="M86.0205 52.4883C86.0685 52.4973 86.1155 52.5113 86.1635 52.5233C86.1155 52.5123 86.0685 52.4973 86.0205 52.4883Z" fill="#2B0020"/>
<path d="M84.2354 52.9058C84.2894 52.8698 84.3433 52.8308 84.3983 52.7988C84.3433 52.8308 84.2894 52.8688 84.2354 52.9058Z" fill="#2B0020"/>
<path d="M83.8584 53.1986C83.9114 53.1516 83.9654 53.1026 84.0194 53.0596C83.9644 53.1016 83.9114 53.1506 83.8584 53.1986Z" fill="#2B0020"/>
<path d="M85.0664 52.5282C85.1114 52.5172 85.1564 52.4992 85.2014 52.4912C85.1554 52.4992 85.1114 52.5162 85.0664 52.5282Z" fill="#2B0020"/>
<path d="M83.166 53.9705C83.216 53.9025 83.265 53.8345 83.317 53.7705C83.266 53.8345 83.216 53.9015 83.166 53.9705Z" fill="#2B0020"/>
<path d="M83.502 53.5528C83.554 53.4948 83.606 53.4368 83.659 53.3828C83.605 53.4368 83.554 53.4948 83.502 53.5528Z" fill="#2B0020"/>
<path d="M86.4033 52.5938C86.4633 52.6157 86.5223 52.6407 86.5813 52.6677C86.5223 52.6417 86.4633 52.6157 86.4033 52.5938Z" fill="#2B0020"/>
<path d="M88.2047 54.1528C87.8707 53.6568 87.4987 53.2568 87.0967 52.9678C87.4977 53.2578 87.8717 53.6568 88.2047 54.1528Z" fill="#2B0020"/>
<path d="M85.3798 58.6863C84.2088 59.3883 82.8118 59.7483 81.4068 59.7713C81.4068 59.7673 81.4078 59.7643 81.4078 59.7603C81.3918 60.0443 81.3838 60.3313 81.3838 60.6233C81.3838 65.1373 83.2818 66.4963 85.6218 66.4963C87.9628 66.4963 89.8598 65.1373 89.8598 60.6233C89.8598 57.9863 89.2098 55.6483 88.2048 54.1533C87.8528 56.0343 86.6188 57.7573 85.3798 58.6863Z" fill="#2B0020"/>
<path d="M81.5674 58.2425C81.5864 58.1245 81.6094 58.0105 81.6304 57.8945C81.6094 58.0105 81.5854 58.1245 81.5674 58.2425Z" fill="#2B0020"/>
<path d="M85.3792 58.6862C86.6182 57.7572 87.8522 56.0342 88.2052 54.1542L88.2042 54.1532C87.8712 53.6572 87.4972 53.2582 87.0962 52.9682C87.0532 52.9372 87.0112 52.9062 86.9682 52.8782C86.9022 52.8352 86.8342 52.7972 86.7662 52.7602C86.7052 52.7272 86.6432 52.6962 86.5812 52.6682C86.5222 52.6422 86.4632 52.6162 86.4032 52.5942C86.3242 52.5652 86.2432 52.5432 86.1632 52.5232C86.1152 52.5112 86.0682 52.4972 86.0202 52.4882C85.8892 52.4642 85.7562 52.4492 85.6212 52.4492C85.4792 52.4492 85.3392 52.4642 85.2012 52.4902C85.1552 52.4992 85.1112 52.5162 85.0662 52.5272C84.9742 52.5502 84.8832 52.5732 84.7932 52.6072C84.7402 52.6272 84.6882 52.6562 84.6352 52.6802C84.5562 52.7172 84.4762 52.7522 84.3992 52.7972C84.3442 52.8292 84.2902 52.8682 84.2362 52.9042C84.1632 52.9532 84.0902 53.0012 84.0202 53.0572C83.9652 53.1002 83.9122 53.1492 83.8592 53.1962C83.7922 53.2562 83.7252 53.3152 83.6592 53.3822C83.6062 53.4362 83.5542 53.4942 83.5022 53.5522C83.4402 53.6222 83.3782 53.6932 83.3172 53.7682C83.2662 53.8322 83.2162 53.9002 83.1662 53.9682C83.1092 54.0472 83.0522 54.1282 82.9972 54.2122C82.9492 54.2862 82.9012 54.3622 82.8552 54.4402C82.8022 54.5282 82.7512 54.6182 82.7002 54.7112C82.6552 54.7942 82.6112 54.8782 82.5682 54.9642C82.5202 55.0602 82.4742 55.1592 82.4292 55.2592C82.3882 55.3502 82.3472 55.4422 82.3082 55.5372C82.2652 55.6402 82.2252 55.7472 82.1852 55.8542C82.1482 55.9532 82.1112 56.0522 82.0762 56.1542C82.0382 56.2652 82.0042 56.3792 81.9692 56.4932C81.9372 56.5992 81.9042 56.7042 81.8742 56.8132C81.8422 56.9312 81.8132 57.0522 81.7842 57.1722C81.7572 57.2842 81.7292 57.3952 81.7042 57.5092C81.6772 57.6342 81.6552 57.7632 81.6312 57.8912C81.6102 58.0072 81.5862 58.1212 81.5682 58.2392C81.5462 58.3782 81.5302 58.5202 81.5122 58.6622C81.4982 58.7752 81.4802 58.8852 81.4682 58.9992C81.4422 59.2482 81.4222 59.5012 81.4082 59.7582C81.4082 59.7622 81.4072 59.7652 81.4072 59.7692C82.8112 59.7482 84.2082 59.3882 85.3792 58.6862Z" fill="white"/>
<path d="M104.365 57.8743C103.285 58.5223 101.996 58.8543 100.701 58.8753C100.701 58.8703 100.702 58.8663 100.702 58.8613C100.688 59.1243 100.68 59.3913 100.68 59.6613C100.68 63.8253 102.43 65.0783 104.589 65.0783C106.748 65.0783 108.498 63.8253 108.498 59.6613C108.498 57.2293 107.898 55.0723 106.972 53.6943C106.646 55.4283 105.508 57.0173 104.365 57.8743Z" fill="#2B0020"/>
<path d="M102.034 53.959C102.077 53.887 102.121 53.817 102.165 53.749C102.121 53.818 102.078 53.888 102.034 53.959Z" fill="#2B0020"/>
<path d="M101.771 54.443C101.811 54.363 101.851 54.285 101.892 54.209C101.85 54.286 101.811 54.363 101.771 54.443Z" fill="#2B0020"/>
<path d="M101.529 54.9718C101.565 54.8838 101.603 54.7998 101.641 54.7148C101.603 54.7988 101.566 54.8838 101.529 54.9718Z" fill="#2B0020"/>
<path d="M103.677 52.3365C103.726 52.3135 103.774 52.2876 103.824 52.2686C103.774 52.2876 103.726 52.3145 103.677 52.3365Z" fill="#2B0020"/>
<path d="M103.309 52.5434C103.359 52.5094 103.409 52.4734 103.46 52.4434C103.409 52.4744 103.359 52.5104 103.309 52.5434Z" fill="#2B0020"/>
<path d="M104.956 52.1582C105.001 52.1662 105.044 52.1802 105.088 52.1912C105.044 52.1792 105.001 52.1662 104.956 52.1582Z" fill="#2B0020"/>
<path d="M101.13 56.1505C101.157 56.0495 101.188 55.9525 101.218 55.8545C101.188 55.9525 101.158 56.0495 101.13 56.1505Z" fill="#2B0020"/>
<path d="M105.309 52.2549C105.364 52.2749 105.419 52.2989 105.474 52.3229C105.419 52.2989 105.365 52.2749 105.309 52.2549Z" fill="#2B0020"/>
<path d="M106.969 53.6936C106.661 53.2356 106.318 52.8666 105.947 52.6006C106.317 52.8686 106.662 53.2356 106.969 53.6936Z" fill="#2B0020"/>
<path d="M100.849 57.4645C100.866 57.3565 100.887 57.2515 100.907 57.1455C100.887 57.2525 100.866 57.3565 100.849 57.4645Z" fill="#2B0020"/>
<path d="M100.974 56.7924C100.997 56.6864 101.023 56.5844 101.048 56.4814C101.023 56.5844 100.996 56.6864 100.974 56.7924Z" fill="#2B0020"/>
<path d="M100.757 58.1654C100.768 58.0614 100.784 57.9614 100.797 57.8594C100.783 57.9614 100.767 58.0614 100.757 58.1654Z" fill="#2B0020"/>
<path d="M104.364 57.8741C105.507 57.0171 106.645 55.4291 106.97 53.6941L106.969 53.6931C106.661 53.2361 106.317 52.8681 105.947 52.6001C105.908 52.5721 105.869 52.5431 105.829 52.5171C105.767 52.4771 105.705 52.4421 105.642 52.4081C105.586 52.3771 105.529 52.3501 105.472 52.3241C105.417 52.2991 105.363 52.2761 105.307 52.2561C105.234 52.2301 105.16 52.2101 105.086 52.1911C105.042 52.1801 104.998 52.1671 104.954 52.1581C104.833 52.1361 104.71 52.1221 104.586 52.1221C104.455 52.1221 104.326 52.1361 104.199 52.1601C104.156 52.1681 104.115 52.1841 104.072 52.1951C103.988 52.2161 103.904 52.2371 103.822 52.2691C103.772 52.2881 103.724 52.3141 103.675 52.3371C103.602 52.3711 103.529 52.4031 103.458 52.4441C103.407 52.4741 103.357 52.5101 103.307 52.5441C103.24 52.5891 103.173 52.6331 103.108 52.6841C103.057 52.7241 103.008 52.7691 102.958 52.8131C102.896 52.8681 102.834 52.9231 102.774 52.9841C102.725 53.0341 102.677 53.0881 102.629 53.1421C102.571 53.2061 102.515 53.2721 102.459 53.3411C102.412 53.4001 102.366 53.4621 102.32 53.5251C102.267 53.5981 102.215 53.6731 102.164 53.7511C102.119 53.8191 102.076 53.8891 102.033 53.9611C101.984 54.0421 101.937 54.1251 101.891 54.2111C101.849 54.2881 101.809 54.3651 101.769 54.4451C101.725 54.5341 101.682 54.6241 101.641 54.7171C101.603 54.8011 101.565 54.8861 101.529 54.9741C101.49 55.0691 101.452 55.1681 101.415 55.2671C101.381 55.3581 101.347 55.4491 101.315 55.5431C101.28 55.6451 101.249 55.7501 101.216 55.8561C101.186 55.9541 101.156 56.0511 101.128 56.1521C101.098 56.2601 101.072 56.3721 101.045 56.4831C101.02 56.5861 100.994 56.6881 100.971 56.7941C100.946 56.9101 100.926 57.0291 100.904 57.1481C100.884 57.2541 100.863 57.3581 100.846 57.4671C100.826 57.5961 100.81 57.7301 100.793 57.8621C100.78 57.9641 100.764 58.0641 100.753 58.1681C100.729 58.3961 100.711 58.6291 100.698 58.8641C100.698 58.8691 100.697 58.8731 100.697 58.8781C101.995 58.8531 103.284 58.5221 104.364 57.8741Z" fill="white"/>
<path d="M85.4158 49.5377C87.1358 49.5377 88.3118 50.7717 88.3468 50.8087C88.8288 51.3387 89.6478 51.3827 90.1828 50.9047C90.7198 50.4247 90.7658 49.5997 90.2848 49.0627C90.2068 48.9757 88.3428 46.9297 85.4148 46.9297C83.4718 46.9297 81.7068 47.7097 80.3118 49.1837C79.8168 49.7067 79.8398 50.5327 80.3628 51.0277C80.6148 51.2667 80.9368 51.3847 81.2588 51.3847C81.6048 51.3847 81.9498 51.2477 82.2068 50.9767C83.1238 50.0087 84.1738 49.5377 85.4158 49.5377Z" fill="#A33418"/>
<path d="M108.531 48.9307C108.476 48.8697 107.487 47.7847 105.848 47.2387C105.291 47.0527 104.66 46.9287 103.964 46.9287C102.144 46.9287 100.491 47.6587 99.1844 49.0397C98.6894 49.5627 98.7114 50.3887 99.2344 50.8837C99.4864 51.1217 99.8094 51.2407 100.131 51.2407C100.476 51.2407 100.822 51.1037 101.078 50.8327C101.903 49.9607 102.847 49.5377 103.963 49.5377C105.502 49.5377 106.561 50.6437 106.592 50.6777C106.913 51.0307 107.383 51.1627 107.819 51.0727C108.037 51.0277 108.248 50.9317 108.427 50.7727C108.966 50.2927 109.012 49.4677 108.531 48.9307Z" fill="#A33418"/>
</svg>
