<svg width="172" height="172" viewBox="0 0 172 172" fill="none" xmlns="http://www.w3.org/2000/svg">
<path d="M86.147 139.294C115.499 139.294 139.294 115.499 139.294 86.147C139.294 56.7947 115.499 33 86.147 33C56.7947 33 33 56.7947 33 86.147C33 115.499 56.7947 139.294 86.147 139.294Z" fill="#4AB6B8"/>
<path d="M68.4447 55.2978C67.2017 54.3808 65.8017 53.7318 64.3237 53.7318C59.2587 53.7318 59.4387 60.6068 59.4387 60.6068C59.4387 60.6068 54.8167 53.3708 50.5247 53.7318C46.2327 54.0938 44.7857 58.9778 44.7857 58.9778C44.7857 58.9778 44.1907 57.0178 42.8317 55.3448C41.3697 57.3978 40.0507 59.5588 38.8867 61.8138C46.2617 62.2798 55.4287 63.8108 65.7697 67.5708C65.7697 67.5708 65.6407 60.0668 68.4447 55.2978Z" fill="#4B703C"/>
<path d="M87.8657 63.0508C87.8657 63.0508 89.9827 60.8398 92.7837 58.4048C93.1747 55.0838 93.1257 51.7938 91.4587 51.5398C88.0217 51.0178 85.6697 57.7118 85.6697 57.7118C85.6697 57.7118 84.9457 50.6568 81.3277 50.4758C80.2287 50.4208 79.0797 51.4038 78.0117 52.7958C83.1757 55.7758 87.8657 63.0508 87.8657 63.0508Z" fill="#4B703C"/>
<path d="M113.388 111.515C112.878 111.694 112.35 111.874 111.807 112.053C112.35 111.873 112.878 111.694 113.388 111.515Z" fill="#61AA54"/>
<path d="M115.517 110.739C115.351 110.802 115.182 110.865 115.011 110.928C115.182 110.865 115.35 110.802 115.517 110.739Z" fill="#61AA54"/>
<path d="M109.049 112.918C108.845 112.979 108.638 113.039 108.431 113.099C108.639 113.04 108.845 112.979 109.049 112.918Z" fill="#61AA54"/>
<path d="M108.169 113.175C107.945 113.239 107.719 113.303 107.492 113.366C107.72 113.303 107.946 113.24 108.169 113.175Z" fill="#61AA54"/>
<path d="M114.832 110.995C114.65 111.062 114.464 111.13 114.276 111.198C114.463 111.13 114.649 111.063 114.832 110.995Z" fill="#61AA54"/>
<path d="M116.182 110.483C116.027 110.543 115.871 110.603 115.712 110.664C115.871 110.603 116.028 110.543 116.182 110.483Z" fill="#61AA54"/>
<path d="M120.991 108.451C120.897 108.495 120.8 108.54 120.699 108.586C120.799 108.539 120.896 108.495 120.991 108.451Z" fill="#61AA54"/>
<path d="M120.159 108.83C120.056 108.876 119.949 108.924 119.841 108.971C119.95 108.923 120.056 108.876 120.159 108.83Z" fill="#61AA54"/>
<path d="M116.837 110.228C116.683 110.289 116.526 110.351 116.367 110.413C116.527 110.351 116.683 110.289 116.837 110.228Z" fill="#61AA54"/>
<path d="M119.232 109.237C119.075 109.305 118.914 109.374 118.749 109.444C118.915 109.374 119.076 109.305 119.232 109.237Z" fill="#61AA54"/>
<path d="M76.082 115.874C76.678 115.959 77.272 116.033 77.865 116.1C77.296 116.035 76.726 115.964 76.153 115.883C76.13 115.88 76.106 115.877 76.082 115.874Z" fill="#61AA54"/>
<path d="M79.7969 116.291C89.2209 117.078 98.1289 115.765 105.381 113.928C100.895 115.064 95.7719 115.997 90.2889 116.359C86.9079 116.584 83.3899 116.591 79.7969 116.291Z" fill="#61AA54"/>
<path d="M158.033 90.7289C153.963 85.3019 146.093 86.5669 146.093 86.5669C139.224 84.7489 133.61 76.1649 114.276 73.2509C110.962 72.7519 109.107 69.0319 108.974 65.6829C108.929 64.5439 108.848 63.3069 108.715 62.0589C108.346 62.0579 107.978 61.9129 107.711 61.6179C107.672 61.5769 106.203 60.0249 104.039 60.0249C102.487 60.0249 101.178 60.6109 100.037 61.8169C99.77 62.0999 99.411 62.2409 99.051 62.2409C98.716 62.2409 98.381 62.1179 98.119 61.8699C97.575 61.3549 97.551 60.4959 98.066 59.9519C99.724 58.1989 101.734 57.3109 104.039 57.3109C105.774 57.3109 107.187 57.9259 108.173 58.5449C107.394 54.8719 105.932 51.8789 103.218 52.1039C100.351 52.3419 96.09 55.5299 92.784 58.4049C89.983 60.8399 87.866 63.0509 87.866 63.0509C87.866 63.0509 83.176 55.7769 78.013 52.7959C76.103 51.6939 74.13 51.1739 72.304 51.8329C70.622 52.4399 69.373 53.7199 68.445 55.2979C65.641 60.0669 65.771 67.5719 65.771 67.5719C55.43 63.8119 46.262 62.2809 38.888 61.8149C35.127 69.1059 33.001 77.3779 33.001 86.1469C33.001 93.1939 34.376 99.9189 36.867 106.073C41.426 105.677 45.918 105.061 50.031 103.796C54.859 102.31 59.167 99.9329 62.45 95.9729C63.719 94.4429 64.837 92.6799 65.771 90.6369C65.972 90.3159 66.202 90.0239 66.452 89.7559C64.232 90.8289 62.667 92.2329 62.527 92.3609C61.974 92.8659 61.117 92.8289 60.611 92.2769C60.105 91.7249 60.141 90.8689 60.692 90.3619C63.931 87.3839 71.705 83.1019 77.937 88.2149C79.7 89.6619 81.16 91.1729 82.572 92.6359C86.784 96.9989 90.422 100.767 100.499 100.943C119.063 101.269 123.597 106.047 124.052 106.591C124.511 107.139 124.458 107.939 123.955 108.43C125.765 110.108 130.131 113.364 136.596 113.162C145.28 112.891 146.365 106.107 146.365 106.107C146.365 106.107 148.355 106.787 154.596 104.616C160.837 102.445 162.104 96.1569 158.033 90.7289ZM77.23 59.3509C80.651 59.3509 82.828 61.7399 82.919 61.8419C83.419 62.3999 83.371 63.2579 82.813 63.7579C82.256 64.2559 81.403 64.2099 80.903 63.6579C80.87 63.6219 79.398 62.0649 77.23 62.0649C75.678 62.0649 74.369 62.6509 73.228 63.8569C72.961 64.1399 72.602 64.2819 72.242 64.2819C71.907 64.2819 71.572 64.1589 71.31 63.9109C70.766 63.3959 70.742 62.5369 71.257 61.9929C72.915 60.2389 74.925 59.3509 77.23 59.3509ZM77.075 81.5619C74.265 81.5619 71.988 79.9309 71.988 74.5129C71.988 74.1629 71.998 73.8179 72.017 73.4779C72.034 73.1699 72.058 72.8659 72.089 72.5659C72.103 72.4279 72.124 72.2949 72.141 72.1599C72.163 71.9909 72.182 71.8199 72.208 71.6549C72.23 71.5139 72.258 71.3779 72.284 71.2399C72.312 71.0849 72.339 70.9289 72.372 70.7779C72.401 70.6409 72.435 70.5099 72.467 70.3759C72.502 70.2299 72.537 70.0839 72.575 69.9419C72.611 69.8109 72.65 69.6859 72.689 69.5589C72.731 69.4219 72.772 69.2839 72.817 69.1509C72.859 69.0279 72.903 68.9099 72.948 68.7909C72.996 68.6619 73.045 68.5339 73.096 68.4099C73.143 68.2959 73.192 68.1859 73.242 68.0769C73.296 67.9559 73.352 67.8379 73.409 67.7219C73.461 67.6179 73.514 67.5179 73.568 67.4179C73.629 67.3059 73.69 67.1979 73.754 67.0919C73.81 66.9989 73.867 66.9079 73.924 66.8189C73.99 66.7169 74.059 66.6199 74.128 66.5249C74.187 66.4429 74.247 66.3619 74.309 66.2849C74.381 66.1939 74.456 66.1089 74.53 66.0259C74.593 65.9559 74.655 65.8859 74.719 65.8209C74.797 65.7419 74.877 65.6709 74.958 65.5989C75.023 65.5419 75.087 65.4829 75.153 65.4309C75.238 65.3639 75.325 65.3069 75.412 65.2479C75.477 65.2039 75.541 65.1579 75.608 65.1189C75.701 65.0649 75.796 65.0219 75.891 64.9789C75.955 64.9499 76.017 64.9149 76.082 64.8909C76.189 64.8499 76.298 64.8229 76.406 64.7949C76.461 64.7809 76.516 64.7599 76.572 64.7489C76.738 64.7179 76.906 64.6999 77.076 64.6999C77.238 64.6999 77.397 64.7179 77.555 64.7469C77.613 64.7569 77.67 64.7749 77.727 64.7889C77.824 64.8129 77.92 64.8389 78.015 64.8739C78.087 64.8999 78.158 64.9309 78.229 64.9629C78.303 64.9969 78.377 65.0329 78.45 65.0729C78.532 65.1169 78.613 65.1629 78.693 65.2149C78.745 65.2489 78.795 65.2859 78.846 65.3229C79.329 65.6689 79.776 66.1499 80.177 66.7459V66.7469C81.383 68.5409 82.163 71.3479 82.163 74.5119C82.163 79.9309 79.885 81.5619 77.075 81.5619ZM103.885 79.5219C101.075 79.5219 98.798 77.8909 98.798 72.4729C98.798 72.1229 98.808 71.7779 98.827 71.4379C98.844 71.1299 98.868 70.8249 98.899 70.5259C98.913 70.3879 98.934 70.2549 98.951 70.1199C98.973 69.9509 98.992 69.7799 99.018 69.6149C99.04 69.4729 99.068 69.3369 99.094 69.1979C99.122 69.0439 99.149 68.8889 99.181 68.7389C99.21 68.6019 99.244 68.4699 99.277 68.3359C99.312 68.1909 99.346 68.0439 99.385 67.9029C99.421 67.7729 99.46 67.6469 99.499 67.5199C99.541 67.3819 99.582 67.2449 99.628 67.1119C99.67 66.9889 99.714 66.8709 99.758 66.7529C99.806 66.6239 99.855 66.4949 99.906 66.3709C99.953 66.2569 100.002 66.1479 100.051 66.0379C100.106 65.9169 100.161 65.7979 100.218 65.6829C100.27 65.5789 100.323 65.4789 100.377 65.3789C100.438 65.2679 100.499 65.1589 100.563 65.0529C100.619 64.9599 100.675 64.8689 100.733 64.7809C100.8 64.6789 100.868 64.5819 100.937 64.4869C100.997 64.4049 101.056 64.3249 101.118 64.2479C101.19 64.1569 101.265 64.0719 101.339 63.9879C101.401 63.9179 101.464 63.8479 101.528 63.7839C101.606 63.7049 101.687 63.6329 101.768 63.5609C101.833 63.5039 101.896 63.4449 101.962 63.3929C102.047 63.3259 102.134 63.2679 102.221 63.2099C102.286 63.1659 102.35 63.1199 102.416 63.0809C102.509 63.0269 102.605 62.9839 102.7 62.9399C102.763 62.9109 102.826 62.8769 102.89 62.8519C102.997 62.8109 103.107 62.7839 103.216 62.7559C103.271 62.7419 103.324 62.7209 103.38 62.7109C103.546 62.6789 103.714 62.6619 103.884 62.6619C104.046 62.6619 104.205 62.6799 104.363 62.7089C104.421 62.7189 104.478 62.7369 104.535 62.7509C104.632 62.7749 104.728 62.8009 104.823 62.8359C104.895 62.8619 104.966 62.8929 105.037 62.9249C105.111 62.9589 105.185 62.9949 105.258 63.0349C105.34 63.0789 105.421 63.1249 105.501 63.1769C105.553 63.2109 105.604 63.2489 105.655 63.2859C106.137 63.6319 106.584 64.1119 106.985 64.7069L106.986 64.7079C108.192 66.5019 108.972 69.3089 108.972 72.4729C108.972 77.8909 106.694 79.5219 103.885 79.5219ZM138.509 104.533C130.697 107.475 130.597 99.9589 135.345 99.4449C140.092 98.9319 141.846 103.277 138.509 104.533ZM153.537 98.1639C144.137 101.349 149.956 91.7229 153.537 92.3909C157.119 93.0589 157.13 96.9469 153.537 98.1639Z" fill="#5C9A4D"/>
<path d="M53.3613 127.977L76.0823 115.874L63.4993 122.577L53.3613 127.977Z" fill="#61AA54"/>
<path d="M83.8809 97.774C83.9529 97.83 84.0279 97.8791 84.0999 97.9341C82.9679 96.9391 81.9259 95.8731 80.8789 94.7891C81.8149 95.9571 82.8189 96.943 83.8809 97.774Z" fill="#61AA54"/>
<path d="M79.7679 116.289C79.1959 116.241 78.6219 116.184 78.0459 116.121C78.6219 116.185 79.1959 116.241 79.7679 116.289Z" fill="#61AA54"/>
<path d="M62.4493 95.9727C59.1663 99.9317 54.8593 102.31 50.0303 103.796C52.1323 111.58 57.1053 117.807 63.4983 122.577L76.0813 115.874C76.1053 115.877 76.1293 115.88 76.1533 115.883C69.4863 111.556 64.1423 103.872 62.4493 95.9727Z" fill="#EDB348"/>
<path d="M50.0312 103.796C45.9182 105.062 41.4262 105.677 36.8672 106.073C40.3782 114.748 46.1102 122.286 53.3612 127.977L63.4992 122.577C57.1062 117.807 52.1332 111.58 50.0312 103.796Z" fill="#EBA737"/>
<path d="M90.2892 116.36C87.0842 110.556 84.5762 104.123 83.8822 97.7741C82.8202 96.9431 81.8152 95.9581 80.8802 94.7901C80.7932 94.7001 80.7062 94.6111 80.6192 94.5201C79.2612 93.1141 77.8572 91.6601 76.2152 90.3121C72.9232 87.6111 69.1902 88.4331 66.4522 89.7561C66.2022 90.0241 65.9722 90.3161 65.7712 90.6371C64.8372 92.6801 63.7192 94.4431 62.4502 95.9731C64.1432 103.872 69.4862 111.555 76.1542 115.883C76.7262 115.964 77.2972 116.035 77.8662 116.1C77.9262 116.107 77.9862 116.114 78.0472 116.121C78.6232 116.185 79.1972 116.242 79.7692 116.289C79.7782 116.29 79.7882 116.29 79.7982 116.291C83.3902 116.591 86.9082 116.584 90.2892 116.36Z" fill="#EBA737"/>
<path d="M100.8 103.664C100.682 103.661 100.57 103.657 100.451 103.655C92.1168 103.509 87.6628 101.067 84.1008 97.9334C84.0288 97.8784 83.9538 97.8294 83.8818 97.7734C84.5768 104.123 87.0838 110.555 90.2888 116.359C95.7718 115.996 100.895 115.064 105.381 113.928C103.271 110.87 101.738 107.325 100.8 103.664Z" fill="#EDB348"/>
<path d="M100.8 103.665C101.738 107.326 103.271 110.871 105.381 113.929C105.709 113.846 106.034 113.762 106.355 113.677C106.374 113.672 106.393 113.667 106.412 113.662C106.701 113.585 106.987 113.508 107.27 113.43C107.345 113.409 107.418 113.388 107.493 113.368C107.72 113.305 107.947 113.241 108.17 113.177C108.258 113.152 108.345 113.127 108.432 113.101C108.64 113.041 108.846 112.98 109.05 112.92C109.142 112.893 109.233 112.865 109.324 112.838C109.525 112.778 109.724 112.717 109.921 112.656C110.007 112.63 110.092 112.603 110.177 112.577C110.383 112.513 110.586 112.449 110.787 112.385C110.859 112.362 110.932 112.339 111.004 112.316C111.228 112.244 111.449 112.172 111.668 112.1C111.714 112.085 111.761 112.07 111.807 112.054C112.35 111.874 112.878 111.695 113.388 111.516C113.393 111.514 113.398 111.512 113.403 111.511C113.645 111.426 113.883 111.341 114.118 111.257C114.171 111.238 114.223 111.219 114.276 111.2C114.464 111.132 114.65 111.064 114.832 110.997C114.892 110.975 114.951 110.953 115.011 110.931C115.182 110.868 115.351 110.804 115.517 110.742C115.583 110.717 115.647 110.693 115.712 110.668C115.871 110.607 116.028 110.547 116.182 110.487C116.244 110.463 116.306 110.439 116.367 110.415C116.526 110.353 116.683 110.291 116.837 110.23C116.888 110.21 116.94 110.189 116.991 110.169C117.163 110.101 117.331 110.033 117.496 109.966C117.526 109.954 117.556 109.942 117.585 109.93C117.983 109.768 118.362 109.61 118.72 109.458C118.73 109.454 118.739 109.45 118.748 109.446C118.913 109.376 119.074 109.307 119.231 109.239C119.264 109.225 119.296 109.211 119.329 109.197C119.458 109.141 119.585 109.086 119.707 109.032C119.752 109.012 119.796 108.993 119.84 108.973C119.948 108.925 120.055 108.878 120.158 108.832C120.202 108.812 120.244 108.793 120.287 108.774C120.391 108.727 120.492 108.681 120.59 108.637C120.626 108.621 120.662 108.604 120.697 108.588C120.798 108.542 120.895 108.497 120.989 108.453C121.019 108.439 121.049 108.425 121.078 108.412C121.18 108.364 121.278 108.319 121.373 108.274C121.39 108.266 121.408 108.258 121.425 108.25C121.526 108.202 121.622 108.157 121.713 108.113C120.6 107.223 115.522 103.973 100.8 103.665Z" fill="#EBA737"/>
<path d="M73.0957 68.4092C73.1427 68.2952 73.1917 68.1852 73.2417 68.0762C73.1917 68.1862 73.1427 68.2952 73.0957 68.4092Z" fill="#2B0020"/>
<path d="M73.4092 67.721C73.4612 67.617 73.5142 67.517 73.5682 67.417C73.5142 67.517 73.4612 67.618 73.4092 67.721Z" fill="#2B0020"/>
<path d="M78.4492 65.0732C78.5312 65.1172 78.6122 65.1633 78.6922 65.2153C78.6122 65.1643 78.5312 65.1182 78.4492 65.0732Z" fill="#2B0020"/>
<path d="M80.1757 66.7462C79.7747 66.1502 79.3277 65.6692 78.8447 65.3232C79.3267 65.6712 79.7747 66.1502 80.1757 66.7462Z" fill="#2B0020"/>
<path d="M82.1633 74.5121C82.1633 71.3471 81.3833 68.5411 80.1773 66.7471C79.7543 69.0041 78.2733 71.0711 76.7853 72.1861C75.3803 73.0291 73.7023 73.4611 72.0163 73.4891C72.0163 73.4851 72.0173 73.4821 72.0173 73.4781C71.9993 73.8181 71.9883 74.1631 71.9883 74.5131C71.9883 79.9321 74.2663 81.5621 77.0753 81.5621C79.8843 81.5621 82.1633 79.9311 82.1633 74.5121Z" fill="#2B0020"/>
<path d="M77.5537 64.748C77.6117 64.759 77.6687 64.7761 77.7257 64.7901C77.6687 64.7761 77.6117 64.758 77.5537 64.748Z" fill="#2B0020"/>
<path d="M75.8896 64.9796C75.9536 64.9506 76.0157 64.9156 76.0807 64.8916C76.0157 64.9156 75.9536 64.9496 75.8896 64.9796Z" fill="#2B0020"/>
<path d="M76.4053 64.796C76.4603 64.782 76.5153 64.761 76.5713 64.75C76.5153 64.761 76.4613 64.782 76.4053 64.796Z" fill="#2B0020"/>
<path d="M76.7846 72.1862C78.2716 71.0712 79.7536 69.0042 80.1766 66.7472V66.7462C79.7756 66.1502 79.3276 65.6712 78.8456 65.3232C78.7946 65.2862 78.7446 65.2492 78.6926 65.2152C78.6126 65.1632 78.5316 65.1172 78.4496 65.0732C78.3766 65.0332 78.3026 64.9972 78.2286 64.9632C78.1576 64.9312 78.0866 64.9002 78.0146 64.8742C77.9196 64.8402 77.8236 64.8132 77.7266 64.7892C77.6696 64.7752 77.6126 64.7572 77.5546 64.7472C77.3966 64.7182 77.2376 64.7002 77.0756 64.7002C76.9056 64.7002 76.7376 64.7182 76.5716 64.7492C76.5156 64.7602 76.4616 64.7812 76.4056 64.7952C76.2966 64.8232 76.1876 64.8502 76.0816 64.8912C76.0166 64.9162 75.9546 64.9502 75.8906 64.9792C75.7956 65.0232 75.7006 65.0652 75.6076 65.1192C75.5416 65.1572 75.4766 65.2042 75.4116 65.2482C75.3246 65.3062 75.2376 65.3642 75.1526 65.4312C75.0866 65.4832 75.0226 65.5422 74.9576 65.5992C74.8776 65.6702 74.7966 65.7422 74.7186 65.8212C74.6546 65.8862 74.5916 65.9562 74.5296 66.0262C74.4546 66.1102 74.3806 66.1952 74.3086 66.2852C74.2476 66.3622 74.1876 66.4432 74.1276 66.5252C74.0586 66.6202 73.9906 66.7172 73.9236 66.8192C73.8656 66.9072 73.8086 66.9982 73.7536 67.0922C73.6896 67.1982 73.6286 67.3062 73.5676 67.4182C73.5136 67.5172 73.4606 67.6182 73.4086 67.7222C73.3516 67.8372 73.2956 67.9562 73.2416 68.0772C73.1926 68.1862 73.1426 68.2962 73.0956 68.4102C73.0446 68.5342 72.9956 68.6622 72.9476 68.7912C72.9036 68.9102 72.8586 69.0282 72.8166 69.1512C72.7716 69.2842 72.7296 69.4212 72.6886 69.5592C72.6496 69.6862 72.6106 69.8122 72.5746 69.9422C72.5356 70.0842 72.5016 70.2302 72.4666 70.3762C72.4346 70.5092 72.4006 70.6412 72.3716 70.7782C72.3396 70.9292 72.3126 71.0852 72.2836 71.2402C72.2586 71.3782 72.2306 71.5142 72.2076 71.6552C72.1816 71.8212 72.1616 71.9912 72.1406 72.1602C72.1236 72.2962 72.1026 72.4292 72.0886 72.5662C72.0576 72.8652 72.0336 73.1692 72.0166 73.4782C72.0166 73.4822 72.0156 73.4862 72.0156 73.4892C73.7016 73.4612 75.3786 73.0302 76.7846 72.1862Z" fill="white"/>
<path d="M71.2569 61.9916C70.7419 62.5356 70.7659 63.3946 71.3099 63.9096C71.5719 64.1576 71.9079 64.2806 72.2419 64.2806C72.6019 64.2806 72.9609 64.1386 73.2279 63.8556C74.3689 62.6496 75.6779 62.0636 77.2299 62.0636C79.3979 62.0636 80.8689 63.6206 80.9029 63.6566C81.4029 64.2086 82.2559 64.2546 82.8129 63.7566C83.3709 63.2566 83.4189 62.3986 82.9189 61.8406C82.8279 61.7386 80.6509 59.3496 77.2299 59.3496C74.9249 59.3506 72.9149 60.2386 71.2569 61.9916Z" fill="#4B703C"/>
<path d="M101.339 63.9872C101.401 63.9172 101.464 63.8472 101.528 63.7832C101.464 63.8472 101.402 63.9172 101.339 63.9872Z" fill="#2B0020"/>
<path d="M103.216 62.756C103.271 62.742 103.324 62.7209 103.38 62.7109C103.325 62.7209 103.271 62.742 103.216 62.756Z" fill="#2B0020"/>
<path d="M101.767 63.5596C101.831 63.5026 101.895 63.4436 101.961 63.3916C101.896 63.4436 101.832 63.5026 101.767 63.5596Z" fill="#2B0020"/>
<path d="M106.985 64.7062C106.585 64.1112 106.137 63.6302 105.655 63.2852C106.136 63.6322 106.584 64.1112 106.985 64.7062Z" fill="#2B0020"/>
<path d="M103.594 70.147C102.189 70.99 100.511 71.422 98.8249 71.45C98.8249 71.446 98.8259 71.442 98.8259 71.439C98.8079 71.779 98.7969 72.124 98.7969 72.474C98.7969 77.893 101.075 79.523 103.884 79.523C106.693 79.523 108.971 77.892 108.971 72.474C108.971 69.309 108.191 66.503 106.985 64.709C106.562 66.964 105.081 69.032 103.594 70.147Z" fill="#2B0020"/>
<path d="M104.363 62.708C104.421 62.719 104.478 62.736 104.535 62.75C104.478 62.737 104.421 62.719 104.363 62.708Z" fill="#2B0020"/>
<path d="M102.7 62.9396C102.763 62.9106 102.826 62.8756 102.89 62.8516C102.826 62.8766 102.764 62.9106 102.7 62.9396Z" fill="#2B0020"/>
<path d="M99.0176 69.6152C99.0396 69.4732 99.0676 69.3372 99.0936 69.1982C99.0676 69.3362 99.0396 69.4732 99.0176 69.6152Z" fill="#2B0020"/>
<path d="M98.8984 70.5261C98.9124 70.3881 98.9334 70.2551 98.9504 70.1201C98.9334 70.2561 98.9134 70.3891 98.8984 70.5261Z" fill="#2B0020"/>
<path d="M100.218 65.6819C100.27 65.5779 100.323 65.4779 100.377 65.3779C100.323 65.4769 100.27 65.5779 100.218 65.6819Z" fill="#2B0020"/>
<path d="M99.627 67.111C99.669 66.989 99.713 66.87 99.757 66.752C99.713 66.871 99.669 66.989 99.627 67.111Z" fill="#2B0020"/>
<path d="M99.9062 66.3701C99.9532 66.2571 100.002 66.1471 100.051 66.0371C100.001 66.1461 99.9532 66.2561 99.9062 66.3701Z" fill="#2B0020"/>
<path d="M103.594 70.1471C105.081 69.0321 106.563 66.9651 106.986 64.7081L106.985 64.7071C106.584 64.1111 106.136 63.6331 105.655 63.2851C105.604 63.2481 105.553 63.2101 105.501 63.1761C105.421 63.1241 105.34 63.0781 105.258 63.0341C105.185 62.9941 105.111 62.9581 105.037 62.9241C104.966 62.8921 104.895 62.8621 104.823 62.8351C104.728 62.8001 104.632 62.7741 104.535 62.7501C104.478 62.7361 104.421 62.7181 104.363 62.7081C104.205 62.6791 104.046 62.6611 103.884 62.6611C103.714 62.6611 103.546 62.6791 103.38 62.7101C103.325 62.7201 103.271 62.7411 103.216 62.7551C103.106 62.7831 102.997 62.8101 102.89 62.8511C102.826 62.8761 102.764 62.9101 102.7 62.9391C102.605 62.9831 102.509 63.0261 102.416 63.0801C102.35 63.1181 102.286 63.1651 102.221 63.2091C102.134 63.2671 102.047 63.3251 101.962 63.3921C101.896 63.4441 101.832 63.5031 101.768 63.5601C101.687 63.6321 101.607 63.7031 101.528 63.7831C101.464 63.8481 101.402 63.9181 101.339 63.9871C101.264 64.0711 101.19 64.1561 101.118 64.2471C101.057 64.3241 100.997 64.4051 100.937 64.4861C100.868 64.5811 100.8 64.6791 100.733 64.7801C100.675 64.8681 100.618 64.9591 100.563 65.0521C100.5 65.1581 100.438 65.2661 100.377 65.3781C100.323 65.4771 100.27 65.5781 100.218 65.6821C100.161 65.7981 100.105 65.9161 100.051 66.0371C100.002 66.1461 99.9532 66.2561 99.9062 66.3701C99.8552 66.4951 99.8062 66.6231 99.7582 66.7521C99.7142 66.8711 99.6692 66.9891 99.6282 67.1111C99.5832 67.2441 99.5412 67.3821 99.4992 67.5191C99.4602 67.6461 99.4212 67.7711 99.3852 67.9021C99.3462 68.0441 99.3122 68.1901 99.2772 68.3351C99.2452 68.4691 99.2112 68.6011 99.1812 68.7381C99.1492 68.8881 99.1222 69.0431 99.0942 69.1971C99.0692 69.3361 99.0412 69.4721 99.0182 69.6141C98.9922 69.7801 98.9722 69.9501 98.9512 70.1191C98.9342 70.2551 98.9132 70.3881 98.8992 70.5251C98.8682 70.8241 98.8442 71.1281 98.8272 71.4371C98.8272 71.4411 98.8262 71.4451 98.8262 71.4481C100.511 71.4221 102.188 70.9901 103.594 70.1471Z" fill="white"/>
<path d="M98.0655 59.9516C97.5505 60.4956 97.5745 61.3546 98.1185 61.8696C98.3805 62.1176 98.7165 62.2405 99.0505 62.2405C99.4105 62.2405 99.7695 62.0985 100.036 61.8165C101.177 60.6105 102.486 60.0246 104.038 60.0246C106.202 60.0246 107.672 61.5756 107.711 61.6176C107.978 61.9126 108.344 62.0585 108.714 62.0585C109.037 62.0595 109.361 61.9495 109.621 61.7175C110.179 61.2175 110.227 60.3605 109.728 59.8015C109.683 59.7515 109.13 59.1455 108.172 58.5445C107.187 57.9255 105.774 57.3105 104.038 57.3105C101.733 57.3105 99.7235 58.1996 98.0655 59.9516Z" fill="#4B703C"/>
<path d="M135.344 99.4454C130.597 99.9594 130.696 107.475 138.508 104.533C141.846 103.276 140.092 98.9314 135.344 99.4454Z" fill="#2B0020"/>
<path d="M153.536 92.3908C149.955 91.7228 144.136 101.349 153.536 98.1638C157.129 96.9468 157.118 93.0588 153.536 92.3908Z" fill="#2B0020"/>
<path d="M124.052 106.59C123.596 106.047 119.063 101.268 100.499 100.942C90.421 100.765 86.784 96.9977 82.572 92.6347C81.16 91.1727 79.701 89.6607 77.937 88.2137C71.705 83.1007 63.932 87.3827 60.692 90.3607C60.141 90.8677 60.105 91.7237 60.611 92.2757C61.117 92.8277 61.974 92.8647 62.527 92.3597C62.667 92.2317 64.233 90.8287 66.452 89.7547C69.189 88.4307 72.923 87.6097 76.215 90.3107C77.857 91.6577 79.261 93.1127 80.619 94.5187C80.706 94.6087 80.793 94.6987 80.88 94.7887C81.927 95.8727 82.97 96.9377 84.101 97.9337C87.663 101.068 92.117 103.51 100.451 103.656C100.57 103.658 100.682 103.662 100.8 103.665C115.522 103.973 120.6 107.223 121.715 108.11C121.889 108.248 121.97 108.331 121.972 108.334C122.24 108.654 122.625 108.819 123.012 108.819C123.319 108.819 123.629 108.715 123.883 108.502C123.91 108.48 123.93 108.453 123.954 108.429C124.458 107.938 124.51 107.138 124.052 106.59Z" fill="#4B703C"/>
</svg>
