<svg width="172" height="172" viewBox="0 0 172 172" fill="none" xmlns="http://www.w3.org/2000/svg">
<path d="M85.6617 139.844C115.014 139.844 138.809 116.049 138.809 86.6968C138.809 57.3445 115.014 33.5498 85.6617 33.5498C56.3094 33.5498 32.5146 57.3445 32.5146 86.6968C32.5146 116.049 56.3094 139.844 85.6617 139.844Z" fill="#EDB348"/>
<path d="M105.236 109.748C99.266 104.321 73.621 102.739 68.737 108.167C63.064 114.38 59.317 120.874 59.849 133.162C67.492 137.417 76.293 139.844 85.662 139.844C96.658 139.844 106.874 136.504 115.352 130.784C113.703 122.322 111.665 115.5 105.236 109.748Z" fill="#7F867E"/>
<path d="M98.3253 122.323C92.3553 117.981 82.4053 118.524 76.9783 122.323C72.9003 125.042 71.1123 132.87 68.7363 137.087C74.0523 138.873 79.7433 139.844 85.6613 139.844C92.9423 139.844 99.8763 138.372 106.194 135.723C103.882 132.671 101.713 124.582 98.3253 122.323Z" fill="#666F65"/>
<path opacity="0.15" d="M112.709 120.792C111.156 116.689 108.918 113.042 105.236 109.748C99.2657 104.321 73.6207 102.739 68.7367 108.167C64.8577 112.416 61.8797 116.798 60.5537 123.072C77.9447 127.6 96.6327 128.937 112.709 120.792Z" fill="black"/>
<path d="M54.753 55.4406C54.753 55.4406 52.178 45.3036 43.173 42.0956C34.168 38.8876 23.48 45.7396 20.136 62.3626C16.792 78.9866 15.193 93.2936 20.136 96.4316C25.079 99.5696 29.691 91.8176 29.691 91.8176C29.691 91.8176 27.217 99.0706 32.831 101.459C38.445 103.848 39.535 95.9546 39.535 95.9546C39.535 95.9546 39.456 102.427 45.662 103.287C51.832 104.142 56.311 94.9756 56.311 94.9756L54.753 55.4406Z" fill="#666F65"/>
<path d="M37.8682 65.3895C42.0252 65.9435 46.1792 68.2725 48.9332 71.6205L48.9272 62.5715C48.9272 62.5715 49.5942 52.6995 42.1722 50.3645C35.0382 48.1195 28.6002 55.7385 27.0742 65.8875C30.5992 65.0315 34.3492 64.9195 37.8682 65.3895Z" fill="#F87671"/>
<path d="M37.8681 65.3893C34.3491 64.9203 30.5991 65.0323 27.0731 65.8873C27.0111 66.2973 26.9551 66.7093 26.9101 67.1273C25.7421 77.8863 29.7461 86.8933 36.0841 88.8953C42.4221 90.8963 48.9431 85.3923 48.9431 85.3923L48.9341 71.6213C46.1791 68.2713 42.0251 65.9433 37.8681 65.3893Z" fill="#F98C87"/>
<path d="M116.571 55.4406C116.571 55.4406 119.146 45.3036 128.151 42.0956C137.155 38.8876 147.844 45.7396 151.187 62.3626C154.531 78.9866 156.13 93.2936 151.187 96.4316C146.244 99.5696 141.632 91.8176 141.632 91.8176C141.632 91.8176 144.105 99.0706 138.492 101.459C132.878 103.848 131.788 95.9546 131.788 95.9546C131.788 95.9546 131.867 102.427 125.661 103.287C119.491 104.142 115.012 94.9756 115.012 94.9756L116.571 55.4406Z" fill="#666F65"/>
<path d="M133.455 65.3895C129.298 65.9435 125.144 68.2725 122.391 71.6205L122.397 62.5715C122.397 62.5715 121.73 52.6995 129.152 50.3645C136.286 48.1195 142.725 55.7385 144.251 65.8875C140.724 65.0315 136.975 64.9195 133.455 65.3895Z" fill="#F87671"/>
<path d="M133.456 65.3893C136.976 64.9203 140.725 65.0323 144.251 65.8873C144.313 66.2973 144.369 66.7093 144.414 67.1273C145.582 77.8863 141.579 86.8933 135.24 88.8953C128.902 90.8963 122.381 85.3923 122.381 85.3923L122.39 71.6213C125.145 68.2713 129.299 65.9433 133.456 65.3893Z" fill="#F98C87"/>
<path d="M135.864 81.6617C135.864 108.713 112.031 116.804 84.305 116.804C56.579 116.804 35.46 108.713 35.46 81.6617C35.46 54.6107 57.936 32.6807 85.662 32.6807C113.388 32.6817 135.864 54.6107 135.864 81.6617Z" fill="#7F867E"/>
<path d="M93.3215 108.917C90.6875 108.917 88.1095 107.835 85.6355 105.693C84.0685 106.952 80.8195 109.092 77.2425 108.726C74.5985 108.456 72.3345 106.915 70.5125 104.144C70.1005 103.518 70.2745 102.676 70.9005 102.265C71.5255 101.853 72.3675 102.027 72.7795 102.653C74.1315 104.708 75.7245 105.843 77.5175 106.026C81.1205 106.393 84.6645 102.944 84.6995 102.91C85.2255 102.383 86.0795 102.379 86.6115 102.902C88.9765 105.23 91.3765 106.336 93.7475 106.19C97.3985 105.966 99.9245 102.833 99.9505 102.802C100.416 102.216 101.27 102.116 101.855 102.578C102.442 103.041 102.546 103.89 102.084 104.478C101.953 104.645 98.8165 108.581 93.9435 108.896C93.7365 108.91 93.5285 108.917 93.3215 108.917Z" fill="#2B0020"/>
<path d="M66.2917 83.0408C66.2917 90.4688 63.1697 92.7048 59.3177 92.7048C55.4657 92.7048 52.3438 90.4688 52.3438 83.0408C52.3438 75.6128 55.4657 69.5908 59.3177 69.5908C63.1697 69.5908 66.2917 75.6128 66.2917 83.0408Z" fill="#2B0020"/>
<path d="M63.5688 72.3948C62.3908 70.6428 60.9198 69.5908 59.3178 69.5908C55.7118 69.5908 52.7458 74.8688 52.3818 81.6378C54.6928 81.5998 56.9928 81.0078 58.9188 79.8518C60.9578 78.3228 62.9888 75.4888 63.5688 72.3948Z" fill="white"/>
<path d="M119.184 83.0408C119.184 90.4688 116.062 92.7048 112.21 92.7048C108.358 92.7048 105.236 90.4688 105.236 83.0408C105.236 75.6128 108.358 69.5908 112.21 69.5908C116.062 69.5908 119.184 75.6128 119.184 83.0408Z" fill="#2B0020"/>
<path d="M116.461 72.3948C115.283 70.6428 113.812 69.5908 112.21 69.5908C108.604 69.5908 105.638 74.8688 105.274 81.6378C107.585 81.5998 109.885 81.0078 111.811 79.8518C113.85 78.3228 115.881 75.4888 116.461 72.3948Z" fill="white"/>
<path d="M52.1414 67.0499C51.8064 67.0499 51.4715 66.9269 51.2095 66.6789C50.6655 66.1639 50.6414 65.3049 51.1554 64.7609C53.3294 62.4629 55.9614 61.2979 58.9784 61.2979C63.4454 61.2979 66.2844 64.4129 66.4024 64.5449C66.9024 65.1029 66.8545 65.9608 66.2955 66.4608C65.7395 66.9588 64.8844 66.9129 64.3834 66.3589C64.3584 66.3319 62.2014 64.0109 58.9774 64.0109C56.7354 64.0109 54.7674 64.8908 53.1264 66.6248C52.8594 66.9078 52.5004 67.0499 52.1414 67.0499Z" fill="#666F65"/>
<path d="M104.263 67.0499C103.928 67.0499 103.593 66.9269 103.331 66.6789C102.787 66.1639 102.763 65.3049 103.277 64.7609C105.452 62.4629 108.083 61.2979 111.1 61.2979C115.567 61.2979 118.406 64.4129 118.524 64.5449C119.024 65.1029 118.976 65.9608 118.418 66.4608C117.861 66.9588 117.007 66.9129 116.506 66.3589C116.481 66.3319 114.324 64.0109 111.1 64.0109C108.859 64.0109 106.89 64.8908 105.249 66.6248C104.982 66.9078 104.622 67.0499 104.263 67.0499Z" fill="#666F65"/>
<path d="M79.6918 73.2944C85.9768 77.2644 91.8558 74.3744 95.9818 69.3034C93.6357 64.1944 90.1088 60.6814 85.6618 60.0884C81.3838 59.5184 78.0068 63.9574 75.8428 69.6064C76.8288 71.1324 78.0168 72.4574 79.6918 73.2944Z" fill="#360E2B"/>
<path d="M95.9827 69.3037C91.8557 74.3747 85.9777 77.2647 79.6927 73.2947C78.0177 72.4577 76.8297 71.1327 75.8437 69.6067C73.8897 74.7067 72.9227 80.7937 73.1807 85.0757C73.4397 89.3847 74.6277 100.613 85.6637 99.7077C99.1947 98.5987 99.4207 91.1447 99.2317 84.5847C99.0657 78.8887 97.9307 73.5457 95.9827 69.3037Z" fill="#2B0020"/>
<path d="M74.2653 34.9429C74.2653 34.9429 73.7223 26.4398 77.3403 25.3548C80.9583 24.2698 78.9683 31.3248 78.9683 31.3248C78.9683 31.3248 85.6623 22.8218 91.4513 23.0028C97.2403 23.1838 88.5023 30.5998 88.5023 30.5998C88.5023 30.5998 98.6403 26.4408 101.015 30.4198C103.391 34.3998 88.3763 34.9429 88.3763 34.9429H74.2653Z" fill="#7F867E"/>
</svg>
