<svg width="172" height="172" viewBox="0 0 172 172" fill="none" xmlns="http://www.w3.org/2000/svg">
<path d="M85.6568 139.284C115.009 139.284 138.804 115.49 138.804 86.1372C138.804 56.785 115.009 32.9902 85.6568 32.9902C56.3045 32.9902 32.5098 56.785 32.5098 86.1372C32.5098 115.49 56.3045 139.284 85.6568 139.284Z" fill="#4AB6B8"/>
<path d="M147.699 85.4461C146.308 81.6831 132.711 74.1601 123.502 69.4211C119.28 67.2481 116.284 63.2531 115.41 58.5861C112.113 40.9901 106.985 21.6321 91.1845 15.2731C68.9325 6.31814 47.7665 24.6901 49.3945 55.1231C49.5315 57.6911 49.5765 60.3371 49.5425 63.0311C49.4915 67.1381 47.7965 71.0511 44.8485 73.9111C36.4955 82.0141 22.2625 96.5071 22.0035 101.438C21.7635 105.993 33.9665 105.16 45.8025 98.7341C44.5925 105.655 43.2795 111.871 42.1765 116.704C51.7945 130.362 67.6835 139.286 85.6575 139.286C105.385 139.286 122.602 128.537 131.772 112.576C129.049 106.757 124.29 101.025 121.92 88.0201C135.317 92.3711 149.288 89.7451 147.699 85.4461Z" fill="#2B0020"/>
<path d="M61.8763 40.2385C75.9873 44.5805 90.0983 39.6955 102.037 33.1835C104.658 31.8045 105.734 30.2495 105.822 28.5995C102.325 22.6555 97.6483 17.8755 91.1833 15.2735C75.4133 8.92754 60.1913 16.3086 53.2393 31.9786C54.7903 35.8466 57.6213 38.9615 61.8763 40.2385Z" fill="#4B2640"/>
<path d="M78.7017 57.605C55.2557 74.973 52.6527 104.15 57.5507 131.244C65.7047 136.336 75.3357 139.284 85.6577 139.284C102.167 139.284 116.914 131.754 126.662 119.944C114.57 104.713 116.93 82.945 108.552 65.204C103.124 53.807 88.4707 50.007 78.7017 57.605Z" fill="#F6DB99"/>
<path opacity="0.45" d="M98.1937 62.2309C99.4517 60.9729 99.9807 58.8019 100.521 56.4599C94.5767 52.9709 87.0547 52.5988 80.8887 56.1398C86.9177 60.0008 93.2877 66.2439 98.1937 62.2309Z" fill="black"/>
<path d="M73.2734 43.1315C73.2734 43.1315 90.2785 61.0435 95.5255 59.7775C100.771 58.5115 98.7814 40.4205 97.6964 39.1545C96.6104 37.8875 73.2734 43.1315 73.2734 43.1315Z" fill="#DD800B"/>
<path opacity="0.25" d="M95.8878 39.5156C95.8878 39.5156 96.9728 54.5306 94.9828 55.2546C92.9928 55.9786 79.9678 44.9426 79.9678 44.9426C79.9678 44.9426 91.4808 40.7816 95.8878 39.5156Z" fill="black"/>
<path d="M77.6153 37.2196C77.6153 37.2196 78.7003 31.9295 84.3993 30.7925C90.0983 29.6555 89.6333 34.0975 94.2003 33.6775C101.675 32.9905 107.213 24.1925 112.62 25.7385C116.51 26.8515 109.273 38.0675 95.1173 43.1305C81.4453 48.0205 75.1723 46.2945 73.2723 43.1305C71.3743 39.9675 77.6153 37.2196 77.6153 37.2196Z" fill="#E39635"/>
<path opacity="0.45" d="M87.5554 122.881C84.9254 122.881 82.1315 122.587 79.2125 121.881C78.4835 121.705 78.0355 120.972 78.2125 120.244C78.3885 119.515 79.1225 119.068 79.8495 119.244C95.8535 123.111 108.116 113.366 108.238 113.267C108.82 112.795 109.675 112.885 110.147 113.467C110.619 114.049 110.529 114.903 109.947 115.376C109.498 115.739 100.508 122.881 87.5554 122.881Z" fill="black"/>
<path opacity="0.45" d="M91.1315 128.291C89.4815 128.291 87.6815 128.089 85.7735 127.569C85.0505 127.372 84.6245 126.627 84.8215 125.903C85.0185 125.18 85.7635 124.756 86.4875 124.951C93.7995 126.942 99.3625 123.518 99.4175 123.483C100.051 123.085 100.889 123.274 101.289 123.909C101.688 124.543 101.497 125.381 100.863 125.78C100.655 125.91 96.7875 128.291 91.1315 128.291Z" fill="black"/>
<path d="M76.6318 30.8563C76.1298 28.3873 75.0758 26.3213 73.8498 25.1133C73.8778 26.9413 73.0498 28.7893 72.0668 29.8953C71.1038 30.7763 69.8648 31.3793 68.5528 31.6683C68.5528 31.6653 68.5518 31.6623 68.5518 31.6593C68.5918 31.9273 68.6378 32.1983 68.6938 32.4713C69.5538 36.6983 71.5888 37.6093 73.7808 37.1633C75.9728 36.7173 77.4908 35.0833 76.6318 30.8563Z" fill="#2B0020"/>
<path d="M72.0666 29.8949C73.0496 28.7889 73.8776 26.9409 73.8496 25.1129H73.8486C73.4416 24.7119 73.0156 24.4089 72.5846 24.2139C72.5386 24.1929 72.4936 24.1719 72.4476 24.1539C72.3766 24.1259 72.3066 24.1029 72.2356 24.0819C72.1726 24.0619 72.1086 24.0459 72.0456 24.0309C71.9856 24.0169 71.9246 24.0049 71.8646 23.9959C71.7856 23.9839 71.7056 23.9789 71.6266 23.9759C71.5796 23.9739 71.5326 23.9689 71.4856 23.9699C71.3576 23.9729 71.2306 23.9839 71.1046 24.0099C70.9716 24.0369 70.8436 24.0769 70.7186 24.1279C70.6766 24.1449 70.6376 24.1699 70.5966 24.1899C70.5156 24.2289 70.4356 24.2669 70.3586 24.3159C70.3126 24.3459 70.2686 24.3819 70.2236 24.4149C70.1566 24.4639 70.0886 24.5129 70.0246 24.5689C69.9786 24.6099 69.9366 24.6559 69.8926 24.7009C69.8336 24.7599 69.7756 24.8189 69.7196 24.8849C69.6766 24.9359 69.6356 24.9919 69.5946 25.0469C69.5436 25.1149 69.4916 25.1839 69.4436 25.2579C69.4036 25.3189 69.3666 25.3829 69.3286 25.4479C69.2836 25.5249 69.2396 25.6029 69.1976 25.6849C69.1616 25.7549 69.1276 25.8269 69.0946 25.9009C69.0556 25.9859 69.0176 26.0729 68.9826 26.1629C68.9516 26.2409 68.9216 26.3209 68.8926 26.4029C68.8596 26.4949 68.8286 26.5899 68.7996 26.6869C68.7736 26.7729 68.7476 26.8599 68.7236 26.9489C68.6966 27.0479 68.6726 27.1499 68.6496 27.2519C68.6286 27.3449 68.6076 27.4389 68.5886 27.5349C68.5686 27.6399 68.5506 27.7479 68.5336 27.8559C68.5176 27.9559 68.5016 28.0549 68.4886 28.1579C68.4746 28.2689 68.4636 28.3829 68.4536 28.4969C68.4436 28.6019 68.4326 28.7059 68.4256 28.8139C68.4176 28.9309 68.4146 29.0509 68.4096 29.1699C68.4056 29.2789 68.4006 29.3869 68.3996 29.4979C68.3986 29.6209 68.4026 29.7469 68.4046 29.8719C68.4066 29.9839 68.4066 30.0939 68.4116 30.2079C68.4176 30.3409 68.4296 30.4779 68.4396 30.6129C68.4476 30.7219 68.4526 30.8289 68.4636 30.9379C68.4866 31.1759 68.5166 31.4169 68.5516 31.6609C68.5526 31.6639 68.5526 31.6669 68.5526 31.6699C69.8636 31.3779 71.1036 30.7749 72.0666 29.8949Z" fill="white"/>
<path d="M66.1365 21.1912C65.8205 21.6972 65.9755 22.3632 66.4825 22.6792C66.7265 22.8312 67.0075 22.8742 67.2685 22.8202C67.5495 22.7632 67.8065 22.5952 67.9705 22.3322C68.6695 21.2102 69.5975 20.5452 70.8085 20.2992C72.4995 19.9552 73.8945 20.9362 73.9265 20.9592C74.4045 21.3102 75.0775 21.2112 75.4325 20.7342C75.7885 20.2552 75.6895 19.5782 75.2115 19.2222C75.1245 19.1572 73.0465 17.6392 70.3785 18.1812C68.5785 18.5482 67.1515 19.5602 66.1365 21.1912Z" fill="#2B0020"/>
<path d="M92.6575 24.0496C91.6955 24.9306 90.4555 25.5336 89.1445 25.8226C89.1435 25.8196 89.1436 25.8166 89.1436 25.8136C89.1836 26.0816 89.2296 26.3526 89.2856 26.6256C90.1456 30.8526 92.1805 31.7636 94.3725 31.3176C96.5645 30.8716 98.0825 29.2376 97.2225 25.0106C96.7205 22.5416 95.6665 20.4756 94.4405 19.2676C94.4685 21.0966 93.6405 22.9436 92.6575 24.0496Z" fill="#2B0020"/>
<path d="M92.6574 24.0491C93.6404 22.9431 94.4684 21.0951 94.4404 19.2671L94.4395 19.2662C94.0325 18.8652 93.6065 18.5631 93.1765 18.3681C93.1305 18.3471 93.0854 18.3261 93.0394 18.3081C92.9684 18.2801 92.8985 18.2572 92.8275 18.2362C92.7645 18.2162 92.7005 18.2002 92.6375 18.1852C92.5775 18.1712 92.5165 18.1592 92.4565 18.1502C92.3775 18.1382 92.2974 18.1331 92.2184 18.1301C92.1714 18.1281 92.1245 18.1232 92.0775 18.1242C91.9495 18.1272 91.8224 18.1381 91.6964 18.1641C91.5634 18.1911 91.4355 18.2311 91.3105 18.2821C91.2695 18.2991 91.2304 18.3241 91.1904 18.3431C91.1094 18.3821 91.0285 18.4211 90.9515 18.4701C90.9055 18.4991 90.8624 18.5361 90.8174 18.5691C90.7504 18.6181 90.6824 18.6671 90.6184 18.7241C90.5724 18.7641 90.5304 18.8111 90.4864 18.8551C90.4274 18.9141 90.3685 18.9731 90.3135 19.0391C90.2705 19.0901 90.2295 19.1462 90.1885 19.2012C90.1365 19.2702 90.0854 19.3382 90.0364 19.4132C89.9964 19.4742 89.9595 19.5382 89.9215 19.6022C89.8765 19.6792 89.8314 19.7572 89.7894 19.8402C89.7534 19.9102 89.7205 19.9822 89.6865 20.0552C89.6475 20.1402 89.6094 20.2271 89.5734 20.3171C89.5424 20.3951 89.5124 20.4751 89.4834 20.5571C89.4504 20.6491 89.4194 20.7441 89.3904 20.8411C89.3644 20.9271 89.3384 21.0142 89.3144 21.1032C89.2874 21.2022 89.2635 21.3041 89.2405 21.4071C89.2195 21.5001 89.1984 21.5931 89.1794 21.6901C89.1594 21.7951 89.1414 21.9032 89.1244 22.0122C89.1084 22.1122 89.0924 22.2112 89.0794 22.3131C89.0654 22.4241 89.0544 22.5381 89.0434 22.6521C89.0334 22.7571 89.0224 22.8612 89.0154 22.9692C89.0074 23.0862 89.0044 23.2051 88.9994 23.3241C88.9954 23.4331 88.9894 23.5421 88.9884 23.6531C88.9874 23.7751 88.9914 23.9012 88.9934 24.0252C88.9954 24.1372 88.9954 24.2481 89.0004 24.3621C89.0064 24.4951 89.0184 24.6321 89.0284 24.7671C89.0364 24.8751 89.0414 24.9831 89.0514 25.0921C89.0744 25.3301 89.1044 25.5721 89.1394 25.8151C89.1404 25.8181 89.1404 25.8211 89.1404 25.8241C90.4554 25.5331 91.6954 24.9301 92.6574 24.0491Z" fill="white"/>
<path d="M85.0994 16.4311C84.7834 16.9371 84.9384 17.6031 85.4454 17.9191C85.6894 18.0711 85.9704 18.1141 86.2314 18.0611C86.5124 18.0041 86.7694 17.8361 86.9334 17.5731C87.6324 16.4511 88.5604 15.7861 89.7714 15.5401C91.4594 15.1971 92.8524 16.1741 92.8894 16.2001C93.1444 16.3881 93.4543 16.4431 93.7423 16.3851C93.9943 16.3341 94.2304 16.1971 94.3954 15.9751C94.7514 15.4961 94.6524 14.8201 94.1744 14.4631C94.1314 14.4311 93.6034 14.0461 92.7614 13.7291C91.8944 13.4021 90.6944 13.1471 89.3414 13.4231C87.5414 13.7891 86.1144 14.8001 85.0994 16.4311Z" fill="#2B0020"/>
<path d="M86.094 35.6792C86.094 35.6792 82.807 33.7672 82.656 35.0322C82.505 36.2962 85.424 38.0712 86.094 35.6792Z" fill="#DD800B"/>
</svg>
