<svg width="172" height="172" viewBox="0 0 172 172" fill="none" xmlns="http://www.w3.org/2000/svg">
<path d="M123.431 123.74C144.186 102.985 144.186 69.3349 123.431 48.5799C102.676 27.8249 69.0257 27.8249 48.2707 48.5799C27.5157 69.3349 27.5157 102.985 48.2707 123.74C69.0257 144.495 102.676 144.495 123.431 123.74Z" fill="#4AB6B8"/>
<path d="M98.182 111.829C92.212 106.402 79.187 106.402 74.302 111.829C68.629 118.042 63.899 125.063 60.042 132.622C67.685 136.877 76.486 139.305 85.855 139.305C96.851 139.305 107.067 135.965 115.545 130.245C110.617 123.545 104.611 117.581 98.182 111.829Z" fill="#F98C87"/>
<path d="M95.9197 123.533C89.9497 119.191 85.1057 119.734 79.6787 123.533C75.6007 126.252 71.3057 132.333 68.9297 136.549C74.2457 138.335 79.9367 139.306 85.8547 139.306C93.1357 139.306 100.07 137.834 106.388 135.185C104.075 132.133 99.3077 125.791 95.9197 123.533Z" fill="#F6CAA6"/>
<path opacity="0.2" d="M106.391 119.623C103.775 116.953 101.021 114.369 98.1823 111.829C92.2123 106.402 79.1872 106.402 74.3022 111.829C70.7332 115.738 67.5382 119.968 64.6982 124.449C87.7922 133.9 107.643 120.901 106.391 119.623Z" fill="black"/>
<path d="M79.6787 49.4659C79.6787 49.4659 73.9777 21.4419 49.6137 18.8769C25.2497 16.3119 -7.68733 42.0769 6.36967 59.7179C19.6417 76.3729 48.2247 35.4879 48.2247 35.4879C48.2247 35.4879 62.1037 36.2359 71.8987 52.0529L79.6787 49.4659Z" fill="#F98C87"/>
<path d="M52.6167 31.8647C50.9297 32.7077 49.4237 33.9287 48.3057 35.4927C49.3987 35.5777 62.5167 36.9037 71.8977 52.0517L75.7897 50.2307C73.7967 42.5847 70.9117 35.7217 64.3547 32.2087C60.7087 30.2557 56.3167 30.0157 52.6167 31.8647Z" fill="#F6CAA6"/>
<path d="M92.0303 49.4659C92.0303 49.4659 97.7313 21.4419 122.095 18.8769C146.459 16.3119 179.396 42.0769 165.339 59.7179C152.067 76.3729 123.484 35.4879 123.484 35.4879C123.484 35.4879 109.605 36.2359 99.8113 52.0529L92.0303 49.4659Z" fill="#F98C87"/>
<path d="M119.092 31.8647C120.779 32.7077 122.285 33.9287 123.403 35.4927C122.31 35.5777 109.192 36.9037 99.8109 52.0517L95.9189 50.2307C97.9109 42.5847 100.797 35.7217 107.354 32.2087C111 30.2557 115.392 30.0157 119.092 31.8647Z" fill="#F6CAA6"/>
<path d="M86.7851 96.6332C74.8451 89.0352 59.1061 85.2362 46.0811 90.1202C44.9161 90.5492 43.8381 91.1022 42.8311 91.7502C43.0361 110.583 59.5501 120.999 93.7691 116.217C108.183 114.203 127.056 110.297 128.865 91.8642C128.976 90.7332 128.977 89.5702 128.88 88.3852C114.34 84.7522 99.2001 88.1912 86.7851 96.6332Z" fill="#F6CAA6"/>
<path d="M88.7035 45.0026C73.7665 43.1936 45.6035 65.4776 43.0715 87.1696C42.8875 88.7486 42.8145 90.2726 42.8315 91.7506C43.8375 91.1026 44.9155 90.5496 46.0815 90.1206C59.1065 85.2356 74.8455 89.0346 86.7855 96.6336C99.1995 88.1916 114.34 84.7526 128.881 88.3856C127.399 70.2576 102.725 46.7006 88.7035 45.0026Z" fill="#F98C87"/>
<path d="M87.2366 97.0857C89.2766 96.5907 90.9246 94.0617 90.9246 94.0617C90.9246 94.0617 97.3356 94.6357 95.5576 90.5727C93.6586 86.2307 76.8796 88.5347 77.5136 91.9737C78.1476 95.4117 82.0556 93.9877 82.0556 93.9877C82.0556 93.9877 84.9506 97.6407 87.2366 97.0857Z" fill="#2B0020"/>
<path d="M87.7344 45.7522C87.7344 45.7522 91.3974 44.9382 90.8554 43.0382C90.3124 41.1392 88.0484 41.1002 86.6844 43.0382C86.6844 43.0382 89.5684 39.6462 86.6844 38.8322C83.8004 38.0182 84.0714 43.3092 84.0714 43.3092C84.0714 43.3092 83.5284 40.9912 82.1714 41.2002C80.8144 41.4092 80.4074 45.3442 82.1714 46.5652C83.9354 47.7882 87.7344 45.7522 87.7344 45.7522Z" fill="#F98C87"/>
<path d="M78.8701 105.22C78.7961 105.22 78.7231 105.219 78.6481 105.217C75.9911 105.143 73.6201 103.772 71.5991 101.143C71.1431 100.549 71.2541 99.6975 71.8481 99.2405C72.4431 98.7845 73.2941 98.8955 73.7511 99.4895C75.2501 101.439 76.9231 102.454 78.7241 102.504C82.3391 102.63 85.6251 98.9055 85.6571 98.8675C86.1451 98.3025 86.9951 98.2365 87.5631 98.7185C90.0931 100.865 92.5681 101.794 94.9211 101.472C98.5461 100.98 100.835 97.6705 100.857 97.6375C101.278 97.0185 102.121 96.8555 102.74 97.2745C103.36 97.6925 103.525 98.5315 103.109 99.1525C102.991 99.3285 100.153 103.485 95.3171 104.157C92.4881 104.552 89.6271 103.682 86.7951 101.574C85.3551 102.917 82.3741 105.22 78.8701 105.22Z" fill="#2B0020"/>
<path d="M77.9059 79.8529C77.9059 85.6599 75.4649 87.4069 72.4549 87.4069C69.4439 87.4069 67.0029 85.6589 67.0029 79.8529C67.0029 74.0469 69.4439 69.3389 72.4549 69.3389C75.4649 69.3399 77.9059 74.0469 77.9059 79.8529Z" fill="#2B0020"/>
<path d="M75.7772 71.5318C74.8572 70.1628 73.7062 69.3398 72.4542 69.3398C69.6352 69.3398 67.3172 73.4658 67.0322 78.7568C68.8392 78.7268 70.6362 78.2648 72.1422 77.3608C73.7362 76.1658 75.3242 73.9508 75.7772 71.5318Z" fill="white"/>
<path d="M106.524 79.8529C106.524 85.6599 104.083 87.4069 101.073 87.4069C98.0631 87.4069 95.6211 85.6589 95.6211 79.8529C95.6211 74.0469 98.0621 69.3389 101.073 69.3389C104.084 69.3389 106.524 74.0469 106.524 79.8529Z" fill="#2B0020"/>
<path d="M104.396 71.5318C103.475 70.1628 102.325 69.3398 101.073 69.3398C98.2544 69.3398 95.9364 73.4658 95.6514 78.7568C97.4584 78.7268 99.2554 78.2648 100.761 77.3608C102.355 76.1658 103.943 73.9508 104.396 71.5318Z" fill="white"/>
<path d="M66.8435 67.6495C66.5085 67.6495 66.1725 67.5265 65.9105 67.2785C65.3665 66.7635 65.3425 65.9046 65.8575 65.3605C67.6155 63.5025 69.7455 62.5605 72.1875 62.5605C75.8105 62.5605 78.1155 65.0905 78.2125 65.1975C78.7125 65.7555 78.6645 66.6135 78.1055 67.1135C77.5485 67.6115 76.6955 67.5656 76.1945 67.0126C76.1585 66.9746 74.5565 65.2735 72.1875 65.2735C70.4965 65.2735 69.0715 65.9115 67.8285 67.2245C67.5625 67.5075 67.2025 67.6495 66.8435 67.6495Z" fill="#2B0020"/>
<path d="M94.8591 67.6495C94.5241 67.6495 94.1881 67.5265 93.9261 67.2785C93.3821 66.7635 93.3581 65.9046 93.8731 65.3605C95.6311 63.5025 97.7611 62.5605 100.203 62.5605C103.825 62.5605 106.13 65.0905 106.227 65.1975C106.727 65.7555 106.679 66.6135 106.12 67.1135C105.563 67.6115 104.709 67.5656 104.209 67.0126C104.173 66.9746 102.571 65.2735 100.202 65.2735C98.5111 65.2735 97.0851 65.9115 95.8431 67.2245C95.5771 67.5075 95.2181 67.6495 94.8591 67.6495Z" fill="#2B0020"/>
</svg>
