<svg width="172" height="172" viewBox="0 0 172 172" fill="none" xmlns="http://www.w3.org/2000/svg">
<path d="M60.7225 31.8659C60.7225 31.8659 54.0945 29.1639 51.7425 31.8659C49.3905 34.5679 55.6025 37.0259 55.6025 37.0259C55.6025 37.0259 43.9635 36.9199 42.3345 39.9949C40.7065 43.0709 48.1235 43.1439 48.1235 43.1439C48.1235 43.1439 38.5355 45.0609 36.9075 48.6789C35.2795 52.2969 41.2495 51.5739 41.2495 51.5739C41.2495 51.5739 29.8525 56.0969 30.0335 61.5239C30.2145 66.9509 36.1845 62.4279 36.1845 62.4279C36.1845 62.4279 29.4865 67.7649 30.0315 71.3379C30.5765 74.9109 33.3795 73.8259 33.3795 73.8259C33.3795 73.8259 28.5865 81.0619 31.6615 85.5849C34.7365 90.1079 47.4005 84.2499 47.4005 84.2499C47.4005 84.2499 92.3155 37.6659 60.7225 31.8659Z" fill="#2B0020"/>
<path d="M84.2709 33.2617C55.9659 34.4447 33.3799 57.7617 33.3799 86.3577C33.3799 115.71 57.1749 139.505 86.5269 139.505C93.9009 139.505 100.924 138.002 107.307 135.288C79.2829 111.955 72.3429 68.0667 84.2709 33.2617Z" fill="#9F3423"/>
<path d="M139.674 86.3579C139.674 57.0059 115.879 33.2109 86.5269 33.2109C85.7709 33.2109 85.019 33.2309 84.271 33.2619C72.343 68.0669 79.283 111.955 107.308 135.288C126.333 127.197 139.674 108.336 139.674 86.3579Z" fill="#E39635"/>
<path d="M152.607 105.923C152.607 105.923 161.025 100.156 157.02 81.9068C156.789 80.8528 155.34 80.7018 154.906 81.6898C153.408 85.0958 147.028 94.1528 138.93 95.9878C125.715 98.9818 133.205 120.312 152.607 105.923Z" fill="#F6DB99"/>
<path d="M68.0744 37.6216C71.3794 33.0776 88.0934 30.3736 99.1374 33.8246C110.182 37.2756 99.1374 72.4806 125.713 81.1096C152.289 89.7386 154.015 102.509 150.564 108.032C147.113 113.554 95.6854 133.055 75.6674 100.611C55.6494 68.1666 65.3134 41.4176 68.0744 37.6216Z" fill="#AA4529"/>
<path d="M83.7633 110.862C83.7633 110.862 64.4963 113.127 60.4263 99.1519C56.3563 85.1769 68.5673 71.3369 68.5673 71.3369C68.5673 71.3369 98.8233 106.291 83.7633 110.862Z" fill="#AA4529"/>
<path d="M127.192 116.933C127.192 116.933 144.352 116.315 150.565 108.032C156.778 99.7477 142.972 77.2037 135.723 75.0157C128.475 72.8267 105.545 115.135 127.192 116.933Z" fill="#F98C87"/>
<path d="M103.043 116.157C103.043 116.157 113.919 111.724 113.866 90.2188C113.863 88.9768 112.271 88.4538 111.541 89.4588C109.025 92.9248 99.6386 101.556 90.0816 101.644C74.4866 101.787 77.7076 127.608 103.043 116.157Z" fill="#F6DB99"/>
<path d="M97.3939 35.5349C98.0769 32.8689 101.379 23.5479 114.186 23.3009C114.634 23.2919 114.982 23.6919 114.918 24.1359C114.43 27.5259 111.694 39.8759 97.9219 36.4219C97.5319 36.3249 97.2939 35.9249 97.3939 35.5349Z" fill="#AA4529"/>
<path d="M100.684 33.3071C101.135 31.6731 102.796 28.1781 108.845 26.9271C109.366 26.8191 109.851 27.2421 109.803 27.7721C109.598 30.0351 108.367 35.1971 101.355 34.3011C100.877 34.2401 100.556 33.7721 100.684 33.3071Z" fill="#F98C87"/>
<path d="M78.0228 33.8627C78.0228 33.8627 86.1948 31.7537 89.4738 43.1437C89.4738 43.1437 96.6828 40.9287 96.5498 37.0257C96.4168 33.1227 92.5808 38.1297 92.5808 38.1297C92.5808 38.1297 97.2408 29.6607 94.6518 26.9107C92.0628 24.1607 90.1648 29.3377 90.1648 29.3377C90.1648 29.3377 88.0938 21.0537 84.6428 22.0897C81.1908 23.1257 83.2618 28.1187 83.2618 28.1187C83.2618 28.1187 77.2218 22.2687 74.4608 23.3007C71.6998 24.3327 76.5318 28.1187 76.5318 28.1187C76.5318 28.1187 67.5268 24.1387 65.2988 28.1187C63.0708 32.0987 69.8018 35.6127 69.8018 35.6127C69.8018 35.6127 73.9928 34.0737 78.0228 33.8627Z" fill="#2B0020"/>
<path d="M73.1341 36.7439C72.4511 34.0779 69.1492 24.7569 56.3422 24.5099C55.8942 24.5009 55.5461 24.9009 55.6101 25.3449C56.0971 28.7349 58.8341 41.0839 72.6061 37.6309C72.9961 37.5329 73.2341 37.1329 73.1341 36.7439Z" fill="#AA4529"/>
<path d="M69.844 34.5151C69.393 32.8811 67.732 29.3861 61.683 28.1351C61.162 28.0271 60.677 28.4501 60.725 28.9801C60.93 31.2431 62.161 36.4051 69.173 35.5081C69.651 35.4481 69.972 34.9801 69.844 34.5151Z" fill="#F98C87"/>
<path d="M128.628 107.474C132.056 107.637 135.216 93.6761 132.284 91.1681C129.351 88.6591 117.23 106.931 128.628 107.474Z" fill="#F87671"/>
<path d="M146.537 104.007C149.487 101.789 143.308 89.2693 140.957 90.2653C138.605 91.2603 138.397 110.128 146.537 104.007Z" fill="#F87671"/>
<path d="M82.383 68.9095C82.383 65.7445 81.603 62.9385 80.397 61.1445C79.974 63.4015 78.492 65.4685 77.005 66.5835C75.6 67.4265 73.922 67.8585 72.236 67.8865C72.236 67.8825 72.237 67.8795 72.237 67.8755C72.218 68.2155 72.208 68.5605 72.208 68.9105C72.208 74.3285 74.486 75.9595 77.295 75.9595C80.104 75.9595 82.383 74.3275 82.383 68.9095Z" fill="#2B0020"/>
<path d="M77.0044 66.5837C78.4914 65.4687 79.9734 63.4017 80.3964 61.1447C79.9954 60.5487 79.5474 60.0697 79.0654 59.7217C79.0144 59.6847 78.9644 59.6477 78.9124 59.6137C78.8324 59.5617 78.7514 59.5157 78.6694 59.4717C78.5964 59.4317 78.5224 59.3957 78.4484 59.3617C78.3774 59.3297 78.3064 59.2987 78.2344 59.2727C78.1394 59.2387 78.0434 59.2117 77.9464 59.1877C77.8894 59.1737 77.8324 59.1557 77.7744 59.1447C77.6164 59.1157 77.4574 59.0977 77.2954 59.0977C77.1254 59.0977 76.9574 59.1157 76.7914 59.1467C76.7354 59.1577 76.6814 59.1787 76.6254 59.1927C76.5164 59.2207 76.4074 59.2477 76.3004 59.2877C76.2364 59.3127 76.1734 59.3467 76.1094 59.3767C76.0144 59.4207 75.9194 59.4627 75.8264 59.5167C75.7604 59.5547 75.6954 59.6017 75.6304 59.6457C75.5434 59.7037 75.4564 59.7617 75.3714 59.8277C75.3054 59.8797 75.2414 59.9387 75.1764 59.9957C75.0964 60.0667 75.0154 60.1387 74.9374 60.2177C74.8734 60.2827 74.8114 60.3527 74.7484 60.4227C74.6734 60.5067 74.5994 60.5917 74.5274 60.6817C74.4664 60.7587 74.4064 60.8397 74.3464 60.9217C74.2774 61.0167 74.2094 61.1137 74.1424 61.2157C74.0844 61.3037 74.0274 61.3947 73.9724 61.4877C73.9084 61.5937 73.8474 61.7017 73.7864 61.8137C73.7324 61.9127 73.6794 62.0137 73.6274 62.1177C73.5704 62.2327 73.5144 62.3517 73.4604 62.4727C73.4114 62.5827 73.3614 62.6927 73.3144 62.8057C73.2634 62.9297 73.2144 63.0577 73.1664 63.1867C73.1224 63.3057 73.0774 63.4237 73.0354 63.5467C72.9904 63.6797 72.9484 63.8167 72.9064 63.9547C72.8674 64.0817 72.8284 64.2077 72.7924 64.3377C72.7534 64.4797 72.7194 64.6257 72.6844 64.7717C72.6524 64.9047 72.6184 65.0367 72.5894 65.1737C72.5574 65.3247 72.5304 65.4807 72.5014 65.6357C72.4764 65.7737 72.4484 65.9097 72.4264 66.0507C72.4004 66.2167 72.3804 66.3867 72.3594 66.5557C72.3424 66.6917 72.3214 66.8247 72.3064 66.9617C72.2754 67.2607 72.2514 67.5647 72.2344 67.8737C72.2344 67.8777 72.2334 67.8817 72.2334 67.8847C73.9214 67.8587 75.5994 67.4267 77.0044 66.5837Z" fill="white"/>
<path d="M71.4766 56.39C70.9616 56.934 70.9856 57.793 71.5296 58.308C71.7916 58.556 72.1276 58.679 72.4616 58.679C72.8216 58.679 73.1806 58.537 73.4476 58.254C74.5886 57.048 75.8976 56.4621 77.4496 56.4621C79.6176 56.4621 81.0886 58.019 81.1226 58.055C81.6226 58.607 82.4756 58.653 83.0326 58.155C83.5906 57.655 83.6386 56.797 83.1386 56.239C83.0476 56.137 80.8706 53.748 77.4496 53.748C75.1446 53.749 73.1346 54.637 71.4766 56.39Z" fill="#9F3423"/>
<path d="M103.814 64.5454C102.409 65.3884 100.731 65.8204 99.0446 65.8484C99.0446 65.8444 99.0456 65.8404 99.0456 65.8364C99.0276 66.1764 99.0166 66.5214 99.0166 66.8714C99.0166 72.2904 101.295 73.9204 104.104 73.9204C106.913 73.9204 109.191 72.2894 109.191 66.8714C109.191 63.7064 108.411 60.9004 107.205 59.1064C106.783 61.3624 105.301 63.4294 103.814 64.5454Z" fill="#2B0020"/>
<path d="M103.814 64.5446C105.301 63.4296 106.783 61.3626 107.206 59.1056L107.205 59.1046C106.805 58.5096 106.357 58.0306 105.875 57.6836C105.824 57.6466 105.773 57.6086 105.721 57.5746C105.641 57.5226 105.56 57.4766 105.478 57.4326C105.405 57.3926 105.331 57.3566 105.257 57.3226C105.186 57.2906 105.115 57.2606 105.043 57.2336C104.948 57.1986 104.852 57.1726 104.755 57.1486C104.698 57.1346 104.641 57.1166 104.583 57.1066C104.425 57.0776 104.266 57.0596 104.104 57.0596C103.934 57.0596 103.766 57.0776 103.6 57.1086C103.545 57.1186 103.491 57.1396 103.436 57.1536C103.326 57.1816 103.217 57.2086 103.11 57.2496C103.046 57.2746 102.983 57.3086 102.92 57.3376C102.825 57.3816 102.729 57.4246 102.636 57.4786C102.57 57.5166 102.506 57.5636 102.441 57.6076C102.354 57.6656 102.267 57.7236 102.182 57.7906C102.116 57.8426 102.052 57.9016 101.988 57.9586C101.907 58.0306 101.827 58.1016 101.749 58.1816C101.685 58.2466 101.623 58.3166 101.56 58.3856C101.485 58.4696 101.411 58.5546 101.339 58.6456C101.278 58.7226 101.218 58.8036 101.158 58.8846C101.089 58.9796 101.021 59.0776 100.954 59.1786C100.896 59.2666 100.84 59.3576 100.784 59.4506C100.721 59.5566 100.659 59.6646 100.598 59.7766C100.544 59.8756 100.491 59.9766 100.439 60.0806C100.381 60.1966 100.326 60.3146 100.272 60.4356C100.223 60.5446 100.174 60.6546 100.127 60.7686C100.076 60.8926 100.027 61.0216 99.9789 61.1506C99.9349 61.2696 99.8899 61.3876 99.8489 61.5096C99.8039 61.6426 99.7619 61.7806 99.7199 61.9176C99.6809 62.0446 99.6419 62.1696 99.6059 62.3006C99.5669 62.4416 99.5329 62.5886 99.4979 62.7336C99.4659 62.8676 99.4319 62.9996 99.4019 63.1366C99.3699 63.2866 99.3429 63.4416 99.3149 63.5956C99.2899 63.7346 99.2619 63.8706 99.2389 64.0126C99.2129 64.1776 99.1929 64.3486 99.1719 64.5176C99.1549 64.6536 99.1339 64.7866 99.1199 64.9236C99.0889 65.2226 99.0649 65.5266 99.0479 65.8356C99.0479 65.8396 99.0469 65.8436 99.0469 65.8476C100.732 65.8186 102.409 65.3876 103.814 64.5446Z" fill="white"/>
<path d="M98.2852 54.35C97.7702 54.894 97.7942 55.753 98.3382 56.268C98.6002 56.516 98.9362 56.639 99.2702 56.639C99.6302 56.639 99.9892 56.497 100.256 56.215C101.397 55.009 102.706 54.423 104.258 54.423C106.422 54.423 107.891 55.974 107.93 56.016C108.197 56.311 108.564 56.457 108.933 56.457C109.256 56.458 109.58 56.348 109.84 56.116C110.398 55.616 110.446 54.759 109.947 54.2C109.902 54.15 109.349 53.544 108.391 52.943C107.406 52.324 105.993 51.709 104.258 51.709C101.953 51.709 99.9432 52.598 98.2852 54.35Z" fill="#9F3423"/>
</svg>
