<svg width="172" height="172" viewBox="0 0 172 172" fill="none" xmlns="http://www.w3.org/2000/svg">
<path d="M86.147 140.192C115.499 140.192 139.294 116.398 139.294 87.0454C139.294 57.6932 115.499 33.8984 86.147 33.8984C56.7947 33.8984 33 57.6932 33 87.0454C33 116.398 56.7947 140.192 86.147 140.192Z" fill="#4AB6B8"/>
<path d="M96.9406 113.397C91.3006 107.628 78.2976 106.861 73.1026 111.991C67.0736 117.859 61.9386 124.59 57.6426 131.908C65.0226 136.606 73.6646 139.547 83.0176 140.099C93.9946 140.746 104.39 138.014 113.19 132.802C108.665 125.824 103.02 119.518 96.9406 113.397Z" fill="#E38027"/>
<path d="M93.9942 124.947C88.2902 120.261 83.4222 120.518 77.7812 123.991C73.5502 126.465 68.9042 132.282 66.2852 136.352C71.4872 138.448 77.1102 139.752 83.0182 140.101C90.2862 140.53 97.2952 139.469 103.758 137.196C101.629 134.013 97.2432 127.401 93.9942 124.947Z" fill="#F6CAA6"/>
<path opacity="0.2" d="M104.677 121.661C102.223 118.842 99.6264 116.1 96.9414 113.397C91.3014 107.628 78.2984 106.861 73.1034 111.991C69.3104 115.683 65.8724 119.717 62.7734 124.024C85.2714 134.818 105.852 123.01 104.677 121.661Z" fill="black"/>
<path d="M110.988 42.0518C110.988 42.0518 129.181 35.8618 127.334 28.9468C125.487 22.0318 113.074 16.6128 108.368 20.0748C103.662 23.5368 104.565 37.7499 104.565 37.7499L110.988 42.0518Z" fill="#2B0020"/>
<path d="M110.964 39.441C110.964 39.441 120.598 34.3751 120.748 31.2141C120.898 28.0531 116.232 24.29 113.673 24.29C111.114 24.29 107.501 36.2451 107.501 36.2451L110.964 39.441Z" fill="#F6CAA6"/>
<path d="M62.4943 42.0518C62.4943 42.0518 44.3013 35.8618 46.1483 28.9468C47.9953 22.0318 60.4083 16.6128 65.1143 20.0748C69.8203 23.5368 68.9173 37.7499 68.9173 37.7499L62.4943 42.0518Z" fill="#2B0020"/>
<path d="M62.518 39.441C62.518 39.441 52.885 34.3751 52.734 31.2141C52.583 28.0531 57.25 24.29 59.809 24.29C62.368 24.29 65.98 36.2451 65.98 36.2451L62.518 39.441Z" fill="#F6CAA6"/>
<path d="M136.408 78.6927C136.408 107.096 113.909 111.734 86.1563 111.734C58.4023 111.734 35.9043 107.095 35.9043 78.6927C35.9043 50.2907 66.4673 27.2646 86.1563 27.2646C105.258 27.2646 136.408 50.2897 136.408 78.6927Z" fill="#E38027"/>
<path d="M130.531 83.6873C130.531 109.708 110.664 113.958 86.1563 113.958C61.6493 113.958 41.7812 109.708 41.7812 83.6873C41.7812 57.6663 68.7693 36.5713 86.1563 36.5713C103.024 36.5713 130.531 57.6663 130.531 83.6873Z" fill="#F6CAA6"/>
<path opacity="0.32" d="M53.2419 76.3416C47.1849 78.2686 41.3869 82.0016 36.6309 86.8746C40.6909 108.016 61.3169 111.734 86.1559 111.734C110.952 111.734 131.55 108.029 135.66 86.9846C114.004 68.6366 79.6519 68.3246 53.2419 76.3416Z" fill="black"/>
<path d="M127.593 104.076C127.593 117.229 109.042 119.438 86.1567 119.438C63.2727 119.438 44.7207 117.229 44.7207 104.076C44.7207 90.9228 63.2727 80.2598 86.1567 80.2598C109.042 80.2598 127.593 90.9228 127.593 104.076Z" fill="#F6CAA6"/>
<path d="M103.777 82.516C103.777 82.516 97.9112 29.1259 91.8382 27.2649C85.7652 25.4039 81.2552 26.1749 77.9262 28.9239C74.5972 31.6729 68.9162 80.7529 69.5042 83.5909C70.0912 86.4289 99.0642 90.062 103.777 82.516Z" fill="#E36127"/>
<path d="M103.778 88.0971C105.848 85.7591 107.512 82.0241 99.6747 80.2601C91.8377 78.4971 72.7717 79.5781 69.4727 82.2701C66.1737 84.9621 69.2297 89.7991 71.4627 89.8601C76.8997 90.0071 77.7317 86.7251 80.2787 89.8601C82.8257 92.9951 84.6867 95.1991 87.6257 94.8081C90.5647 94.4161 92.8177 88.8811 95.5607 88.6851C98.3037 88.4891 102.362 89.6961 103.778 88.0971Z" fill="#2B0020"/>
<path d="M134.426 91.5359L123.589 80.0329C123.073 79.4849 123.529 78.5929 124.275 78.6899L136.383 80.2599C136.383 80.2599 136.066 87.8289 134.426 91.5359Z" fill="#2B0020"/>
<path d="M133.781 64.3855H125.003C124.378 64.3855 123.994 63.7015 124.319 63.1675L129.217 55.1465C129.217 55.1465 132.619 60.7745 133.781 64.3855Z" fill="#2B0020"/>
<path d="M122.052 45.8892L114.476 50.6122C113.866 50.9922 113.102 50.4382 113.275 49.7402L115.699 39.9502C115.699 39.9502 119.225 42.6672 122.052 45.8892Z" fill="#2B0020"/>
<path d="M37.8613 91.5359L48.6983 80.0329C49.2143 79.4849 48.7583 78.5929 48.0123 78.6899L35.9043 80.2599C35.9043 80.2599 36.2213 87.8289 37.8613 91.5359Z" fill="#2B0020"/>
<path d="M38.5059 64.3855H47.2839C47.9089 64.3855 48.2929 63.7015 47.9679 63.1675L43.0699 55.1465C43.0699 55.1465 39.6679 60.7745 38.5059 64.3855Z" fill="#2B0020"/>
<path d="M50.2354 45.8892L57.8114 50.6122C58.4214 50.9922 59.1854 50.4382 59.0124 49.7402L56.5884 39.9502C56.5884 39.9502 53.0614 42.6672 50.2354 45.8892Z" fill="#2B0020"/>
<path d="M66.8481 71.7655C66.8481 68.3385 66.0031 65.2985 64.6971 63.3555C64.2391 65.7995 62.6341 68.0385 61.0241 69.2465C59.5021 70.1595 57.6861 70.6275 55.8601 70.6575C55.8601 70.6535 55.8611 70.6495 55.8611 70.6455C55.8411 71.0135 55.8301 71.3875 55.8301 71.7655C55.8301 77.6335 58.2961 79.3995 61.3391 79.3995C64.3821 79.3995 66.8481 77.6335 66.8481 71.7655Z" fill="#2B0020"/>
<path d="M61.0244 69.2476C62.6344 68.0396 64.2394 65.8016 64.6974 63.3566L64.6964 63.3556C64.2624 62.7106 63.7764 62.1916 63.2554 61.8156C63.2004 61.7756 63.1454 61.7346 63.0894 61.6986C63.0024 61.6426 62.9144 61.5926 62.8264 61.5446C62.7474 61.5016 62.6674 61.4626 62.5864 61.4256C62.5094 61.3906 62.4324 61.3576 62.3544 61.3296C62.2514 61.2926 62.1474 61.2646 62.0434 61.2376C61.9814 61.2216 61.9194 61.2026 61.8564 61.1916C61.6854 61.1606 61.5134 61.1406 61.3384 61.1406C61.1544 61.1406 60.9724 61.1596 60.7924 61.1936C60.7314 61.2056 60.6734 61.2276 60.6134 61.2426C60.4954 61.2726 60.3774 61.3016 60.2624 61.3456C60.1924 61.3726 60.1244 61.4096 60.0554 61.4416C59.9524 61.4886 59.8494 61.5356 59.7484 61.5936C59.6764 61.6356 59.6074 61.6856 59.5364 61.7336C59.4424 61.7966 59.3484 61.8586 59.2564 61.9316C59.1844 61.9886 59.1154 62.0516 59.0454 62.1136C58.9584 62.1906 58.8714 62.2686 58.7864 62.3536C58.7174 62.4236 58.6494 62.4996 58.5814 62.5756C58.5004 62.6666 58.4204 62.7586 58.3414 62.8566C58.2754 62.9396 58.2104 63.0276 58.1454 63.1156C58.0704 63.2186 57.9974 63.3236 57.9244 63.4336C57.8614 63.5296 57.8004 63.6276 57.7394 63.7286C57.6704 63.8436 57.6034 63.9606 57.5384 64.0816C57.4804 64.1886 57.4224 64.2986 57.3664 64.4106C57.3044 64.5356 57.2444 64.6636 57.1854 64.7946C57.1314 64.9136 57.0784 65.0326 57.0274 65.1556C56.9714 65.2906 56.9194 65.4286 56.8674 65.5686C56.8194 65.6976 56.7714 65.8256 56.7264 65.9586C56.6774 66.1026 56.6324 66.2516 56.5874 66.4006C56.5454 66.5376 56.5034 66.6736 56.4644 66.8156C56.4224 66.9696 56.3854 67.1276 56.3474 67.2856C56.3124 67.4296 56.2764 67.5726 56.2444 67.7206C56.2094 67.8846 56.1804 68.0526 56.1494 68.2206C56.1214 68.3706 56.0914 68.5176 56.0674 68.6706C56.0394 68.8496 56.0184 69.0346 55.9944 69.2176C55.9754 69.3646 55.9534 69.5086 55.9374 69.6576C55.9034 69.9816 55.8774 70.3106 55.8594 70.6446C55.8594 70.6486 55.8584 70.6526 55.8584 70.6566C57.6864 70.6276 59.5024 70.1606 61.0244 69.2476Z" fill="white"/>
<path d="M55.0379 58.2067C54.4799 58.7967 54.5059 59.7257 55.0949 60.2837C55.3789 60.5527 55.7419 60.6857 56.1049 60.6857C56.4949 60.6857 56.8839 60.5317 57.1729 60.2257C58.4089 58.9197 59.8269 58.2847 61.5069 58.2847C63.8549 58.2847 65.4479 59.9707 65.4839 60.0097C66.0259 60.6077 66.9499 60.6567 67.5529 60.1177C68.1579 59.5767 68.2089 58.6477 67.6679 58.0427C67.5699 57.9327 65.2119 55.3447 61.5069 55.3447C59.0099 55.3467 56.8329 56.3087 55.0379 58.2067Z" fill="#E36127"/>
<path d="M110.166 68.848C108.644 69.761 106.828 70.229 105.002 70.259C105.002 70.255 105.003 70.251 105.003 70.247C104.983 70.615 104.972 70.989 104.972 71.367C104.972 77.235 107.439 79.001 110.481 79.001C113.524 79.001 115.99 77.235 115.99 71.367C115.99 67.94 115.145 64.9 113.839 62.958C113.38 65.402 111.776 67.64 110.166 68.848Z" fill="#2B0020"/>
<path d="M110.166 68.8482C111.777 67.6402 113.381 65.4012 113.839 62.9572L113.838 62.9562C113.404 62.3112 112.919 61.7932 112.398 61.4162C112.343 61.3762 112.288 61.3352 112.231 61.2982C112.145 61.2422 112.056 61.1922 111.968 61.1442C111.889 61.1012 111.809 61.0622 111.728 61.0252C111.651 60.9902 111.574 60.9572 111.496 60.9292C111.393 60.8922 111.289 60.8632 111.184 60.8372C111.122 60.8212 111.06 60.8022 110.998 60.7912C110.827 60.7602 110.655 60.7402 110.48 60.7402C110.296 60.7402 110.114 60.7592 109.934 60.7932C109.874 60.8042 109.816 60.8272 109.757 60.8422C109.638 60.8722 109.52 60.9022 109.403 60.9462C109.333 60.9732 109.266 61.0102 109.197 61.0412C109.094 61.0892 108.99 61.1352 108.889 61.1932C108.817 61.2352 108.748 61.2852 108.678 61.3322C108.584 61.3952 108.489 61.4582 108.397 61.5302C108.326 61.5862 108.256 61.6502 108.187 61.7122C108.1 61.7892 108.013 61.8672 107.928 61.9532C107.859 62.0232 107.791 62.0992 107.724 62.1742C107.643 62.2652 107.562 62.3572 107.484 62.4552C107.418 62.5382 107.353 62.6262 107.288 62.7142C107.213 62.8172 107.139 62.9232 107.067 63.0332C107.004 63.1292 106.943 63.2272 106.882 63.3282C106.813 63.4422 106.747 63.5602 106.681 63.6812C106.623 63.7882 106.565 63.8972 106.509 64.0102C106.447 64.1352 106.387 64.2642 106.328 64.3952C106.275 64.5132 106.222 64.6322 106.171 64.7552C106.115 64.8902 106.063 65.0292 106.011 65.1692C105.963 65.2972 105.915 65.4262 105.87 65.5582C105.821 65.7022 105.776 65.8512 105.731 66.0002C105.689 66.1372 105.647 66.2732 105.608 66.4142C105.566 66.5672 105.529 66.7262 105.491 66.8832C105.456 67.0282 105.419 67.1712 105.387 67.3192C105.352 67.4822 105.323 67.6502 105.293 67.8162C105.265 67.9662 105.235 68.1142 105.211 68.2682C105.183 68.4472 105.162 68.6322 105.138 68.8152C105.119 68.9622 105.097 69.1062 105.081 69.2552C105.047 69.5792 105.021 69.9092 105.003 70.2422C105.003 70.2462 105.002 70.2502 105.002 70.2542C106.827 70.2292 108.644 69.7612 110.166 68.8482Z" fill="white"/>
<path d="M104.179 57.8083C103.621 58.3983 103.647 59.3273 104.236 59.8853C104.52 60.1543 104.883 60.2873 105.246 60.2873C105.636 60.2873 106.025 60.1333 106.314 59.8273C107.55 58.5213 108.968 57.8863 110.648 57.8863C112.991 57.8863 114.583 59.5663 114.625 59.6113C114.914 59.9313 115.312 60.0893 115.712 60.0893C116.062 60.0903 116.413 59.9713 116.694 59.7203C117.299 59.1793 117.35 58.2503 116.809 57.6453C116.76 57.5913 116.161 56.9353 115.124 56.2833C114.057 55.6133 112.527 54.9473 110.647 54.9473C108.151 54.9483 105.975 55.9103 104.179 57.8083Z" fill="#E36127"/>
<path d="M94.5206 108.166C91.8876 108.166 89.3086 107.084 86.8356 104.942C85.2686 106.201 82.0286 108.343 78.4426 107.975C75.7986 107.705 73.5346 106.164 71.7136 103.393C71.3016 102.767 71.4756 101.925 72.1026 101.514C72.7276 101.102 73.5686 101.276 73.9816 101.902C75.3336 103.957 76.9266 105.092 78.7186 105.275C82.3076 105.646 85.8666 102.194 85.9016 102.159C86.4286 101.632 87.2816 101.628 87.8136 102.151C90.1776 104.478 92.5726 105.585 94.9486 105.439C98.5996 105.215 101.126 102.083 101.152 102.051C101.617 101.465 102.471 101.365 103.056 101.827C103.643 102.29 103.746 103.139 103.285 103.727C103.154 103.895 100.018 107.83 95.1446 108.145C94.9356 108.159 94.7276 108.166 94.5206 108.166Z" fill="#2B0020"/>
<path d="M86.8589 104.475C86.1089 104.475 85.502 103.868 85.502 103.118V90.772C85.502 90.023 86.1089 89.415 86.8589 89.415C87.6079 89.415 88.216 90.022 88.216 90.772V103.118C88.216 103.868 87.6079 104.475 86.8589 104.475Z" fill="#2B0020"/>
</svg>
