<svg width="604" height="453" viewBox="0 0 604 453" fill="none" xmlns="http://www.w3.org/2000/svg">
<g clip-path="url(#clip0_23_235)">
<path fill-rule="evenodd" clip-rule="evenodd" d="M323.665 2.33949C313.047 6.42542 304.432 19.1574 304.432 30.7652C304.432 36.7199 308.772 46.6359 313.409 51.2772C326.42 64.2997 344.676 64.4867 357.422 51.7291C381.071 28.0594 355.197 -9.79366 323.665 2.33949ZM350.185 8.4556C359.395 14.8433 363.61 25.5818 361.178 36.4606C360.032 41.5827 358.768 43.7042 354.035 48.4412C332.695 69.8003 299.228 45.386 312.377 18.0533C318.512 5.30016 338.369 0.259247 350.185 8.4556ZM172.57 7.05652C171.905 8.79062 176.026 24.4053 177.551 25.9313C179.041 27.4227 181.179 25.7309 180.558 23.555C175.339 5.27122 174.175 2.8693 172.57 7.05652ZM207.686 18.3382C207.686 23.5594 222.219 86.6315 224.904 93.0648C226.047 95.8029 228.447 97.793 234.841 101.306C239.477 103.852 243.271 106.376 243.271 106.914C243.271 107.452 240.512 109.244 237.139 110.897C231.958 113.437 231.117 114.261 231.713 116.218C232.101 117.493 235.831 128.802 240 141.351C248.495 166.92 245.931 163.145 266.555 180.45C272.328 185.294 277.551 189.09 278.161 188.887C281.192 187.876 279.023 185.192 266.959 175.023C259.741 168.939 253.252 163.256 252.54 162.396C251.359 160.966 236.598 118.602 236.598 116.642C236.598 115.477 245.334 111.085 249.303 110.253C254.978 109.066 253.654 107.345 241.564 100.198C233.648 95.5191 229.425 92.3169 228.72 90.4603C225.426 81.7876 215.038 35.8195 215.67 32.7074C216.446 28.8853 238.322 64.5301 251.609 91.2651C277.062 142.482 288.774 182.23 302.235 263.065C307.191 292.828 307.284 293.837 305.076 293.837C303.21 293.837 303.321 294.333 298.319 263.785C294.862 242.676 289.248 211.609 287.157 202.012C286.265 197.921 280.723 194.149 268.427 189.263C263.608 187.349 258.162 185.003 256.322 184.052C252.27 181.955 252.145 180.979 258.679 202.344C261.17 210.485 263.523 218.833 263.909 220.893C265.002 226.722 272.986 232.41 285.096 235.982C289.669 237.333 289.669 237.333 293.805 263.08C299.034 295.622 299.259 296.488 302.894 298.146C305.285 299.236 306.298 299.162 308.461 297.744C311.953 295.455 311.894 293.857 307.284 265.543C305.183 252.639 303.311 240.763 303.124 239.151C302.863 236.9 304.067 234.903 308.334 230.514C317.298 221.296 322.224 212.259 322.224 205.033C322.224 201.714 322.782 191.761 323.462 182.915C324.143 174.069 324.396 166.528 324.025 166.156C323.654 165.785 322.45 166.438 321.35 167.608C315.824 173.482 308.853 179.54 308.281 178.965C307.925 178.609 309.732 170.126 312.296 160.113C316.958 141.908 316.958 141.908 314.435 131.334C310.871 116.405 305.117 100.302 298.808 87.5999C284.994 59.7841 272.544 49.0934 224.206 23.5372C210.884 16.4939 207.686 15.4877 207.686 18.3382ZM274.024 19.8408C270.446 23.7965 273.463 31.1614 278.662 31.1614C281.157 31.1614 285.528 26.6882 285.528 24.1338C285.528 18.9515 277.527 15.9663 274.024 19.8408ZM280.844 24.3319C280.33 26.9987 276.631 27.366 276.631 24.7504C276.631 23.5828 276.93 22.3284 277.296 21.9633C278.523 20.7345 281.193 22.5176 280.844 24.3319ZM66.7541 31.3128C42.3262 57.0516 31.9854 68.4635 31.9854 69.6823C31.9854 71.3396 54.4662 89.3239 87.6335 114.202C114.506 134.357 123.199 140.565 158.926 165.101C171.556 173.777 187.268 185.381 193.839 190.887C200.41 196.393 206.44 201.382 207.239 201.973C210.823 204.622 209.8 200.586 204.079 189.5C198.074 177.866 193.421 163.167 194.692 159.853C195.539 157.641 198.751 158.628 203.53 162.571C207.663 165.982 213.966 177.371 222.129 196.18C227.005 207.416 228.245 209.148 230.095 207.296C231.496 205.894 217.84 174.656 211.999 165.902C208.979 161.374 206.084 158.63 201.889 156.317C196.009 153.076 196.009 153.076 202.673 151.914C206.98 151.162 209.445 150.172 209.646 149.113C209.817 148.211 207.275 142.955 203.998 137.435C194.438 121.331 185.584 100.677 178.653 78.3083C176.534 71.472 176.534 71.472 165.693 66.0649C159.731 63.0898 146.419 56.2068 136.111 50.7697C121.267 42.9373 117.169 41.2021 116.399 42.422C115.081 44.5145 116.188 45.2457 137.628 56.4294C177.138 77.0383 172.531 73.4588 177.03 87.0333C184.227 108.75 192.758 127.945 200.973 140.912C205.452 147.978 205.31 148.405 198.703 147.77C191.737 147.1 190.815 148.724 190.894 161.532C190.942 169.404 192.36 175.028 197.124 186.252C197.613 187.406 194.742 185.705 190.548 182.357C186.454 179.088 172.497 169.061 159.532 160.077C119.01 131.996 113.335 127.936 87.619 108.634C56.3655 85.1757 37.3799 70.0385 37.788 68.9043C38.6242 66.5847 76.8913 26.7093 78.2813 26.7093C79.161 26.7093 81.0536 27.4784 82.487 28.4189C84.73 29.8892 85.1804 29.9048 85.7086 28.5269C86.6916 25.9613 84.0116 23.3724 79.638 22.6612C75.7259 22.0268 75.29 22.3195 66.7541 31.3128ZM500.605 37.7517C478.524 54.0286 477.698 54.7488 478.929 56.671C479.726 57.9165 484.133 55.1817 499.774 43.7375C518.125 30.3122 521.59 26.9987 518.397 25.9335C517.731 25.712 509.724 31.0301 500.605 37.7517ZM240.49 37.5146C262.164 49.9238 269.28 55.0771 278.728 65.2023C289.868 77.1429 299.063 95.0816 306.635 119.647C312.886 139.93 312.908 140.27 308.858 155.284C306.88 162.619 303.872 174.476 302.175 181.634C299.107 194.57 296.193 201.29 295.065 198.03C294.764 197.159 293.707 193.191 292.715 189.212C280.343 139.597 257.724 86.7606 231.247 45.6308C220.217 28.4957 219.918 28.0093 219.918 27.1857C219.918 25.9691 223.238 27.6364 240.49 37.5146ZM519.609 50.1865C512.881 55.1083 507.231 59.7685 507.053 60.5421C506.876 61.3156 509.243 65.1634 512.314 69.0935C518.852 77.4602 518.761 77.1151 515.051 79.5482C512.162 81.4426 512.162 81.4426 512.874 78.1959C513.757 74.1745 507.453 64.2017 503.675 63.6419C502.151 63.4159 497.965 65.6798 492.1 69.9004C487.047 73.5367 476.157 81.2389 467.9 87.0155C459.109 93.1661 452.286 98.7602 451.436 100.513C450.639 102.161 449.388 103.516 448.656 103.525C447.926 103.535 446.7 103.941 445.934 104.428C444.472 105.357 435.044 131.098 435.866 131.92C436.883 132.938 448.562 127.754 450.664 125.351C453.951 121.593 460.555 117.947 463.614 118.2C465.483 118.355 471.331 114.707 482.943 106.14C492.101 99.3846 501.72 92.456 504.319 90.7442C506.918 89.0312 509.045 87.1992 509.045 86.6727C509.045 86.1462 512.923 82.8717 517.663 79.3957C522.404 75.9197 529.66 70.5883 533.788 67.5475C540.995 62.2406 543.2 58.9872 539.59 58.9872C538.654 58.9872 534.157 61.7976 529.596 65.2335C525.036 68.6683 520.656 71.2294 519.862 70.9255C517.469 70.0062 511.833 61.132 513.111 60.295C522.735 53.993 535.712 43.8978 535.399 42.9562C534.48 40.1926 531.242 41.6751 519.609 50.1865ZM448.995 47.8569C444.862 51.994 447.429 58.9872 453.081 58.9872C458.563 58.9872 461.07 50.5449 456.532 47.3638C453.266 45.0732 451.672 45.1778 448.995 47.8569ZM184.824 51.5232C184.124 53.3464 184.939 56.0299 192.161 75.6826C200.22 97.616 216.748 133.56 218.775 133.56C221.608 133.56 220.786 129.962 215.517 119.293C206.298 100.632 193.746 69.6879 189.402 54.9135C188.359 51.3674 185.652 49.3628 184.824 51.5232ZM454.849 50.7485C455.932 51.8315 454.446 54.5351 452.769 54.5351C451.917 54.5351 451.22 53.5333 451.22 52.309C451.22 50.2132 453.386 49.2827 454.849 50.7485ZM198.789 58.6132C198.789 62.8438 205.645 81.2478 207.221 81.2478C209.608 81.2478 209.021 77.2765 205.098 66.8708C201.755 58.0044 198.789 54.1221 198.789 58.6132ZM405.167 65.0576C396.658 72.0208 386.216 75.5658 362.257 79.6272C352.777 81.2344 344.446 83.1333 343.744 83.8467C343.042 84.5602 339.623 91.8806 336.147 100.114C332.671 108.348 328.887 116.929 327.737 119.184C325.647 123.285 325.647 123.285 335.334 135.579C340.662 142.341 346.819 151.289 349.018 155.465C353.451 163.887 352.529 163.554 365.496 161.409C372.396 160.267 376.802 160.353 392.54 161.936C402.882 162.977 411.502 163.653 411.697 163.442C411.893 163.229 413.597 157.045 415.486 149.699C417.374 142.353 420.396 131.862 422.202 126.385C424.264 120.133 425.146 115.782 424.573 114.698C423.83 113.292 414.507 77.1964 411.836 65.3871C410.994 61.6618 409.412 61.5839 405.167 65.0576ZM507.933 76.2291C507.933 81.2756 505.794 84.4466 499.373 88.921C495.824 91.3942 488.167 96.9493 482.356 101.266C463.946 114.944 463.912 114.964 461.322 113.576C459.149 112.413 454.556 104.897 454.556 102.508C454.556 101.61 469.595 90.7564 498.384 70.881C502.921 67.7479 502.921 67.7478 505.426 70.664C506.805 72.2679 507.933 74.7722 507.933 76.2291ZM413.298 89.7302C415.807 99.5983 417.859 108.207 417.859 108.86C417.859 109.56 416.378 109.84 414.245 109.543C395.578 106.941 387.405 105.675 387.065 105.335C386.699 104.969 389.143 100.574 402.538 77.5225C404.974 73.3297 407.366 70.3245 407.853 70.8443C408.34 71.363 410.791 79.861 413.298 89.7302ZM555.194 74.4405C552.136 76.7467 541.799 84.4544 532.222 91.5678C513.839 105.224 512.587 106.386 514.348 108.149C515.081 108.882 518.16 107.324 523.485 103.521C527.9 100.366 532.088 97.5726 532.79 97.3133C533.492 97.0539 537.068 99.1108 540.738 101.886C544.407 104.659 549.787 108.465 552.692 110.344C555.597 112.221 557.974 114.19 557.974 114.72C557.974 115.249 555.195 117.736 551.798 120.248C543.213 126.596 542.545 128.489 545.601 137.819C546.958 141.962 547.758 146.165 547.378 147.157C546.997 148.149 542.095 151.856 536.484 155.397C524.184 163.158 493.473 183.259 470.803 198.386C461.697 204.463 453.63 209.671 452.876 209.961C452.114 210.254 449.198 207.25 446.302 203.188C443.44 199.173 439.497 195.074 437.54 194.078C435.584 193.083 433.806 192.113 433.591 191.924C433.375 191.735 436.405 186.665 440.324 180.657C444.243 174.649 450.536 164.976 454.308 159.16C461.094 148.695 461.254 148.546 469.769 144.728C474.501 142.607 481.276 138.931 484.825 136.559C494.106 130.356 506.377 113.749 503.676 111.046C502.045 109.413 500.741 110.625 497.003 117.254C492.287 125.619 484.713 131.943 470.142 139.682C457.568 146.36 457.568 146.36 443.848 167.508C430.208 188.529 412.84 216.276 410.129 221.374C408.482 224.469 407.133 224.705 423.975 218.951C442.788 212.522 446.328 211.839 448.87 214.141C451.585 216.601 449.342 217.821 483.305 195.416C506.315 180.236 522.18 169.842 547.742 153.201C549.969 151.752 551.673 149.557 552.078 147.62C552.625 145.001 555.606 142.536 568.653 133.909C577.402 128.124 584.858 122.454 585.221 121.309C585.992 118.88 581.529 109.489 578.155 106.437C575.34 103.89 571.752 104.577 567.013 108.568C563.647 111.402 563.647 111.402 559.421 109.236C553.704 106.307 537.958 94.7043 537.958 93.4221C537.958 92.8556 540.085 90.871 542.684 89.0123C560.246 76.4506 563.475 73.8228 563.503 72.0653C563.55 69.1581 561.371 69.7814 555.194 74.4405ZM103.857 74.2379C101.966 76.1301 103.921 78.3372 112.501 83.9914C122.355 90.4871 124.676 91.3452 124.085 88.271C123.559 85.5374 105.255 72.8388 103.857 74.2379ZM0.262655 75.7316C-0.843812 77.5236 0.936547 79.1197 17.6147 91.2884C27.9555 98.8326 33.7413 102.386 34.939 101.927C37.2687 101.031 34.9912 98.3673 27.0013 92.6419C23.9321 90.4425 17.1099 85.4773 11.8411 81.6062C1.59375 74.0788 1.35689 73.9597 0.262655 75.7316ZM398.615 75.4044C398.356 75.863 392.53 86.1318 385.669 98.2226C373.193 120.206 373.193 120.206 376.755 124.708C380.868 129.906 380.923 129.73 374.883 130.729C370.549 131.445 370.097 131.258 367.303 127.592C364.086 123.37 348.913 91.1627 348.913 88.5559C348.913 86.5503 349.798 86.2965 366.657 83.4527C379.382 81.3068 391.489 78.0289 395.618 75.6136C397.689 74.4015 399.241 74.2936 398.615 75.4044ZM22.7189 76.425C21.2388 77.9054 22.1006 78.9138 29.1264 83.9324C41.2887 92.6196 43.9064 90.0652 32.1211 81.0096C25.0887 75.6069 24.0445 75.0972 22.7189 76.425ZM350.492 104.457C353.372 110.794 355.456 116.251 355.124 116.584C354.359 117.351 339.323 120.067 335.416 120.145C332.484 120.204 332.484 120.204 336.677 110.465C338.984 105.109 341.686 98.7702 342.682 96.3805C343.679 93.992 344.666 92.239 344.875 92.4849C345.085 92.732 347.613 98.1191 350.492 104.457ZM106.978 99.1687C105.818 101.046 108.243 102.962 139.194 124.621C158.386 138.051 168.376 144.412 169.116 143.671C170.902 141.883 168.606 139.925 147.166 124.944C136.11 117.22 123.016 107.984 118.067 104.421C108.387 97.4502 108.118 97.3222 106.978 99.1687ZM57.5621 102.743C57.5621 104.31 63.3858 109.074 65.3018 109.074C67.607 109.074 66.3838 105.832 63.2289 103.584C59.5159 100.938 57.5621 100.648 57.5621 102.743ZM453.744 111.311C456.663 115.773 456.663 115.773 450.884 119.091C442.333 123.999 442.238 123.916 445.753 114.66C449.414 105.019 449.583 104.949 453.744 111.311ZM48.2766 109.596C47.3392 112.041 67.4091 126.688 69.7299 125.253C71.965 123.869 70.8752 122.55 63.0933 117.213C49.5988 107.962 49.0184 107.662 48.2766 109.596ZM145.412 110.553C145.412 111.857 174.293 132.786 183.975 138.498C187.826 140.769 189.992 140.171 188.186 137.335C186.504 134.694 149.533 109.125 147.358 109.098C146.287 109.085 145.412 109.739 145.412 110.553ZM577.786 113.399C581.179 119.441 580.876 120.872 575.489 124.269C572.89 125.908 566.431 130.117 561.137 133.621C551.511 139.995 551.511 139.995 549.646 135.107C548.621 132.418 547.969 129.653 548.199 128.963C548.721 127.397 572.551 109.196 574.172 109.126C574.824 109.097 576.45 111.02 577.786 113.399ZM406.624 112.994C412.984 113.834 418.699 115.035 419.326 115.662C420.105 116.442 419.181 120.957 416.409 129.912C414.178 137.122 411.465 146.651 410.379 151.086C409.294 155.523 408.156 159.143 407.85 159.132C407.545 159.121 405.821 156.994 404.021 154.406C402.219 151.817 395.764 142.991 389.674 134.792C378.602 119.886 378.602 119.886 381.272 114.941C384.302 109.331 380.883 109.593 406.624 112.994ZM537.408 118.34C531.109 122.813 528.241 126.928 531.482 126.844C533.826 126.783 546.298 117.484 546.298 115.796C546.298 112.959 544.102 113.587 537.408 118.34ZM362.216 127.934C364.685 131.573 366.706 135.016 366.706 135.584C366.706 136.152 364.454 140.368 361.701 144.951C358.949 149.533 356.697 153.854 356.697 154.552C356.697 157.451 354.391 155.421 350.61 149.191C348.397 145.544 343.858 139.07 340.522 134.802C337.186 130.536 334.457 126.573 334.457 125.996C334.457 125.113 349.626 121.886 355.822 121.45C356.983 121.369 359.477 123.898 362.216 127.934ZM93.1469 136.156C93.1469 136.971 95.7746 139.322 98.9851 141.382C114.237 151.163 125.482 158.478 146.154 172.067C158.489 180.175 169.592 187.351 170.829 188.013C173.278 189.325 175.04 187.931 173.691 185.747C172.926 184.507 121.925 150.641 101.231 137.631C96.0793 134.392 93.1469 133.856 93.1469 136.156ZM391.693 145.152C395.956 150.911 399.639 156.207 399.877 156.922C400.2 157.891 397.95 157.987 391.013 157.299C385.901 156.793 376.809 156.47 370.809 156.582C359.901 156.786 359.901 156.786 362.314 152.687C363.642 150.432 366.549 145.465 368.775 141.651C372.822 134.716 372.822 134.716 378.382 134.699C383.942 134.681 383.942 134.681 391.693 145.152ZM58.8765 156.656C55.3814 159.655 44.0843 180.899 43.9764 184.669C43.8385 189.541 45.7434 191.222 58.1181 197.143C97.4338 215.958 149.059 249.332 177.661 274.428C181.025 277.379 184.874 280.76 186.215 281.939C188.116 283.615 190.681 284.16 197.891 284.425C215.158 285.058 222.314 287.483 227.446 294.439C231.677 300.172 235.64 302.499 242.859 303.49C248.047 304.201 248.047 304.201 247.159 300.967C246.671 299.188 245.972 295.742 245.606 293.311C245.005 289.334 244.462 288.713 240.197 287.137C233.019 284.485 214.329 261.214 208.351 247.484C206.813 243.955 205.257 242.401 201.731 240.875C192.529 236.893 182.479 230.447 173.769 222.941C148.306 201 124.968 185.518 84.6043 163.795C67.0043 154.322 62.9154 153.187 58.8765 156.656ZM68.3498 160.044C69.3073 160.653 67.8183 164.661 63.0844 174.217C59.4547 181.546 56.4767 188.222 56.4678 189.054C56.4478 190.743 51.4459 189.946 48.9249 187.852C47.0156 186.266 47.8129 184.036 55.1023 170.568C60.4845 160.624 61.6454 159.162 64.1453 159.177C65.7232 159.187 67.6148 159.576 68.3498 160.044ZM91.2031 172.404C118.839 187.442 143.404 203.496 162.649 219.099C167.542 223.066 171.707 226.433 171.905 226.58C173.194 227.54 167.692 234.501 162 239.11C151.081 247.953 150.654 248.077 145.125 243.974C127.118 230.613 88.8968 207.282 69.5486 197.84C64.2153 195.237 59.8362 192.726 59.8184 192.258C59.7483 190.429 73.0337 163.612 74.0089 163.612C74.5805 163.612 82.3169 167.568 91.2031 172.404ZM505.155 190.727C481.216 206.96 474.562 212.585 479.292 212.585C481.615 212.585 535.178 176.058 535.178 174.474C535.178 171.058 530.121 173.796 505.155 190.727ZM318.28 192.829C317.676 206.381 317.181 209.519 314.883 214.39C311.789 220.945 303.422 230.966 302.159 229.627C301.691 229.131 300.293 223.465 299.053 217.038C296.876 205.747 296.868 205.275 298.814 203.125C299.923 201.9 301.812 198.632 303.013 195.862C304.829 191.675 316.884 176.968 318.501 176.968C318.768 176.968 318.668 184.106 318.28 192.829ZM285.099 213.764C289.028 233.615 288.999 233.682 278.607 228.685C269.906 224.502 269.676 224.181 265.858 210.916C259.479 188.75 259.124 189.67 271.715 195.768C282.58 201.029 282.58 201.029 285.099 213.764ZM396.928 194.01C395.578 195.448 390.853 198.676 386.427 201.184C379.025 205.379 373.414 207.386 351.644 213.634C343.81 215.882 343.81 215.882 340.691 226.755C338.975 232.736 337.312 238.506 336.997 239.576C336.09 242.646 339.384 242.046 356.284 236.063C384.116 226.207 391.378 223.357 391.768 222.137C391.981 221.475 394.213 215.173 396.728 208.133C399.245 201.093 401.401 194.636 401.519 193.784C401.886 191.148 399.504 191.266 396.928 194.01ZM439.16 201.502C441.512 203.976 443.435 206.611 443.435 207.354C443.435 208.114 439.41 209.761 434.261 211.106C429.215 212.425 424.211 213.851 423.141 214.276C419.85 215.584 420.8 211.103 425.365 203.787C430.564 195.455 433.025 195.047 439.16 201.502ZM537.262 212.423C505.313 228.517 505.282 228.537 506.141 232.836C506.638 235.327 506.363 235.959 504.777 235.959C502.516 235.959 496.813 241.463 496.813 243.645C496.813 244.438 499.592 250.042 502.988 256.099C510.012 268.626 512.188 270.047 518.851 266.455C521.001 265.295 523.554 264.463 524.521 264.603C527.378 265.02 579.581 237.875 579.988 235.761C580.184 234.74 577.604 227.48 574.254 219.628C570.905 211.775 567.817 203.968 567.394 202.28C566.97 200.59 566.304 199.014 565.913 198.778C565.523 198.541 552.629 204.682 537.262 212.423ZM390.564 211.653C387.754 220.016 387.754 220.016 365.848 227.912C353.8 232.255 343.793 235.659 343.611 235.475C343.429 235.292 344.219 231.696 345.368 227.482C347.741 218.775 345.259 220.299 369.669 212.562C375.886 210.591 383.643 207.618 386.905 205.956C390.168 204.293 392.958 203.013 393.106 203.111C393.253 203.209 392.109 207.053 390.564 211.653ZM569.496 220.206C572.943 227.765 575.561 234.276 575.312 234.676C575.064 235.075 569.908 237.839 563.856 240.815C552.851 246.229 552.851 246.229 546.401 242.1C542.061 239.32 539.585 238.338 538.829 239.093C537.278 240.646 538.499 242.249 543.772 245.58C548.287 248.434 548.287 248.434 536.827 254.44C530.524 257.743 524.969 260.446 524.483 260.446C523.997 260.446 520.539 254.115 516.797 246.376C511.2 234.801 510.254 232.059 511.465 230.911C514.028 228.484 561.835 204.877 562.547 205.688C562.922 206.114 566.049 212.648 569.496 220.206ZM27.177 213.033C26.4787 214.854 27.2994 215.924 29.3911 215.924C30.2062 215.924 30.8734 214.923 30.8734 213.698C30.8734 211.167 28.0845 210.665 27.177 213.033ZM56.9404 214.918C55.7128 216.906 58.1748 218.565 80.9146 231.07C109.121 246.582 156.661 274.794 170.813 284.418C174.716 287.074 176.549 287.106 176.549 284.519C176.549 281.472 121.983 248.269 72.3565 221.119C57.4609 212.969 58.008 213.19 56.9404 214.918ZM243.63 229.95C242.842 232.002 245.532 234.14 247.023 232.649C248.237 231.433 247.123 228.168 245.495 228.168C244.844 228.168 244.006 228.969 243.63 229.95ZM182.366 235.252C185.589 237.311 191.349 240.573 195.168 242.499C201.531 245.708 202.428 246.625 205.922 253.502C208.018 257.626 213.754 265.992 218.667 272.091C223.58 278.19 227.43 283.351 227.221 283.559C227.013 283.768 222.407 283.099 216.986 282.073C211.564 281.047 203.424 280.102 198.896 279.972C190.664 279.737 190.664 279.737 179.992 270.871C174.122 265.996 165.918 259.338 161.759 256.077C154.197 250.148 154.197 250.148 160.051 246.202C163.27 244.033 168.174 239.89 170.949 236.996C173.723 234.103 176.109 231.684 176.25 231.622C176.39 231.558 179.142 233.192 182.366 235.252ZM467.13 244.691C459.669 252.833 458.886 253.357 449.533 256.499C438.637 260.157 428.876 265.95 424.168 271.548C419.556 277.035 414.123 288.317 415.452 289.647C417.155 291.351 418.721 289.777 421.798 283.265C423.48 279.707 427.057 275.053 430.608 271.805C436.259 266.635 439.861 264.779 456.883 258.259C463.084 255.885 468.766 250.94 474.961 242.533C478.342 237.942 478.45 237.518 476.424 236.74C475.554 236.406 471.702 239.702 467.13 244.691ZM257.166 238.463C256.516 240.305 260.369 269.026 261.405 270.063C261.849 270.508 262.788 270.295 263.491 269.591C264.689 268.392 264.027 259.119 261.466 241.246C260.878 237.147 258.234 235.436 257.166 238.463ZM512.963 248.748C518.339 258.619 518.742 261.061 515.336 263.109C512.966 264.534 512.182 263.608 505.406 251.373C501.212 243.799 501.212 243.799 503.46 241.549C506.864 238.142 507.412 238.558 512.963 248.748ZM429.535 243.442C412.154 250.489 399.069 265.477 383.754 295.88C383.209 296.96 368.93 296.571 368.93 295.477C368.93 293.129 392.737 255.808 398.125 249.711C399.375 248.296 399.784 247.046 399.129 246.641C398.521 246.265 385.097 248.684 369.298 252.018C324.529 261.463 324.448 261.484 324.448 263.906C324.448 265.064 324.632 266.011 324.857 266.011C325.082 266.011 339.153 262.98 356.126 259.276C373.097 255.573 387.653 252.692 388.468 252.876C389.451 253.098 387.823 256.408 383.651 262.672C371.69 280.631 359.829 301.13 350.969 319.158C342.081 337.245 342.081 337.245 289.34 337.245C257.621 337.245 236.598 336.833 236.598 336.211C236.598 333.026 264.882 298.102 277.651 285.519C285.59 277.695 287.148 274.915 283.593 274.915C280.746 274.915 260.678 296.333 248.098 312.797C237.154 327.12 237.154 327.12 229.926 327.18C220.929 327.254 215.132 328.824 209.375 332.744C205.999 335.042 203.478 335.813 199.067 335.896C195.746 335.958 191.846 336.824 190.018 337.905C186.03 340.262 188.74 336.738 124.64 422.948C114.616 436.43 112.493 441.782 115.366 446.322C116.286 447.774 114.002 448.064 97.8352 448.548C82.3002 449.013 79.2466 449.378 79.2466 450.774C79.2466 452.253 105.812 452.443 311.66 452.443C517.509 452.443 544.074 452.253 544.074 450.774C544.074 449.354 540.667 449.06 521.277 448.805C498.481 448.507 498.481 448.507 498.804 422.649C498.982 408.428 498.844 395.65 498.496 394.253C497.72 391.133 491.768 387.341 487.638 387.336C484.71 387.331 484.58 387.094 484.58 381.766C484.58 376.943 484.877 376.201 486.804 376.201C491.579 376.201 493.761 372.157 493.259 364.244C492.534 352.853 492.47 352.827 465.169 352.827C438.131 352.827 438.987 352.418 438.987 365.371C438.987 374.593 439.318 375.13 445.622 376.155C447.783 376.507 449.426 377.163 449.273 377.611C449.121 378.06 448.992 380.556 448.989 383.157C448.982 387.888 448.982 387.888 443.759 388.038C439.39 388.164 438.019 388.768 435.37 391.735C432.204 395.283 432.204 395.283 432.538 421.916C432.871 448.55 432.871 448.55 391.383 448.549C358.522 448.548 350.054 448.258 350.665 447.157C357.341 435.095 356.99 435.253 377.27 435.203C387.667 435.178 396.925 434.683 397.842 434.103C399.241 433.219 399.564 428.345 399.842 403.872C400.174 374.694 400.174 374.694 405.277 367.934C408.084 364.217 411.055 359.578 411.882 357.627C415.496 349.085 408.241 336.132 399.843 336.132C396.979 336.132 396.626 335.778 396.935 333.226C397.241 330.701 398.425 329.906 405.966 327.161C415.615 323.648 457.199 303.264 458.836 301.245C459.409 300.537 462.438 295.06 465.566 289.073C468.694 283.086 474.628 272.908 478.751 266.457C491.603 246.35 490.595 248.307 488.498 247.501C487.484 247.113 486.224 247.236 485.697 247.776C482.821 250.725 464.939 280.23 460.92 288.657C456.224 298.502 456.224 298.502 432.802 310.02C403.834 324.265 395.416 327.228 383.905 327.228C377.488 327.228 375.515 326.881 375.973 325.836C376.309 325.072 378.83 319.087 381.577 312.538C393.7 283.635 404.524 266.227 416.445 256.463C422.945 251.14 432.898 245.976 436.659 245.976C438.954 245.976 441.595 243.392 440.461 242.257C439.214 241.01 434.19 241.555 429.535 243.442ZM169.92 247.009C168.332 249.979 169.621 252.655 172.64 252.655C175.908 252.655 178.039 250.034 177.122 247.143C176.184 244.187 171.476 244.099 169.92 247.009ZM186.174 254.69C183.716 257.408 183.854 259.667 186.633 262.184C191.263 266.378 198.185 258.885 193.765 254.463C191.388 252.084 188.451 252.171 186.174 254.69ZM15.94 255.516C12.0446 259.416 15.1338 267.124 20.5938 267.124C23.7676 267.124 27.7731 261.877 26.889 258.88C25.4412 253.978 19.3473 252.107 15.94 255.516ZM246.944 260.047C247.655 266.958 249.353 269.862 251.076 267.115C251.647 266.201 251.921 264.703 251.682 263.785C251.444 262.867 250.932 260.238 250.545 257.941C250.076 255.158 249.251 253.768 248.069 253.768C246.579 253.768 246.399 254.77 246.944 260.047ZM21.9772 260.446C21.9772 262.977 19.1882 263.479 18.2808 261.111C17.5825 259.29 18.4031 258.22 20.4949 258.22C21.31 258.22 21.9772 259.221 21.9772 260.446ZM88.2407 271.596C78.9297 273.559 73.9189 276.075 75.7226 277.88C76.1585 278.317 80.1318 277.791 84.5532 276.715C95.6779 274.004 111.438 273.177 120.04 274.851C136.15 277.986 146.652 286.039 154.411 301.202C160.066 312.256 162.284 313.445 179.031 314.403C186.535 314.832 194.425 315.556 196.565 316.014C201.116 316.984 203.238 316.489 203.238 314.454C203.238 312.143 200.411 311.571 182.665 310.292C163.345 308.9 163.404 308.93 157.569 297.451C145.709 274.116 120.635 264.765 88.2407 271.596ZM260.645 282.192C260.267 283.177 260.708 284.18 261.686 284.555C263.862 285.391 264.854 284.386 264.015 282.198C263.171 279.996 261.488 279.993 260.645 282.192ZM114.556 285.886C116.848 288.426 118.724 290.943 118.724 291.478C118.724 292.015 115.346 293.293 111.217 294.322C107.088 295.35 93.5384 299.196 81.1037 302.868C68.6701 306.541 58.0947 309.391 57.6043 309.204C57.1128 309.016 58.3894 305.106 60.4389 300.515C64.7758 290.805 65.0049 289.391 62.1158 290.147C58.7564 291.027 50.2927 311.104 52.0709 313.981C53.1896 315.793 56.1954 315.068 96.4563 303.273C124.904 294.939 123.549 294.814 124.795 305.877C125.655 313.501 124.136 324.921 120.201 340.415C117.981 349.161 117.603 352.134 118.628 352.768C123.164 355.574 163.513 358.711 166.407 356.482C169.456 354.135 165.841 352.866 155.976 352.821C146.781 352.777 124.667 350.243 123.526 349.101C123.171 348.745 123.906 344.304 125.16 339.232C128.577 325.418 130.166 312.934 129.381 306.08C128.07 294.634 121.276 284.593 113.166 282.116C110.605 281.334 110.714 281.629 114.556 285.886ZM564.839 283.44C565.055 284.567 565.976 285.489 566.886 285.489C569.269 285.489 568.925 282.254 566.491 281.786C565.005 281.5 564.553 281.953 564.839 283.44ZM239.744 292.147C240.558 292.911 241.059 294.926 240.856 296.626C240.49 299.715 240.49 299.715 235.574 295.941C228.907 290.824 228.421 289.015 233.98 289.998C236.337 290.415 238.931 291.382 239.744 292.147ZM509.892 290.579C506.495 292.56 505.369 295.891 506.869 299.516C508.548 303.575 512.527 304.743 516.281 302.281C523.131 297.789 516.949 286.464 509.892 290.579ZM514.976 295.425C515.824 297.637 512.68 300.146 511.074 298.539C509.539 297.002 510.689 293.837 512.784 293.837C513.654 293.837 514.641 294.551 514.976 295.425ZM379.152 306.82C378.117 309.647 374.5 317.523 371.115 324.324C364.96 336.688 364.96 336.688 356.936 337.016C349.957 337.299 348.913 337.092 348.913 335.424C348.913 334.369 352.467 326.355 356.811 317.615C364.708 301.725 364.708 301.725 372.101 301.397C376.167 301.218 379.841 301.208 380.264 301.376C380.689 301.544 380.189 303.994 379.152 306.82ZM544.601 321.52C534.812 331.318 544.138 346.107 556.887 341C565.17 337.683 567.129 328.377 560.865 322.108C555.763 317.001 549.348 316.768 544.601 321.52ZM557.974 325.001C559.197 326.226 560.198 328.502 560.198 330.06C560.198 333.486 555.628 338.358 552.414 338.358C549.286 338.358 544.63 333.52 544.63 330.271C544.63 323.861 553.383 320.406 557.974 325.001ZM233.262 332.292C233.262 332.628 232.492 334.395 231.549 336.22C230.607 338.044 230.135 340.023 230.502 340.616C230.921 341.296 256.307 341.697 298.885 341.697C366.602 341.697 366.602 341.697 368.599 338.809C373.335 331.961 373.92 331.68 383.386 331.68C388.76 331.68 392.282 332.135 392.282 332.828C392.282 336.82 381.187 354.477 373.513 362.7C370.262 366.184 370.262 366.184 280.078 366.184C196.658 366.184 186.984 365.889 190.901 363.466C191.455 363.123 195.421 357.959 199.715 351.991C210.059 337.614 213.518 334.23 219.168 332.961C224.409 331.783 233.262 331.364 233.262 332.292ZM404.082 342.253C405.385 343.096 406.973 345.91 407.651 348.578C409.187 354.617 408.753 355.484 393.712 376.484C380.686 394.669 345.737 445.317 345.28 446.672C344.89 447.826 335.569 449.121 335.569 448.021C335.569 447.571 346.512 431.352 359.888 411.979C381.085 381.279 391.346 365.071 389.585 365.071C388.747 365.071 371.32 388.702 355.933 410.705C348.013 422.03 339.216 434.585 336.384 438.604C333.552 442.624 329.934 446.505 328.345 447.23C326.188 448.214 299.925 448.548 224.663 448.548C123.871 448.548 123.871 448.548 121.297 446.128C116.538 441.653 117.593 439.511 137.916 412.357C148.46 398.268 164.189 377.156 172.866 365.443C181.543 353.73 189.786 343.344 191.184 342.365C193.414 340.802 202.126 339.772 202.126 341.071C202.126 341.341 199.22 345.472 195.668 350.254C180.407 370.804 178.454 373.576 176.394 377.618C175.201 379.958 173.496 382.155 172.607 382.496C168.649 384.016 171.688 385.105 179.885 385.105C184.778 385.105 188.781 385.311 188.781 385.563C188.781 385.814 187.717 388.805 186.415 392.209C184.05 398.397 184.05 398.397 170.07 398.707C156.092 399.018 156.092 399.018 151.968 406.253C149.699 410.232 147.046 414.281 146.072 415.25C143.471 417.838 143.87 418.496 148.037 418.496C150.093 418.496 154.037 418.807 156.803 419.186C161.83 419.876 161.83 419.876 159.459 425.281C157.088 430.687 157.088 430.687 148.005 430.713C137.954 430.743 135.404 431.335 135.404 433.641C135.404 434.954 149.866 435.192 229.87 435.192C324.336 435.192 324.336 435.191 329.396 428.094C332.179 424.19 334.457 420.434 334.457 419.746C334.457 419.058 335.333 418.493 336.403 418.488C337.664 418.484 339.84 415.74 342.585 410.697C345.444 405.441 347.48 402.914 348.854 402.914C350.749 402.914 360.033 389.919 360.033 387.267C360.033 386.69 360.696 386.218 361.505 386.218C362.314 386.218 365.416 382.587 368.397 378.149C371.377 373.71 374.593 369.256 375.543 368.249C376.492 367.242 381.46 360.317 386.582 352.858C396.64 338.212 397.257 337.839 404.082 342.253ZM487.692 364.236C487.36 371.192 487.36 371.192 465.398 371.494C443.435 371.796 443.435 371.796 443.435 364.537C443.435 357.279 443.435 357.279 465.729 357.279C488.022 357.279 488.022 357.279 487.692 364.236ZM204.464 375.923C202.391 381.21 202.391 381.21 191.139 381.527C184.949 381.702 179.885 381.551 179.885 381.193C179.885 380.278 183.274 373.7 184.608 372.027C185.354 371.092 189.133 370.636 196.127 370.636C206.537 370.636 206.537 370.636 204.464 375.923ZM246.831 375.923C244.872 381.21 244.872 381.21 226.928 381.514C208.985 381.821 208.985 381.821 210.772 376.228C212.559 370.636 212.559 370.636 230.675 370.636C248.792 370.636 248.792 370.636 246.831 375.923ZM299.984 372.169C299.984 373.013 299.227 375.517 298.301 377.735C296.618 381.766 296.618 381.766 273.944 381.766C251.269 381.766 251.269 381.766 253.108 376.212C254.947 370.658 254.947 370.658 277.465 370.647C295.858 370.638 299.984 370.916 299.984 372.169ZM345.186 372.027C344.869 372.793 343.997 375.297 343.25 377.592C341.888 381.766 341.888 381.766 322.511 381.766C307.444 381.766 303.263 381.457 303.711 380.375C304.028 379.61 304.9 377.106 305.647 374.81C307.009 370.636 307.009 370.636 326.386 370.636C341.452 370.636 345.634 370.945 345.186 372.027ZM367.818 371.594C367.818 372.122 365.656 374.876 363.014 377.716C358.8 382.245 357.647 382.879 353.627 382.879C347.75 382.879 347.192 381.796 349.905 375.658C352.125 370.636 352.125 370.636 359.971 370.636C364.287 370.636 367.818 371.068 367.818 371.594ZM480.132 383.992C480.132 391.783 480.132 391.783 485.013 391.783C494.354 391.783 494.456 392.085 494.757 420.349C494.959 439.417 494.686 445.419 493.555 446.784C491.37 449.419 441.142 449.433 438.51 446.799C437.028 445.316 436.763 441.347 436.763 420.643C436.763 391.841 436.784 391.783 447.327 391.783C454.022 391.783 453.868 391.983 453.489 383.767C453.356 380.888 453.571 378.008 453.967 377.367C454.401 376.664 459.742 376.201 467.41 376.201C480.132 376.201 480.132 376.201 480.132 383.992ZM395.121 429.318C394.585 430.716 362.257 431.559 362.257 430.175C362.257 429.865 364.918 425.732 368.17 420.993C371.423 416.252 377.998 406.614 382.784 399.575C396.319 379.665 395.014 379.074 395.364 405.27C395.53 417.715 395.42 428.537 395.121 429.318ZM233.735 387.609C230.185 398.861 232.353 397.873 210.506 398.21C188.45 398.549 189.484 399.133 193.804 388.784C195.34 385.105 195.34 385.105 214.932 385.105C234.524 385.105 234.524 385.105 233.735 387.609ZM281.048 385.383C281.031 385.536 280.104 388.416 278.989 391.783C276.962 397.905 276.962 397.905 256.781 398.209C245.68 398.375 236.598 398.313 236.598 398.07C236.598 397.696 238.753 391.259 240.474 386.496C240.851 385.454 245.996 385.105 261.029 385.105C272.056 385.105 281.065 385.231 281.048 385.383ZM325.561 385.619C325.561 385.903 324.524 388.908 323.256 392.298C320.952 398.461 320.952 398.462 302.008 398.462C280.849 398.462 281.817 399.05 286.102 388.784C287.638 385.105 287.638 385.105 306.599 385.105C317.028 385.105 325.561 385.337 325.561 385.619ZM355.585 385.773C355.585 386.14 353.959 389.131 351.971 392.419C348.357 398.398 348.357 398.398 338.071 398.43C332.414 398.447 327.785 398.027 327.785 397.496C327.785 396.967 328.852 393.962 330.157 390.818C332.53 385.105 332.53 385.105 344.057 385.105C350.398 385.105 355.585 385.406 355.585 385.773ZM210.789 403.423C211.543 404.178 208.357 413.169 207.198 413.56C203.998 414.636 153.194 414.511 153.195 413.427C153.196 412.782 154.608 410.027 156.331 407.306C159.466 402.357 159.466 402.357 184.935 402.697C198.943 402.884 210.577 403.211 210.789 403.423ZM304.055 403.279C304.293 403.517 303.515 405.983 302.326 408.759C300.164 413.807 300.164 413.807 282.004 414.265C272.015 414.517 263.713 414.648 263.553 414.557C263.314 414.42 264.496 410.678 267.056 403.47C267.426 402.427 303.021 402.244 304.055 403.279ZM339.989 403.47C339.978 404.082 339.03 406.65 337.885 409.176C335.801 413.768 335.801 413.768 321.506 414.285C313.645 414.57 307.099 414.728 306.961 414.636C306.823 414.544 307.646 411.994 308.79 408.97C310.585 404.223 311.38 403.37 314.6 402.738C320.311 401.617 340.014 402.186 339.989 403.47ZM259.107 408.394C257.357 413.876 257.357 413.876 236.135 414.244C224.464 414.448 214.738 414.518 214.522 414.401C214.308 414.284 214.973 411.651 216.001 408.551C217.873 402.914 217.873 402.914 239.365 402.914C260.858 402.914 260.858 402.914 259.107 408.394ZM194.84 421C191.744 431.145 192.483 430.739 177.043 430.739C166.228 430.739 163.095 430.417 163.519 429.348C168.23 417.498 166.553 418.496 181.749 418.496C195.601 418.496 195.604 418.496 194.84 421ZM304.432 419.517C304.432 420.078 303.449 422.832 302.248 425.638C300.063 430.739 300.063 430.739 248.871 430.739C220.714 430.739 197.677 430.313 197.677 429.792C197.677 427.395 200.36 421.139 201.924 419.887C204.043 418.192 304.432 417.829 304.432 419.517ZM328.897 419.687C328.897 420.341 327.371 423.096 325.507 425.809C322.118 430.739 322.118 430.739 314.387 430.739C310.134 430.739 306.656 430.302 306.656 429.768C306.656 429.233 307.68 426.479 308.932 423.646C311.209 418.496 311.209 418.496 320.053 418.496C325.592 418.496 328.897 418.941 328.897 419.687ZM24.7172 436.369C23.0837 439.016 26.5243 439.705 39.8608 439.401C51.2546 439.142 53.67 438.796 53.67 437.418C53.67 435.293 26.0005 434.291 24.7172 436.369ZM66.4583 437.418C66.4583 439.543 67.1944 439.643 82.8607 439.627C98.9495 439.61 103.091 438.902 101.564 436.429C101.057 435.608 95.0274 435.192 83.6291 435.192C67.2 435.192 66.4583 435.287 66.4583 437.418ZM525.169 436.305C523.382 439.2 526.793 439.644 550.812 439.644C575.025 439.644 575.767 439.578 575.767 437.418C575.767 435.257 575.025 435.192 550.812 435.192C535.374 435.192 525.594 435.616 525.169 436.305ZM450.318 441.591C450.652 443.337 452.584 443.572 468.879 443.845C486.463 444.143 490.14 443.584 490.14 440.621C490.14 440.083 481.096 439.644 470.043 439.644C451.501 439.644 449.973 439.794 450.318 441.591ZM49.2219 449.661C47.6361 452.23 50.4718 453 61.5198 453C72.3887 453 73.1304 452.858 73.1304 450.774C73.1304 448.69 72.3887 448.548 61.5198 448.548C54.9788 448.548 49.6088 449.034 49.2219 449.661Z" fill="#0B0A0A"/>
<path fill-rule="evenodd" clip-rule="evenodd" d="M221.729 30.3265C222.756 32.3155 227.172 39.4533 231.542 46.1872C257.421 86.0671 280.381 139.75 292.715 189.212C293.706 193.191 294.764 197.159 295.065 198.03C296.193 201.29 299.106 194.57 302.175 181.634C303.872 174.476 306.88 162.619 308.858 155.284C312.217 142.827 312.364 141.543 311.089 135.806C307.492 119.641 298.77 95.5746 293.224 86.5178C291.437 83.6006 289.976 80.9015 289.976 80.5186C289.976 80.0725 289.026 77.9596 288.402 76.9491C287.96 76.2323 287.199 75.8928 286.712 76.1945C286.224 76.4961 284.883 75.6803 283.73 74.3802C278.5 68.4812 260.549 53.3462 251.798 47.4571C244.608 42.6208 228.663 35.4224 225.975 31.0655C225.118 29.6762 224.043 27.9356 222.6 27.3825C219.813 26.3118 219.756 26.5066 221.729 30.3265ZM215.487 34.5927C215.499 37.1482 215.818 37.9007 216.46 36.8856C216.986 36.0553 217.677 35.8048 217.996 36.3291C219.931 39.5101 230.092 86.923 229.635 90.6405C229.431 92.2978 232.075 94.4281 241.046 99.8397C252.917 106.999 254.923 109.299 249.943 110.047C247.393 110.429 247.346 110.53 249.387 111.273C251.329 111.98 251.021 112.382 246.96 114.457C240.702 117.654 240.553 118.101 243.078 126.074C248.681 143.758 251.168 152.876 251.578 157.223C252.061 162.355 256.231 166.827 271.649 178.752C275.526 181.75 279 184.913 279.369 185.78C280.453 188.328 278.127 189.79 275.844 187.996C274.021 186.563 273.984 186.598 275.4 188.404C276.251 189.49 276.647 190.681 276.278 191.05C275.666 191.663 284.123 198.048 285.609 198.096C286.363 198.119 283.359 184.7 278.702 167.237C269.185 131.556 260.974 103.445 235.504 61.2431C229.625 51.4997 217.368 32.7284 215.924 31.2536C215.674 30.9987 215.478 32.5013 215.487 34.5927ZM499.028 70.3878C480.647 82.9349 482.225 85.5863 466.86 96.2735C455.534 104.152 455.094 104.734 457.267 108.939C459.254 112.785 462.82 115.136 464.865 113.946C465.617 113.508 470.736 109.82 476.24 105.75C481.745 101.68 489.69 95.8784 493.897 92.8588C505.792 84.3218 506.719 83.3334 507.468 78.3782C508.039 74.6173 507.707 73.3173 505.533 70.7885C502.911 67.7365 502.911 67.7365 499.028 70.3878ZM567.599 113.335C565.26 115.923 557.611 120.641 557.407 123.415C557.06 128.119 559.737 128.382 554.7 131.717C551.675 133.72 546.787 133.526 551.326 138.412C552.632 139.822 579.591 122.019 579.979 119.49C580.155 118.344 579.492 116.407 578.507 115.187C575.74 111.766 571.54 111.299 569.995 111.299C569.689 111.299 568.611 112.215 567.599 113.335ZM469.718 144.64C461.107 148.789 460.863 149.022 453.841 159.85C449.918 165.898 443.661 175.538 439.936 181.273C433.436 191.281 432.888 193.554 436.956 193.647C437.368 193.656 439.234 194.951 441.103 196.526C442.973 198.1 444.987 199.089 445.578 198.722C446.797 197.969 463.442 170.98 470.601 158.152C473.195 153.503 476.401 147.806 477.725 145.492C481.492 138.907 481.597 138.918 469.718 144.64ZM74.8618 173.877C73.9099 175.238 73.1304 176.727 73.1304 177.186C73.1304 177.646 71.3789 181.624 69.2383 186.027C67.0976 190.429 65.3462 194.346 65.3462 194.73C65.3462 195.113 69.4718 197.612 74.5148 200.282C96.9834 212.179 128.837 231.89 145.125 243.974C150.721 248.127 151.23 247.965 162.853 238.37C170.22 232.287 170.22 232.287 166.435 229.109C152.617 217.51 131.209 202.502 111.495 190.595C100.68 184.062 77.9577 171.403 77.0458 171.403C76.7967 171.403 75.8137 172.516 74.8618 173.877ZM311.607 183.897C308.082 187.708 304.214 193.093 303.013 195.862C301.812 198.632 299.909 201.91 298.785 203.147C296.8 205.331 296.806 205.714 298.979 216.503C302.157 232.284 301.669 231.745 307.241 225.626C315.703 216.332 317.465 211.082 318.243 192.829C318.616 184.106 318.717 176.968 318.468 176.968C318.219 176.968 315.132 180.086 311.607 183.897ZM265.578 195.642C266.81 199.524 272.183 221.821 272.183 223.054C272.183 223.568 271.307 223.309 270.237 222.48C268.538 221.162 268.549 221.275 270.333 223.372C272.493 225.912 283.347 231.507 286.114 231.507C288.272 231.507 288.136 229.107 285.112 213.823C282.38 200.024 282.437 200.089 268.121 194.082C264.615 192.611 264.615 192.611 265.578 195.642ZM390.012 204.564C388.509 205.609 387.104 207.465 386.893 208.69C385.7 215.584 383.817 217.7 377.646 219.082C374.331 219.824 366.149 222.151 359.466 224.25C352.022 226.589 347.052 227.641 346.633 226.966C346.26 226.359 345.333 227.933 344.576 230.463C343.819 232.993 343.366 235.23 343.571 235.435C343.776 235.639 353.8 232.255 365.848 227.912C387.754 220.016 387.754 220.016 390.564 211.653C392.109 207.052 393.233 203.148 393.061 202.976C392.888 202.804 391.517 203.518 390.012 204.564ZM539.993 221.868C526.738 228.7 515.591 234.594 515.222 234.966C514.852 235.339 515.583 238.057 516.846 241.005C518.108 243.954 518.878 247.056 518.554 247.898C518.186 248.858 518.448 249.133 519.254 248.634C520.115 248.102 520.308 248.453 519.833 249.689C519.442 250.708 519.637 251.541 520.265 251.541C520.895 251.541 521.099 252.042 520.721 252.654C520.343 253.267 520.564 253.767 521.212 253.767C521.859 253.767 522.29 254.142 522.169 254.602C521.803 255.987 523.589 260.446 524.509 260.446C524.98 260.446 530.524 257.743 536.827 254.44C548.287 248.434 548.287 248.434 543.772 245.58C538.499 242.249 537.278 240.646 538.829 239.093C539.585 238.337 542.067 239.324 546.418 242.109C552.884 246.25 552.884 246.25 564.325 240.555C570.618 237.423 575.738 234.481 575.702 234.018C575.666 233.555 573.039 227.837 569.864 221.311C564.09 209.448 564.09 209.448 539.993 221.868ZM597.333 211.939C590.171 214.182 589.478 214.915 592.847 216.682C596.198 218.439 598.188 217.72 602.371 213.244C605.424 209.976 604.424 209.717 597.333 211.939ZM81.4706 325.001C80.6132 326.389 80.5298 326.378 92.4096 326.538C103.861 326.693 106.491 328.5 106.491 336.216C106.491 339.425 107.075 340.819 108.811 341.748C111.508 343.193 112.882 342.387 111.224 340.332C110.593 339.552 109.714 336.705 109.269 334.006C107.878 325.569 105.126 323.888 92.7065 323.888C86.8739 323.888 81.8509 324.386 81.4706 325.001ZM403.913 342.817C404.303 343.853 401.072 348.957 395.456 356.173C390.457 362.597 387.267 367.11 388.364 366.2C393.079 362.295 382.964 378.556 359.888 411.979C346.512 431.351 335.569 447.57 335.569 448.021C335.569 449.121 344.89 447.825 345.28 446.672C345.737 445.317 380.686 394.669 393.712 376.483C408.633 355.653 409.23 354.478 407.729 348.894C407.077 346.466 405.809 343.728 404.913 342.81C403.464 341.326 403.352 341.326 403.913 342.817ZM393.274 384.709C392.29 385.845 387.569 392.534 382.784 399.574C377.998 406.614 371.423 416.252 368.17 420.992C364.918 425.732 362.257 429.864 362.257 430.175C362.257 431.558 394.585 430.716 395.121 429.318C395.42 428.537 395.53 417.715 395.364 405.27C395.084 384.347 394.928 382.798 393.274 384.709ZM278.299 389.557C277.892 390.216 271.048 390.67 261.519 390.67C244.767 390.67 244.907 390.629 244.158 395.679C243.839 397.82 244.457 397.905 260.458 397.905C277.089 397.905 277.089 397.905 278.458 393.174C279.782 388.599 279.723 387.252 278.299 389.557ZM441.211 419.943C441.211 443.091 441.452 444.096 446.994 444.096C449.366 444.096 450.108 443.566 450.108 441.87C450.108 439.726 450.849 439.643 470.032 439.643C484.923 439.643 490.1 439.995 490.53 441.035C490.844 441.801 491.011 432.659 490.9 420.722C490.696 399.018 490.696 399.018 472.097 398.713C453.496 398.408 453.496 398.408 453.192 417.634C452.888 436.861 452.888 436.861 449.829 437.213C446.771 437.565 446.771 437.565 446.771 418.013C446.771 398.461 446.771 398.461 443.991 398.461C441.211 398.461 441.211 398.461 441.211 419.943Z" fill="#70DAE5"/>
<path fill-rule="evenodd" clip-rule="evenodd" d="M341.129 5.63967C341.129 6.20842 339.719 6.67478 337.995 6.67478C328.397 6.67478 317.186 13.609 313.855 21.605C310.933 28.6249 309.897 37.7639 311.64 41.1398C317.813 53.087 329.674 58.6655 342.404 55.6092C350.976 53.5512 359.242 45.12 361.178 36.4606C363.483 26.1506 359.789 15.7137 351.632 9.48629C347.366 6.22956 341.129 3.94452 341.129 5.63967ZM78.387 28.912C76.7668 31.2282 64.718 44.0626 48.4668 60.7836C37.9126 71.6435 37.907 71.7047 47.138 77.1329C47.8619 77.5592 51.8118 73.9975 56.4868 68.7073C60.9393 63.6675 68.9637 54.7855 74.3192 48.9699C89.6096 32.3624 89.7864 32.0908 87.0308 29.3327C85.9399 28.2408 85.3628 28.1207 85.3628 28.9844C85.3628 29.8759 84.4787 29.7245 82.6383 28.518C80.0884 26.8451 79.816 26.8707 78.387 28.912ZM309.16 30.6049C309.173 33.0536 309.401 33.924 309.666 32.5394C309.932 31.1548 309.922 29.1513 309.644 28.0873C309.366 27.0232 309.148 28.1563 309.16 30.6049ZM92.591 48.1307C86.4748 54.9157 78.7262 63.4315 75.3734 67.0556C69.2751 73.6458 69.2751 73.6458 73.1494 76.8603C75.2789 78.6289 77.7732 80.0491 78.6906 80.0179C80.2519 79.9645 111.011 45.9748 111.891 43.3291C112.374 41.8788 106.587 35.5735 104.893 35.7048C104.243 35.7549 98.7071 41.3468 92.591 48.1307ZM449.403 115.092C443.984 122.328 443.913 122.803 448.601 120.373C456.326 116.371 456.98 115.57 454.743 112.866C452.819 110.542 452.807 110.546 449.403 115.092ZM543.356 134.359C543.139 134.875 535.706 139.947 526.837 145.629C517.969 151.312 498.703 163.957 484.024 173.728C469.346 183.501 454.263 193.311 450.507 195.529C443.679 199.563 443.679 199.563 447.598 205.023C449.754 208.026 452.132 210.247 452.882 209.959C453.633 209.67 461.697 204.463 470.804 198.387C493.5 183.242 524.188 163.156 536.531 155.367C542.169 151.81 547.062 148.013 547.406 146.929C547.749 145.846 547.211 142.52 546.208 139.538C544.172 133.481 543.918 133.019 543.356 134.359ZM65.6499 159.834C66.0213 160.206 65.3741 161.532 64.212 162.78C61.671 165.51 52.002 184.32 52.002 186.534C52.002 187.394 51.377 188.134 50.6119 188.177C48.9939 188.268 52.9972 190.13 55.06 190.247C55.8251 190.289 56.4579 189.699 56.4679 188.934C56.4768 188.169 59.4548 181.546 63.0844 174.217C67.8183 164.661 69.3073 160.653 68.3499 160.044C66.7586 159.031 64.6869 158.872 65.6499 159.834ZM566.87 200.33C566.87 203.941 571.587 212.888 575.13 216.002C580.429 220.66 588.802 227.055 589.6 227.055C589.943 227.055 590.223 224.376 590.223 221.102C590.223 215.248 590.151 215.116 585.836 213.17C583.423 212.08 580.367 210.037 579.045 208.629C576.642 206.068 576.642 206.068 581.208 204.698C583.72 203.945 585.775 203.009 585.775 202.618C585.775 201.94 571.968 199.229 568.517 199.229C567.612 199.229 566.87 199.724 566.87 200.33ZM168.765 239.445C166.624 241.312 162.471 244.484 159.535 246.494C154.197 250.148 154.197 250.148 161.759 256.077C165.918 259.338 174.123 265.996 179.992 270.871C190.664 279.737 190.664 279.737 198.896 279.972C203.424 280.102 211.564 281.047 216.986 282.073C222.407 283.099 227.013 283.768 227.221 283.559C227.43 283.351 223.574 278.19 218.654 272.091C213.734 265.992 208.399 258.372 206.797 255.159C204.417 250.382 203.366 249.315 201.028 249.315C197.974 249.315 185.483 243.683 177.877 238.879C172.369 235.398 173.483 235.329 168.765 239.445ZM506.623 244.78C505.061 246.01 503.378 246.658 502.884 246.218C502.391 245.779 502.996 247.173 504.228 249.315C505.46 251.458 507.82 255.59 509.472 258.498C512.597 264 514.491 264.936 516.817 262.13C518.58 260.005 517.736 256.975 513.158 248.99C509.463 242.544 509.463 242.544 506.623 244.78ZM176.549 245.976C176.549 246.589 178.426 247.129 180.719 247.178C195.884 247.505 203.72 256.323 196.219 264.62C192.343 268.905 187.055 268.042 181.478 262.217C178.894 259.517 175.659 256.708 174.29 255.975C172.312 254.915 172.118 254.441 173.341 253.665C174.503 252.928 174.296 252.685 172.498 252.671C169.602 252.651 168.361 249.924 169.92 247.009C171.102 244.798 176.549 243.95 176.549 245.976ZM85.9188 283.667C79.191 285.346 72.7502 287.248 71.607 287.893C69.7155 288.96 61.3597 306.913 62.3105 307.865C62.5329 308.088 72.6901 305.343 84.8813 301.765C97.0724 298.187 109.675 294.64 112.885 293.881C116.096 293.122 118.724 292.085 118.724 291.576C118.724 291.066 116.848 288.394 114.553 285.636C110.538 280.807 110.157 280.622 104.267 280.618C100.903 280.617 92.6466 281.988 85.9188 283.667ZM447.7 363.866C448.047 370.02 447.9 370.49 445.476 370.963C444.048 371.242 452.888 371.408 465.12 371.331C487.361 371.192 487.361 371.192 487.692 364.236C488.022 357.279 488.022 357.279 467.675 357.277C447.328 357.275 447.328 357.275 447.7 363.866ZM242.293 372.584C241.389 374.203 239.248 374.595 229.584 374.908C218.484 375.266 217.906 375.406 216.717 378.021C216.03 379.526 215.47 380.999 215.47 381.294C215.47 381.589 222.085 381.69 230.171 381.52C244.872 381.21 244.872 381.21 246.832 375.923C248.792 370.636 248.792 370.636 246.086 370.636C244.598 370.636 242.891 371.513 242.293 372.584ZM294.558 372.581C293.612 374.275 291.227 374.579 276.154 374.927C266.631 375.146 258.839 375.692 258.839 376.141C258.839 377.72 253.463 379.539 252.991 378.12C252.752 377.402 252.266 377.928 251.91 379.291C251.263 381.766 251.263 381.766 273.94 381.766C296.618 381.766 296.618 381.766 298.301 377.735C299.227 375.518 299.984 373.013 299.984 372.169C299.984 369.963 295.846 370.277 294.558 372.581ZM338.051 372.862C336.8 374.867 335.458 375.088 324.502 375.088C313.197 375.088 312.221 375.262 310.612 377.562C309.66 378.922 308.88 380.425 308.88 380.901C308.88 381.376 316.307 381.766 325.385 381.766C341.889 381.766 341.889 381.766 343.25 377.592C343.997 375.297 344.869 372.793 345.186 372.027C346.193 369.596 339.608 370.366 338.051 372.862ZM204.35 373.789C204.35 374.658 201.685 375.09 196.287 375.095C188.5 375.101 188.161 375.215 186.331 378.434C184.437 381.766 184.437 381.766 193.266 381.766C202.096 381.766 202.096 381.766 203.794 377.699C204.727 375.463 205.234 373.376 204.92 373.062C204.607 372.748 204.35 373.076 204.35 373.789ZM319.907 386.107C324.415 386.72 324.655 386.909 322.839 388.408C321.398 389.596 316.935 390.162 306.425 390.49C291.99 390.94 291.99 390.94 290.896 394.079C290.296 395.806 288.966 397.44 287.944 397.711C286.921 397.982 293.929 398.261 303.518 398.332C320.952 398.461 320.952 398.461 323.257 392.298C324.524 388.908 325.561 385.903 325.561 385.619C325.561 385.337 323.184 385.181 320.278 385.272C314.996 385.439 314.996 385.439 319.907 386.107ZM352.912 389.265C351.958 390.221 351.519 390.276 343.184 390.501C337.295 390.659 336.827 390.876 335.762 393.933C334.872 396.49 333.827 397.293 330.927 397.65C328.893 397.901 331.983 398.17 337.793 398.248C348.357 398.391 348.357 398.391 351.373 393.417C354.256 388.66 354.694 387.481 352.912 389.265ZM177.976 390.384C169.23 390.743 168.756 390.898 166.923 394.004C165.87 395.789 163.976 397.453 162.716 397.704C161.455 397.954 165.728 398.227 172.21 398.31C183.996 398.462 183.996 398.462 185.743 394.009C186.704 391.561 187.406 389.66 187.302 389.784C187.198 389.908 183.001 390.178 177.976 390.384ZM215.152 390.39C199.823 390.734 199.823 390.734 198.681 393.74C198.052 395.394 196.945 397.133 196.217 397.604C195.491 398.076 202.854 398.337 212.579 398.183C230.261 397.905 230.261 397.905 231.703 393.731C232.796 390.567 232.824 389.616 231.814 389.801C231.082 389.936 223.583 390.201 215.152 390.39ZM321.391 402.611C323.685 402.851 327.438 402.851 329.731 402.611C332.025 402.372 330.148 402.175 325.561 402.175C320.974 402.175 319.098 402.372 321.391 402.611ZM337.271 403.599C335.693 405.184 333.001 405.832 326.258 406.253C317.593 406.793 317.272 406.915 315.229 410.427C313.124 414.044 313.124 414.044 324.409 414.044C335.693 414.044 335.693 414.044 337.931 408.983C340.563 403.026 340.266 400.595 337.271 403.599ZM209.239 404.309C208.305 405.982 205.51 406.241 185.475 406.508C162.771 406.809 162.771 406.809 160.649 410.448C158.526 414.087 158.526 414.087 183.273 413.787C208.019 413.487 208.019 413.487 209.539 409.091C211.175 404.361 210.977 401.203 209.239 404.309ZM255.905 404.583C255.379 405.953 252.543 406.256 240.094 406.269C223.631 406.288 222.845 406.484 221.127 411.005C219.974 414.044 219.974 414.044 238.638 414.044C257.302 414.044 257.302 414.044 259.08 408.479C260.798 403.102 260.786 402.914 258.702 402.914C257.516 402.914 256.257 403.665 255.905 404.583ZM300.062 404.489C299.113 405.634 295.29 406.166 286.078 406.436C273.083 406.818 271.87 407.218 270.565 411.54C269.809 414.044 269.809 414.044 284.936 414.044C300.063 414.044 300.063 414.044 302.248 408.943C303.449 406.137 304.432 403.633 304.432 403.378C304.432 402.251 301.246 403.061 300.062 404.489ZM171.545 419.227C182.122 420.042 195.458 420.099 195.456 419.331C195.455 418.871 189.073 418.584 181.275 418.691C173.478 418.798 169.098 419.039 171.545 419.227ZM310.717 419.331C310.431 419.791 313.279 420.025 317.046 419.854C328.557 419.331 329.921 418.838 320.344 418.663C315.334 418.571 311.002 418.871 310.717 419.331ZM158.312 421.391C157.988 422.234 154.596 423.114 149.883 423.579C143.69 424.189 141.646 424.856 140.368 426.682C137.735 430.446 138.287 430.741 147.914 430.713C157.089 430.687 157.089 430.687 159.436 425.333C161.183 421.35 161.409 419.98 160.318 419.98C159.512 419.98 158.609 420.615 158.312 421.391ZM253.579 423.783C205.506 424.085 205.506 424.085 203.781 427.424C202.057 430.763 202.057 430.763 251.217 430.472C300.378 430.183 300.378 430.183 301.852 426.566C302.663 424.575 302.95 423.068 302.489 423.214C302.029 423.361 280.02 423.616 253.579 423.783Z" fill="#FF7C73"/>
</g>
<defs>
<clipPath id="clip0_23_235">
<rect width="604" height="453" fill="white"/>
</clipPath>
</defs>
</svg>
