<svg width="65" height="40" viewBox="0 0 65 40" fill="none" xmlns="http://www.w3.org/2000/svg">
<g clip-path="url(#clip0_23_300)">
<path fill-rule="evenodd" clip-rule="evenodd" d="M27.7949 21.1321C28.2578 21.595 28.9119 21.8264 29.7572 21.8264C31.5685 21.8264 32.4742 20.9208 32.4742 19.1094V15.366H32.5346L36.3081 20.0151C36.7912 20.639 37.2742 21.1019 37.7572 21.4038C38.2402 21.6855 38.8842 21.8264 39.6893 21.8264C40.3534 21.8264 40.8968 21.6654 41.3195 21.3434C41.7622 21.0214 42.0239 20.5987 42.1044 20.0755C42.1849 19.5321 42.0037 18.9786 41.561 18.4151L37.8606 13.7646L41.078 9.96227C41.5408 9.41887 41.7622 8.87547 41.7421 8.33208C41.722 7.78868 41.5107 7.33585 41.1081 6.97359C40.7056 6.61132 40.132 6.43019 39.3874 6.43019C38.6427 6.43019 38.049 6.58113 37.6063 6.88302C37.1836 7.16478 36.7207 7.60755 36.2176 8.21132L32.5346 12.6792H32.4742V2.71698C32.4742 1.83145 32.2327 1.15723 31.7497 0.69434C31.2868 0.231446 30.6226 0 29.7572 0C28.9119 0 28.2578 0.231446 27.7949 0.69434C27.332 1.15723 27.1006 1.83145 27.1006 2.71698V19.1094C27.1006 19.995 27.332 20.6692 27.7949 21.1321ZM11.4494 21.8264C10.6041 21.8264 9.95004 21.595 9.48715 21.1321C9.02426 20.6692 8.79281 19.995 8.79281 19.1094V9.11698C8.79281 8.25157 9.01419 7.58742 9.45696 7.12453C9.91986 6.66163 10.5739 6.43019 11.4192 6.43019C12.2645 6.43019 12.9085 6.66163 13.3513 7.12453C13.7295 7.51989 13.9462 8.06208 14.0013 8.75109C14.4516 8.06805 15.0299 7.52586 15.7362 7.12453C16.6419 6.62138 17.6683 6.36981 18.8155 6.36981C20.0029 6.36981 20.979 6.60126 21.7438 7.06415C22.5085 7.50692 23.0821 8.21132 23.4645 9.17736C23.8469 10.1233 24.0381 11.3208 24.0381 12.7698V19.1094C24.0381 19.995 23.8067 20.6692 23.3438 21.1321C22.8809 21.595 22.2167 21.8264 21.3513 21.8264C20.4859 21.8264 19.8217 21.595 19.3589 21.1321C18.896 20.6692 18.6645 19.995 18.6645 19.1094V12.9811C18.6645 12.0755 18.5035 11.4314 18.1815 11.0491C17.8796 10.6667 17.4268 10.4755 16.823 10.4755C16.018 10.4755 15.3739 10.7371 14.8909 11.2604C14.4079 11.7635 14.1664 12.4478 14.1664 13.3132V19.1094C14.1664 20.9208 13.2607 21.8264 11.4494 21.8264ZM2.95885 21.8264C2.11357 21.8264 1.45948 21.5748 0.996586 21.0717C0.533693 20.5686 0.302246 19.844 0.302246 18.8981V16.4617C0.302246 15.5158 0.533693 14.7913 0.996586 14.2881C1.45948 13.785 2.11357 13.5334 2.95885 13.5334C3.82426 13.5334 4.48841 13.785 4.9513 14.2881C5.43432 14.7913 5.67583 15.5158 5.67583 16.4617V18.8981C5.67583 19.844 5.44438 20.5686 4.98149 21.0717C4.5186 21.5748 3.84438 21.8264 2.95885 21.8264ZM7.82811 39.9396C7.14383 39.9396 6.55012 39.7786 6.04697 39.4566C5.54383 39.1145 5.14131 38.5912 4.83943 37.8868L0.733767 27.9547C0.472132 27.3308 0.381565 26.7673 0.462069 26.2642C0.542572 25.7409 0.784081 25.3283 1.1866 25.0264C1.60924 24.7044 2.18282 24.5434 2.90735 24.5434C3.53125 24.5434 4.04446 24.6943 4.44697 24.9962C4.84949 25.278 5.21175 25.8415 5.53377 26.6868L8.11142 33.4531L10.847 26.1132C11.0482 25.5698 11.3199 25.1774 11.6621 24.9359C12.0243 24.6742 12.4772 24.5434 13.0206 24.5434C13.6042 24.5434 14.0671 24.6742 14.4092 24.9359C14.7514 25.1975 15.0231 25.5899 15.2243 26.1132L18.0029 33.5685L20.6583 26.5057C20.9401 25.7409 21.3023 25.2277 21.7451 24.966C22.1879 24.6843 22.6608 24.5434 23.164 24.5434C23.8482 24.5434 24.3715 24.7044 24.7338 25.0264C25.096 25.3484 25.2973 25.7711 25.3375 26.2943C25.3979 26.8176 25.2973 27.3811 25.0357 27.9849L20.9602 37.8566C20.6784 38.561 20.286 39.0843 19.7828 39.4264C19.2797 39.7686 18.686 39.9396 18.0017 39.9396C17.2973 39.9396 16.6935 39.7686 16.1904 39.4264C15.7074 39.0843 15.3149 38.561 15.013 37.8566L12.821 32.3766L10.7564 37.7962C10.4746 38.5208 10.0923 39.0642 9.60924 39.4264C9.12622 39.7686 8.53251 39.9396 7.82811 39.9396ZM30.5743 39.0642C31.9026 39.688 33.4724 40 35.2838 40C36.0888 40 36.8838 39.9195 37.6687 39.7585C38.4737 39.5975 39.2284 39.356 39.9328 39.034C40.3957 38.8327 40.7278 38.5509 40.9291 38.1887C41.1303 37.8063 41.2209 37.4239 41.2007 37.0415C41.1806 36.639 41.0599 36.2868 40.8385 35.9849C40.6372 35.6629 40.3454 35.4415 39.963 35.3208C39.5806 35.1799 39.1278 35.2101 38.6045 35.4113C38.0812 35.6126 37.5278 35.7736 36.9441 35.8943C36.3806 35.995 35.8775 36.0453 35.4347 36.0453C34.1064 36.0453 33.1202 35.7434 32.4762 35.1396C32.0555 34.7189 31.7766 34.1151 31.6396 33.3283H40.2347C40.7177 33.3283 41.0699 33.2377 41.2913 33.0566C41.5127 32.8553 41.6234 32.5535 41.6234 32.1509C41.6234 30.9836 41.4523 29.927 41.1102 28.9811C40.7882 28.0352 40.3051 27.2302 39.6611 26.566C39.0171 25.8818 38.2423 25.3686 37.3366 25.0264C36.4309 24.6642 35.4246 24.483 34.3177 24.483C32.8083 24.483 31.4599 24.8151 30.2724 25.4792C29.1052 26.1233 28.1794 27.0289 27.4951 28.1962C26.8309 29.3434 26.4989 30.6818 26.4989 32.2113C26.4989 33.8013 26.8511 35.1799 27.5555 36.3472C28.2599 37.5145 29.2662 38.4201 30.5743 39.0642ZM31.6051 30.7925C31.664 30.3732 31.7632 30.0008 31.9026 29.6755C32.1441 29.1119 32.4863 28.6893 32.929 28.4075C33.3919 28.1057 33.9353 27.9547 34.5592 27.9547C35.1429 27.9547 35.6259 28.0755 36.0083 28.317C36.4108 28.5585 36.7127 28.9107 36.914 29.3736C37.0786 29.7523 37.1759 30.2252 37.2058 30.7925H31.6051ZM50.2941 40C48.362 40 46.9331 39.4868 46.0073 38.4604C45.1016 37.4138 44.6488 35.844 44.6488 33.7509V8.75472C44.6488 7.86918 44.8803 7.19497 45.3431 6.73207C45.806 6.26918 46.4601 6.03774 47.3054 6.03774C48.1708 6.03774 48.835 6.26918 49.2979 6.73207C49.7809 7.19497 50.0224 7.86918 50.0224 8.75472V33.5698C50.0224 34.3145 50.1633 34.8579 50.445 35.2C50.7469 35.5421 51.1293 35.7132 51.5922 35.7132C51.7331 35.7132 51.874 35.7031 52.0148 35.683C52.1758 35.6428 52.3469 35.6126 52.528 35.5925C52.8702 35.5925 53.1218 35.7233 53.2828 35.9849C53.4639 36.2465 53.5545 36.7799 53.5545 37.5849C53.5545 38.2893 53.4136 38.8226 53.1318 39.1849C52.8501 39.527 52.4174 39.7484 51.8337 39.8491C51.6727 39.8692 51.4413 39.8994 51.1394 39.9396C50.8375 39.9799 50.5557 40 50.2941 40ZM56.5026 38.4604C57.4284 39.4868 58.8573 40 60.7894 40C61.051 40 61.3328 39.9799 61.6347 39.9396C61.9365 39.8994 62.168 39.8692 62.329 39.8491C62.9126 39.7484 63.3453 39.527 63.6271 39.1849C63.9089 38.8226 64.0497 38.2893 64.0497 37.5849C64.0497 36.7799 63.9592 36.2465 63.778 35.9849C63.617 35.7233 63.3655 35.5925 63.0233 35.5925C62.8422 35.6126 62.6711 35.6428 62.5101 35.683C62.3692 35.7031 62.2284 35.7132 62.0875 35.7132C61.6246 35.7132 61.2422 35.5421 60.9403 35.2C60.6585 34.8579 60.5177 34.3145 60.5177 33.5698V8.75472C60.5177 7.86918 60.2762 7.19497 59.7931 6.73208C59.3302 6.26918 58.6661 6.03773 57.8007 6.03773C56.9554 6.03773 56.3013 6.26918 55.8384 6.73208C55.3755 7.19497 55.1441 7.86918 55.1441 8.75472V33.7509C55.1441 35.844 55.5969 37.4138 56.5026 38.4604Z" fill="#0B0A0A"/>
<path fill-rule="evenodd" clip-rule="evenodd" d="M2.95849 11.39C2.01258 11.39 1.27799 11.1687 0.754717 10.7259C0.251572 10.2831 0 9.6391 0 8.79382C0 7.96866 0.251572 7.3347 0.754717 6.89193C1.27799 6.44917 2.01258 6.22778 2.95849 6.22778C3.94465 6.22778 4.68931 6.44917 5.19245 6.89193C5.6956 7.3347 5.94717 7.96866 5.94717 8.79382C5.94717 9.6391 5.6956 10.2831 5.19245 10.7259C4.68931 11.1687 3.94465 11.39 2.95849 11.39Z" fill="#FF776F"/>
</g>
<defs>
<clipPath id="clip0_23_300">
<rect width="65" height="40" fill="white"/>
</clipPath>
</defs>
</svg>
