<svg width="490" height="146" viewBox="0 0 490 146" fill="none" xmlns="http://www.w3.org/2000/svg">
<path fill-rule="evenodd" clip-rule="evenodd" d="M270.087 159.575C269.232 166.717 274.809 173 282.002 173H322.171C325.827 173 329.018 170.521 329.922 166.978L348.551 93.9781C349.842 88.9196 346.02 84 340.799 84H289.775C283.699 84 278.581 88.5418 277.86 94.5751L270.087 159.575Z" fill="#70DAE5"/>
<path fill-rule="evenodd" clip-rule="evenodd" d="M215.27 73.9237C212.962 65.1308 205.015 59 195.925 59H129.003C123.946 59 120.157 63.6335 121.162 68.5897L139.613 159.59C140.369 163.319 143.648 166 147.454 166H213.506C226.614 166 236.178 153.602 232.851 140.924L215.27 73.9237Z" fill="#70DAE5"/>
<path d="M148.342 24.1598C147.634 19.3314 151.377 15 156.257 15H313.742C318.622 15 322.365 19.3314 321.658 24.1598L301.878 159.16C301.302 163.088 297.933 166 293.962 166H176.037C172.067 166 168.698 163.088 168.122 159.16L148.342 24.1598Z" fill="#FF7C73"/>
<path d="M175.994 39.1321C173.656 18.6193 173.625 16.2285 175.693 15.8293C177.738 15.4348 177.81 15.6897 179.209 28.3274C179.928 34.8258 180.894 43.2082 181.354 46.956C182.55 56.7124 182.132 60.1917 179.896 59.084C178.746 58.5139 177.444 51.8499 175.994 39.1321Z" fill="#0B0A0A"/>
<path d="M189.202 42.6226C188.138 34.0543 188.296 32.7373 190.388 32.8241C192.262 32.9005 192.594 34.014 193.38 42.8473C194.696 57.6515 191.044 57.4548 189.202 42.6226Z" fill="#0B0A0A"/>
<path d="M183.283 74.0916C180.849 75.0575 183.659 99.7445 186.287 100.48C188.819 101.188 189.052 99.4932 187.71 90.1529C185.381 73.9583 185.208 73.3284 183.283 74.0916Z" fill="#0B0A0A"/>
<path d="M21.2813 61.8442C19.0826 63.0117 24.4534 85.2794 27.0223 85.6468C29.0535 85.9367 29.0101 85.3485 25.9368 70.6449C24.1629 62.1647 23.3995 60.7201 21.2813 61.8442Z" fill="#0B0A0A"/>
<path d="M36.8178 81.4741C35.4058 80.7693 33.3847 74.077 34.1319 72.58C35.0308 70.779 37.4741 73.1923 38.2696 76.6682C39.2054 80.759 38.7052 82.4162 36.8178 81.4741Z" fill="#0B0A0A"/>
<path d="M38.8098 138.389C36.7637 138.448 36.0199 136.339 31.5598 117.836C28.7951 106.364 27.8493 100.245 28.7306 99.5161C30.4464 98.0989 31.9581 101.076 34.0009 109.893C34.7856 113.28 36.5988 120.844 38.032 126.701C40.8181 138.092 40.8331 138.331 38.8098 138.389Z" fill="#0B0A0A"/>
<path d="M463.145 107.965C465.755 108.187 474.262 84.8428 472.239 83.0112C470.29 81.2473 469.325 82.6601 466.356 91.6169C461.209 107.148 461.082 107.788 463.145 107.965Z" fill="#0B0A0A"/>
<path d="M452.986 110.944C454.492 110.509 457.454 103.593 456.923 101.752C456.283 99.5373 453.509 101.611 452.223 105.266C450.711 109.567 450.974 111.525 452.986 110.944Z" fill="#0B0A0A"/>
<path fill-rule="evenodd" clip-rule="evenodd" d="M155.206 11.3033L159.504 44H10.8856C4.52299 44 -0.221729 49.8636 1.10566 56.0862L20.5175 147.086C21.5019 151.701 25.5786 155 30.2974 155H173.701C174.703 155 175.677 154.851 176.598 154.572C178.36 156.092 180.65 157 183.13 157H306.87C309.553 157 312.014 155.936 313.824 154.186C315.045 154.712 316.385 155 317.777 155H461.222C465.705 155 469.641 152.016 470.851 147.7L489.076 82.6998C490.865 76.3224 486.071 70 479.448 70H327.078L334.794 11.3034C335.581 5.31439 330.92 0 324.879 0H165.12C159.08 0 154.418 5.31439 155.206 11.3033ZM165.136 4C161.507 4 158.709 7.19556 159.188 10.7922L163.843 45.7359C163.867 45.9215 163.866 46.1076 163.839 46.2891L177.181 147.782C177.266 148.425 177.45 149.033 177.717 149.591C178.334 149.364 179.037 149.451 179.587 149.851C180.583 150.577 181.804 151 183.117 151H306.881C308.449 151 309.888 150.397 310.967 149.394C311.414 148.978 312.004 148.805 312.57 148.873C312.685 148.523 312.769 148.159 312.818 147.782L322.723 72.4351C322.673 72.2081 322.662 71.9716 322.693 71.7359L330.811 10.7922C331.29 7.19556 328.492 4 324.863 4H165.136ZM173.701 151C173.788 151 173.874 150.998 173.961 150.994C173.595 150.154 173.34 149.252 173.215 148.303L160.03 48H10.8856C7.06804 48 4.22123 51.5181 5.01765 55.2517L24.4295 146.252C25.0201 149.021 27.4661 151 30.2974 151H173.701ZM317.777 151C317.21 151 316.658 150.921 316.133 150.771C316.449 149.995 316.671 149.168 316.784 148.303L326.552 74H479.448C483.422 74 486.298 77.7935 485.225 81.6199L466.999 146.62C466.273 149.21 463.912 151 461.222 151H317.777Z" fill="#0B0A0A"/>
<path d="M237.574 95.0001C236.291 95.0001 235.303 94.6707 234.61 94.0121C233.951 93.3187 233.622 92.3481 233.622 91.1001C233.622 89.8521 233.951 88.8987 234.61 88.2401C235.303 87.5814 236.291 87.2521 237.574 87.2521H242.254V65.9841H246.622L239.082 70.6121C238.181 71.1667 237.331 71.3921 236.534 71.2881C235.737 71.1494 235.061 70.8027 234.506 70.2481C233.951 69.6934 233.587 69.0174 233.414 68.2201C233.241 67.4227 233.31 66.6254 233.622 65.8281C233.934 65.0307 234.558 64.3547 235.494 63.8001L242.67 59.3281C243.433 58.8427 244.213 58.4787 245.01 58.2361C245.842 57.9934 246.709 57.8721 247.61 57.8721C248.927 57.8721 249.95 58.2187 250.678 58.9121C251.406 59.5707 251.77 60.5414 251.77 61.8241V87.2521H255.93C257.213 87.2521 258.183 87.5814 258.842 88.2401C259.535 88.8987 259.882 89.8521 259.882 91.1001C259.882 92.3481 259.535 93.3187 258.842 94.0121C258.183 94.6707 257.213 95.0001 255.93 95.0001H237.574Z" fill="black"/>
<path d="M86.8981 120C85.3728 120 84.2634 119.653 83.5701 118.96C82.9114 118.232 82.5821 117.175 82.5821 115.788C82.5821 114.817 82.7901 113.951 83.2061 113.188C83.6568 112.425 84.2288 111.68 84.9221 110.952L94.0221 101.436C95.3741 99.9801 96.3274 98.7321 96.8821 97.6921C97.4714 96.6521 97.7661 95.6121 97.7661 94.5721C97.7661 93.2547 97.3328 92.2667 96.4661 91.6081C95.5994 90.9494 94.3514 90.6201 92.7221 90.6201C91.8901 90.6201 91.0061 90.7414 90.0701 90.9841C89.1341 91.1921 88.1288 91.5734 87.0541 92.1281C86.1181 92.5441 85.2688 92.6654 84.5061 92.4921C83.7781 92.3187 83.1541 91.9374 82.6341 91.3481C82.1488 90.7587 81.8368 90.0827 81.6981 89.3201C81.5941 88.5574 81.7154 87.8121 82.0621 87.0841C82.4088 86.3214 83.0328 85.6974 83.9341 85.2121C85.5288 84.3454 87.1754 83.7214 88.8741 83.3401C90.6074 82.9587 92.3408 82.7681 94.0741 82.7681C96.9168 82.7681 99.2914 83.1841 101.198 84.0161C103.139 84.8481 104.613 86.0614 105.618 87.6561C106.623 89.2161 107.126 91.1574 107.126 93.4801C107.126 94.9361 106.901 96.3574 106.45 97.7441C106.034 99.1307 105.341 100.517 104.37 101.904C103.434 103.291 102.169 104.764 100.574 106.324L92.1501 114.644V112.252H104.994C106.277 112.252 107.247 112.581 107.906 113.24C108.599 113.899 108.946 114.852 108.946 116.1C108.946 117.348 108.599 118.319 107.906 119.012C107.247 119.671 106.277 120 104.994 120H86.8981Z" fill="black"/>
<path d="M399.918 137.572C398.15 137.572 396.382 137.399 394.614 137.052C392.846 136.705 391.321 136.22 390.038 135.596C388.929 135.076 388.149 134.435 387.698 133.672C387.282 132.909 387.109 132.129 387.178 131.332C387.247 130.535 387.525 129.824 388.01 129.2C388.53 128.576 389.189 128.16 389.986 127.952C390.818 127.709 391.754 127.813 392.794 128.264C394.077 128.819 395.255 129.2 396.33 129.408C397.405 129.616 398.479 129.72 399.554 129.72C400.802 129.72 401.842 129.581 402.674 129.304C403.506 129.027 404.13 128.611 404.546 128.056C404.962 127.467 405.17 126.739 405.17 125.872C405.17 124.659 404.737 123.775 403.87 123.22C403.038 122.631 401.807 122.336 400.178 122.336H397.37C396.053 122.336 395.047 122.007 394.354 121.348C393.661 120.689 393.314 119.753 393.314 118.54C393.314 117.327 393.661 116.391 394.354 115.732C395.047 115.073 396.053 114.744 397.37 114.744H399.242C400.247 114.744 401.097 114.605 401.79 114.328C402.518 114.051 403.073 113.652 403.454 113.132C403.835 112.577 404.026 111.901 404.026 111.104C404.026 109.96 403.61 109.093 402.778 108.504C401.981 107.915 400.785 107.62 399.19 107.62C398.219 107.62 397.231 107.724 396.226 107.932C395.221 108.14 394.146 108.504 393.002 109.024C392.101 109.405 391.269 109.492 390.506 109.284C389.778 109.076 389.171 108.677 388.686 108.088C388.235 107.464 387.958 106.788 387.854 106.06C387.75 105.297 387.871 104.552 388.218 103.824C388.565 103.096 389.223 102.489 390.194 102.004C391.65 101.276 393.227 100.721 394.926 100.34C396.659 99.9587 398.393 99.7681 400.126 99.7681C402.865 99.7681 405.205 100.167 407.146 100.964C409.087 101.761 410.561 102.923 411.566 104.448C412.606 105.939 413.126 107.741 413.126 109.856C413.126 111.243 412.866 112.525 412.346 113.704C411.826 114.883 411.063 115.871 410.058 116.668C409.053 117.431 407.874 117.985 406.522 118.332V117.604C408.949 117.985 410.838 119.008 412.19 120.672C413.577 122.301 414.27 124.347 414.27 126.808C414.27 129.027 413.698 130.951 412.554 132.58C411.41 134.209 409.763 135.457 407.614 136.324C405.465 137.156 402.899 137.572 399.918 137.572Z" fill="black"/>
</svg>
